<?xml version="1.0" encoding="UTF-8"?>
<svg id="Capa_1" xmlns="http://www.w3.org/2000/svg" version="1.1" viewBox="0 0 4402 3028.2">
  <!-- Generator: Adobe Illustrator 29.3.1, SVG Export Plug-In . SVG Version: 2.1.0 Build 151)  -->
  <defs>
    <style>
      .st0 {
        fill: none;
      }

      .st1 {
        fill: #cffe1e;
      }

      .st2 {
        fill: #ad86c0;
      }

      .st3 {
        fill: #e1e2d4;
      }
    </style>
  </defs>
  <g>
    <path class="st1" d="M908.8,1789c-36.1,9.6-12.1,61.2-39.3,81.3-48,35.4-48.1-33-53.2-56.5-16.3-75-133.9-76.4-197.7-61.7-57.5,13.2-109.1,38.3-169.2,44.5-32.6,3.3-91.5,15.4-113.2-15.2-84.8-119.9,216.2-152.8,285.2-143.3,61.3,8.4,108,52.5,165.2,70.4,38.8,12.1,71.7-5.3,44.9-45.5-22.1-33.1-91.8-51.8-130.5-56.9-29.6-3.9-60-1.4-90.1-1.7-65.1-.6-129.1-10.9-194.5-8.5-59.5,2.2-119.6,2.2-176.3-9.3-29.8-6.1-83.3-15.4-104.8-36.5-17.7-17.5-15-47.3-15.9-70.1-3.7-90.8,25.4-203.6-18.3-288.5-14.4-27.9-38.8-42.4-56.4-66.7-26.9-37-27.8-91.9-25-136.5,3.5-57,30-114.7,45.8-169.6,19.3-67.1,19.6-127.4,16.5-198.3-4.2-96.4,23.6-234,147.9-247.2,40.3-4.3,84.1-1.2,107.7,35.5,22.4,34.8,1.3,74-15.3,106.6-27.1,53.4-56.3,94.2-53.5,155.3,2.5,53.8,10.7,108.4-8.6,159.5-24.8,65.8-75.6,105.2-79.3,178.1-3.4,67.4,23.9,115.8,38.4,179.9,13.3,58.9,11.5,116.7,14,177.1,1.8,44,18.9,72.1,60.2,93,104.2,52.6,242.5,47.7,357.1,60.2,44.3,4.8,92,16.7,129,39.1,24.8,15,44,39.1,76.2,33.7,19.1-55-61.9-73.4-102.7-89.2-52.2-20.2-106.6-36.3-162.2-45.8-50.6-8.6-100.4-8.2-149.6-24.4-55.3-18.2-128.3-49.4-134.7-108.9-6.4-59.1,14.5-121-1.5-178.5-19.3-69.6-93.3-118.2-59.3-196.3,17.5-40.2,50.6-73.9,73.4-111.6,41.7-69.1-.9-151.6,49.8-215.9,24.2-30.7,64.1-27.1,86.7-59.5,30-42.9,34.5-137.3,25.5-187.4-7.6-42.3-34.1-70.6-10.4-112.8,19-33.9,50.6-46.8,92-42.8,101.6,9.8,109.3,109.8,67.1,179-25,40.9-53.8,82.3-72.9,126.8-19.6,45.6-16.8,87.7-19.5,136.6-4.6,82.3-19.5,161.8-67.1,232.6-33.9,50.3-76.8,82.2-82.5,143.5-5.5,60.3,49.7,102.5,57.3,161.9,5.5,42.5-12.1,83.6-4.2,125.5,15.9,83.6,136.5,86.7,210.1,103.9,41.1,9.6,80,25.2,117.1,44.1,17.3,8.8,63.5,46.4,83.6,28.1,9.1-8.2,2.7-37-4.4-45-17.2-19.3-62.8-24.5-86.3-30.6-66.1-17.3-127.4-37.4-187.7-70.6-55.2-30.4-61-67.4-61.5-127-.3-29.9,5.6-63.2-1.6-92.7-6.9-28.1-18.4-52.9-22.4-82.4-6.7-48.7,7.6-94.1,46.6-128.5,56.3-49.8,70.8-92.4,69.6-171.2-1-64.9-60-205.9,40.6-229.5,101.5-23.8,132.8,96.5,104.2,163.9-25.4,59.9-46.8,100-46.8,166.9,0,39.5-6.1,69.9-31.7,102.7-33.6,43-80,70-86.6,126.7-5.6,48.2,7.9,78.3,32,117.9,19.8,32.5,22.1,59.9,33.4,93.6,14.1,41.8,64.5,76.4,104.7,95.7,21.4,10.3,82.5,39.1,84.4-.4,1.7-34.6-61.3-35-80.8-58.4-23.9-28.7-12-66.9-19.8-99.7-11.5-48.3-62.9-79.3-68.7-131.1-4.2-37.1,17.6-52.5,49-29.2,28,20.8,31.7,54.5,38,85,3.6,17.8,17.2,197.9,63.3,172.2,22.7-12.6-1.2-116.8-4.5-131-11.9-50-22.6-97-42-145.4-17.7-44.3-62.4-207.5,38.6-192,37,5.7,52.4,45,51,76.6-1.9,43.4-17.7,88-22.2,132-2.5,24.3-27.8,234.4,34.6,226,36.9-5-6.7-171.3,3.6-203.7,16.5-51.9,71.4-35.5,75.7,11.4,3.2,34.9-5.7,61.9-10.7,94.8-5.7,37.4,2.4,74.2,4.1,112,1,22.2,1.6,34.2-6.5,52.9-5.7,13.2-16,20.4-17.7,35.8-5.8,51,43.9,14.2,55.7-13.9,15-35.9,8.7-88.2,6.9-127-3.3-71.2,44.5-131,25.6-203.3-9.8-37.6-34.4-53.4-53-83.1-18.9-30.3-11.7-71.4-29.7-104.2-21.8-39.8-63.7-66.1-88.1-104.3-21.5-33.5-28.7-66-28-105.4,1.2-65.5,96.7-116.5,161-97.6-.3,47.6,32.8,92.1,34.9,142.3,1.9,44.3-8.2,85.1-6.9,128.8,2.3,74.5,66,118.7,77.1,188.1,5.1,31.8-2.8,64-15.5,92.3-19.2,42.6-27.9,62.5-25.8,110,3.3,76.7,19.7,144-47.3,201-32.9,28-94.5,61.2-61.4,111.3,20.1-8.5,29.8-28.4,46.8-40.1,18.8-13,40.8-13.7,59.1-23.1,44.8-22.9,48.5-60.6,46.6-104.5-3.7-85.5-16.4-161.4,13.8-242.4,14.7-39.6,33.3-73.3,27.8-116.4-5.9-46.1-45-65.6-69.4-102-23.8-35.4-28.4-83.6-25.8-125.4,2.2-36.1,26.2-58.8,32.8-92.9,14.2-73.9-7-125.6-48-185-26.6-38.6-69.9-61.1-100.7-95.6-40.8-45.7-91.2-123.7-45.9-181.4,34.1-43.5,150.1-76.3,193.9-35.7,56.5,52.5,47.4,141.6,79.4,205.4,38.4,76.6,102.8,116.7,99.8,207.1-1.2,36.5-18.7,70.4-26.7,105.7-9,39.7-3,83.2-.9,123.9,4.1,77.6,57.7,132.8,12.1,205.7-24.5,39.2-47.6,81.6-54.6,126.7-9,57.4,5.4,115.4-.3,172.5-8,80.1-42.4,134.5-118.4,174.8-36.1,19.1-81.1,26.3-113.4,52.5-20.9,16.9-48.1,72.2,1,59.7,36.7-9.4,63.1-43.4,102.9-50.4,47.5-8.3,82-4.7,122.6-36.8,41.5-32.8,37.3-88.1,42.4-133.6,6-52.6-2.7-106.4,11.1-158.4,12.1-45.4,28.9-81.7,49.6-123.6,17-34.6,36.7-62.6,40.7-102.2,5.9-58.2-7.2-108.3-31.8-160.5-17-36-27.9-70.8-20.6-110.5,7.9-42.9,28.7-82.9,35.4-126.4,8.7-56.4-9.3-95.5-44.5-140-35.8-45.3-151.1-174.4-21.6-184.7,38.4-3,82.8-7.7,120.7-3,55.3,6.9,84.8,49.4,107.2,93.7,44.5,88.1,67,192.1,62,291.5-5.2,103.1-22.5,203-65.1,299.1-46.9,105.8-129.4,199.5-139.6,318.2-7.4,86.5,28.9,202.5-40,271.3-68,67.8-191.5,56.5-277.9,81.7-18.8,5.5-74,30-45.6,55.1,10.5,9.3,44.3-.7,56.3-3.2,40.4-8.4,80.9-24.8,122.1-31.1,50.8-7.9,121.9-18.8,149.8,29.1,33.7,57.8-26.4,80.5-79.6,91.2-55.9,11.2-115.9,9-173.6.9-39.2-5.5-73.5,2.1-111.7-.2"/>
    <path class="st1" d="M3752.1,2206.9c-30.7,8.2-10.3,52-33.4,69.1-40.8,30.1-40.9-28.1-45.2-48-13.8-63.7-113.7-64.9-167.9-52.4-48.9,11.2-92.7,32.6-143.8,37.8-27.7,2.8-77.8,13.1-96.2-12.9-72.1-101.8,183.7-129.8,242.3-121.7,52.1,7.2,91.8,44.6,140.4,59.8,33,10.3,60.9-4.5,38.1-38.7-18.8-28.2-78-44-110.8-48.3-25.1-3.3-51-1.2-76.6-1.4-55.3-.5-109.7-9.3-165.3-7.2-50.6,1.9-101.6,1.9-149.8-7.9-25.3-5.1-70.8-13.1-89-31-15.1-14.8-12.7-40.2-13.5-59.6-3.2-77.2,21.6-173-15.5-245.1-12.2-23.7-33-36-47.9-56.6-22.8-31.5-23.6-78.1-21.3-116,3-48.4,25.5-97.4,38.9-144.1,16.4-57,16.6-108.3,14-168.5-3.5-81.9,20.1-198.8,125.6-210,34.2-3.6,71.4-1,91.5,30.2,19.1,29.6,1.1,62.8-13,90.6-23.1,45.4-47.8,80-45.4,131.9,2.1,45.7,9.1,92.1-7.3,135.5-21.1,55.9-64.2,89.3-67.4,151.3-2.9,57.3,20.3,98.4,32.6,152.8,11.3,50,9.7,99.1,11.9,150.4,1.6,37.4,16.1,61.3,51.2,79,88.6,44.7,206,40.6,303.4,51.1,37.6,4.1,78.2,14.2,109.6,33.2,21.1,12.8,37.4,33.2,64.7,28.6,16.2-46.7-52.6-62.3-87.3-75.8-44.3-17.2-90.5-30.9-137.9-38.9-43-7.3-85.3-7-127.1-20.8-47-15.5-109-42-114.5-92.5-5.5-50.2,12.3-102.8-1.3-151.6-16.4-59.1-79.3-100.5-50.3-166.8,14.9-34.2,43-62.8,62.3-94.8,35.4-58.7-.8-128.8,42.3-183.4,20.6-26.1,54.5-23,73.7-50.5,25.5-36.5,29.3-116.6,21.6-159.2-6.4-35.9-29-60-8.9-95.8,16.2-28.8,43-39.8,78.2-36.4,86.3,8.3,92.9,93.3,57,152.1-21.2,34.7-45.7,70-61.9,107.8-16.6,38.8-14.2,74.5-16.6,116.1-3.9,69.9-16.6,137.5-57,197.6-28.8,42.8-65.3,69.8-70.1,121.9-4.7,51.3,42.2,87.1,48.7,137.6,4.7,36.1-10.3,71-3.5,106.7,13.5,71,116,73.7,178.5,88.3,34.9,8.1,68,21.5,99.5,37.5,14.7,7.5,53.9,39.4,71,23.9,7.7-7,2.3-31.4-3.7-38.2-14.6-16.4-53.3-20.8-73.3-26-56.2-14.7-108.2-31.8-159.4-60-46.9-25.8-51.8-57.3-52.2-107.9-.2-25.4,4.7-53.7-1.4-78.8-5.8-23.8-15.6-44.9-19-70-5.7-41.4,6.5-79.9,39.6-109.2,47.8-42.3,60.2-78.5,59.1-145.5-.8-55.1-51-174.9,34.5-195,86.2-20.2,112.8,82,88.5,139.3-21.6,50.9-39.8,85-39.7,141.8,0,33.5-5.1,59.4-26.9,87.3-28.5,36.5-67.9,59.5-73.6,107.6-4.8,41,6.7,66.6,27.2,100.2,16.8,27.6,18.8,50.9,28.4,79.5,12,35.5,54.8,64.9,88.9,81.3,18.2,8.7,70.1,33.2,71.7-.4,1.4-29.4-52.1-29.7-68.7-49.7-20.3-24.3-10.2-56.8-16.8-84.7-9.7-41-53.4-67.4-58.4-111.4-3.6-31.5,14.9-44.6,41.6-24.8,23.8,17.6,26.9,46.3,32.2,72.2,3.1,15.1,14.6,168.1,53.8,146.3,19.3-10.7-1-99.2-3.9-111.3-10.1-42.5-19.2-82.4-35.6-123.5-15-37.7-53-176.3,32.8-163.1,31.5,4.8,44.5,38.2,43.3,65.1-1.6,36.9-15,74.7-18.8,112.2-2.1,20.6-23.6,199.2,29.4,192,31.3-4.2-5.7-145.5,3.1-173.1,14-44.1,60.6-30.2,64.3,9.7,2.7,29.7-4.8,52.6-9.1,80.6-4.9,31.8,2.1,63,3.5,95.1.8,18.9,1.4,29-5.5,45-4.8,11.2-13.6,17.3-15.1,30.4-5,43.3,37.3,12,47.3-11.8,12.8-30.5,7.4-74.9,5.9-107.9-2.8-60.5,37.8-111.3,21.8-172.8-8.3-31.9-29.2-45.4-45-70.6-16.1-25.8-10-60.7-25.3-88.6-18.5-33.8-54.1-56.2-74.9-88.6-18.2-28.5-24.4-56.1-23.8-89.5,1-55.7,82.2-99,136.8-83-.2,40.5,27.8,78.3,29.6,120.9,1.6,37.6-7,72.3-5.9,109.4,1.9,63.3,56.1,100.9,65.5,159.8,4.3,27-2.4,54.4-13.2,78.4-16.3,36.2-23.7,53.1-21.9,93.5,2.8,65.2,16.8,122.4-40.2,170.8-28,23.8-80.3,52-52.2,94.6,17.1-7.2,25.3-24.1,39.8-34.1,16-11,34.7-11.7,50.2-19.6,38.1-19.4,41.2-51.5,39.6-88.8-3.2-72.6-13.9-137.1,11.7-206,12.5-33.7,28.3-62.3,23.6-98.9-5-39.2-38.3-55.7-59-86.6-20.2-30.1-24.1-71.1-21.9-106.5,1.9-30.7,22.3-50,27.9-78.9,12.1-62.8-6-106.7-40.8-157.2-22.6-32.8-59.4-51.9-85.6-81.3-34.7-38.9-77.5-105.1-39-154.1,29-36.9,127.6-64.8,164.8-30.3,48,44.6,40.3,120.3,67.4,174.5,32.6,65.1,87.3,99.1,84.8,176-1,31-15.9,59.8-22.7,89.8-7.6,33.8-2.6,70.7-.8,105.3,3.5,65.9,49,112.8,10.3,174.7-20.8,33.3-40.4,69.3-46.4,107.7-7.6,48.8,4.6,98-.3,146.5-6.8,68-36,114.3-100.6,148.5-30.7,16.3-68.9,22.3-96.3,44.6-17.7,14.4-40.8,61.4.8,50.8,31.2-7.9,53.6-36.9,87.4-42.8,40.4-7,69.6-4,104.2-31.3,35.3-27.9,31.7-74.8,36.1-113.5,5.1-44.7-2.3-90.4,9.4-134.6,10.3-38.6,24.6-69.4,42.1-105,14.5-29.4,31.2-53.2,34.6-86.9,5.1-49.4-6.1-92-27-136.4-14.5-30.6-23.7-60.1-17.5-93.9,6.7-36.5,24.4-70.4,30.1-107.4,7.4-47.9-7.9-81.1-37.8-118.9-30.4-38.5-128.4-148.2-18.4-156.9,32.7-2.6,70.4-6.5,102.6-2.5,47,5.9,72,42,91,79.6,37.8,74.9,57,163.2,52.7,247.7-4.4,87.6-19.1,172.5-55.3,254.1-39.9,89.9-110,169.5-118.6,270.4-6.3,73.5,24.6,172-34,230.5-57.8,57.6-162.7,48-236.1,69.4-16,4.7-62.9,25.5-38.7,46.8,8.9,7.9,37.6-.6,47.9-2.8,34.3-7.2,68.7-21,103.7-26.5,43.2-6.7,103.6-16,127.3,24.7,28.7,49.1-22.4,68.4-67.6,77.4-47.5,9.5-98.5,7.7-147.5.8-33.3-4.7-62.4,1.8-94.9-.2"/>
    <path class="st2" d="M680.9,2062.5c36.1-12.9,50.9-6,89.6-7.7,53.6-2.3,105.9-19.5,159.5-21.6,49.2-1.9,98.6,1,147.8-.1,16.9,31.6,9.5,83.9,9.6,118.4,0,19.7-2.1,39.2-2.2,58.7,39.1,23.1,81.4,37.2,119,64.1,35.8,25.5,69,54.2,93.9,91.1,58.2,86.3,73.4,192.5,44.8,292-20,69.7-49.2,170.3-122.4,201.3-27.9,11.8-56.8,16.9-86.4,22.1-12,2.1-46.2,1.7-56.7,9.2-11.8,8.3-4.7,52.6-4.7,69.4s2.8,35.8,0,52c-2.8,16.3-4.2,15.8-20,23.9-53.7,27.4-114.6,25-173.3,25s-146.7,10.8-212.5-6.4c12.4-25.3,3.1-72.9,3.1-101.5s5.4-40,.1-48.4c-4.1-6.5-23.3-8.1-30.8-11.1-14.4-5.8-28.9-14.7-41.7-23.3-26.5-17.8-46.6-41.6-63.9-68.5-36.5-56.6-59.2-130.9-61.6-198.4-2.4-69.5,9.6-132.8,40.1-196,25.2-52.3,68.3-101.7,115.6-134.2,13.3-9.1,29.1-16.3,41.7-25.6,17.6-13,15.1-19.3,15-44.2,0-30.3,1.5-61,0-91.3-.8-16.4-5.6-32.7-3.7-48.9"/>
    <path class="st2" d="M3477,2279.3c23.9-.4,37.9,8.1,60.5,15.5,35.9,11.8,78.3,15.1,115.9,18.4,42.1,3.8,113.7,13.5,153.4-3.5,3.2,63.8,12.2,142.7-1.4,204.7,61.2,12.5,137.3,39,168,96.2,51.6,96.2,47.6,228.9,51.8,334.5,4,102.6,11.9,206.6-33.4,301.9-32.6,68.8-79.6,119.7-151,144.8-85.4,30-180.9,33.6-271.3,25.8-53.5-4.7-105.7-44.9-128.1-93-22.5-48.4-28-98.3-42.6-148.9-17.3-60.1-30.1-130.2-32.1-192.6-3.1-97.7,7.2-190,38.2-283,8.3-25,20.6-55.4,36.1-77,13.2-18.5,34.1-25.9,48.9-41.2,23.3-24.1,18.4-57.6,14.8-90.7-4.5-40.8-11.7-80.7-15-121.9-1.8-22.4.3-56.2-7.6-77.2"/>
    <rect class="st0" x="922.5" y="-646" width="2680.7" height="3791.3"/>
  </g>
  <g>
    <path class="st2" d="M2056.1,1504.4c-19-26.3-21.5-66.9-33.6-97.1-13-32.6-32.2-62.9-29.5-99.3,5.7-76.5,77.9-29.2,114.9-6.2,95.1,59,183.2-37,286.9-23.4,106.6,13.9-60.7,166-46.1,210.2,19.7,59.8,164.4,2.3,204.9-4.1,77-12.2,123.1,5,187.5,48.2,49.5,33.2,63.7,86,77.9,140.8,20.9,80.7,21.7,194.2,2.6,275.2-11.8,49.9-24,103.9-24.3,153.6-.4,65.2,27.9,133,37.2,196.8,15.4,106-12.5,205.7-29.3,309.8-16.7,103.5-79.4,181.4-174.3,225.9-44.2,20.7-90.5,33.1-138.4,40.2-72,10.7-143,27.4-215.9,28.3-65.7.8-139.3,11.2-204.3,2.5-67.3-9-136.5-39.6-197.7-67.1-96.4-43.3-198-101.9-255.5-193.4-38.9-61.9-39.8-134.8-41-206.2-1.6-98.9,41.4-186.3,39-286.4-1.6-68.6-31.2-131.8-46.5-197.9-21.7-93.6-48.2-225-4.9-315.6,60.5-126.6,155.3-173.1,287.7-175.1,42.7-.6,77.6,7.1,117,22,21.6,8.2,42.3,19.2,65.6,18.5"/>
    <path class="st3" d="M2011.9,1631.5c-52.6-70.2-192.8-82.7-268-46.9-106.4,50.6-95.2,199-90.5,298.8,1,21.8,7.7,141,40.9,148.7,25.7,5.9,35.9-41.9,47.8-57.9,23.5-31.5,58.3-60.7,92.4-80.5,64.2-37.3,89.4-55.3,117.7-123.5,17.2-41.6,43-98.1,59.7-138.7"/>
    <path class="st3" d="M2412.4,1612.8c83.7-45.2,176.3-76,269.8-38.3s101.6,216.2,78.9,318.8c-7.9,35.8-3.4,101.7-45.9,94.7-31.9-5.3-109.4-80.7-132-108.1-29.6-36.1-45.4-84-65.3-125.4-24.3-50.7-51.6-83.4-88.1-124.8"/>
  </g>
  <path class="st1" d="M2146.9,1239.3c38,9.6,13.6,64,42.5,84.7,50.9,36.4,50-35.3,55-60,15.9-78.9,139.3-82.1,206.4-67.7,60.5,13,115,38.6,178.2,44.1,34.2,3,96.2,14.8,118.5-17.6,87.2-127-229-157-301.3-146-64.2,9.8-112.5,56.7-172.2,76.3-40.5,13.3-75.3-4.5-47.7-47,22.7-35.1,95.5-55.7,136-61.6,31-4.6,62.9-2.4,94.5-3.1,68.3-1.6,135.2-13.4,203.9-11.8,62.5,1.4,125.4.5,184.7-12.4,31.2-6.8,87.1-17.4,109.3-39.9,18.3-18.6,15-49.8,15.6-73.8,2.6-95.3-29.7-213.1,14.8-302.9,14.6-29.5,40.1-45.1,58.1-70.7,27.6-39.3,27.8-96.8,24.2-143.6-4.6-59.7-33.1-119.8-50.6-177.2-21.3-70.1-22.4-133.4-20.3-207.7,2.9-101.2-28.3-245-158.8-257-42.3-3.9-88.2,0-112.4,38.8-23,36.9-.2,77.6,17.7,111.6,29.3,55.6,60.4,97.9,58.4,162-1.8,56.4-9.6,113.8,11.4,167.2,27,68.6,80.9,109.1,85.8,185.6,4.6,70.6-23.3,121.8-37.6,189.2-13.1,61.9-10.3,122.5-12,185.9-1.3,46.2-18.7,75.9-61.8,98.4-108.5,56.7-253.6,53.7-373.6,68.5-46.4,5.7-96.3,18.9-134.7,42.9-25.8,16.2-45.6,41.7-79.4,36.5-20.8-57.4,63.8-77.9,106.4-95,54.4-22,111.2-39.7,169.5-50.5,52.9-9.8,105.2-10.1,156.5-27.9,57.7-20,133.8-53.7,139.7-116.2,5.9-62.1-17-126.7-1.1-187.2,19.2-73.2,96.1-125.4,59.2-206.8-19-41.9-54.2-76.7-78.6-116-44.7-71.8-1.3-159.1-55.5-225.7-25.9-31.8-67.6-27.4-91.8-61.1-32.1-44.6-38.2-143.5-29.5-196.1,7.3-44.5,34.7-74.5,9.3-118.5-20.5-35.3-53.7-48.4-97.1-43.5-106.4,11.8-113,116.8-67.7,188.8,26.8,42.5,57.6,85.6,78.3,131.9,21.2,47.6,18.9,91.7,22.5,143,6,86.2,22.9,169.4,73.9,242.9,36.3,52.3,81.8,85,88.6,149.3,6.7,63.2-50.6,108.3-57.7,170.7-5.1,44.7,14,87.5,6.2,131.6-15.4,87.9-141.9,93-218.8,112.1-43,10.7-83.5,27.7-122.1,48-18,9.5-65.9,49.6-87.2,30.8-9.7-8.5-3.4-38.7,3.9-47.2,17.8-20.5,65.5-26.6,90.1-33.4,69.1-19.1,133-41.1,195.8-76.9,57.4-32.7,62.9-71.6,62.6-134.1-.2-31.4-6.8-66.2.3-97.3,6.8-29.5,18.5-55.8,22.3-86.7,6.3-51.2-9.4-98.6-50.8-134.1-59.8-51.4-75.6-95.9-75.6-178.5,0-68.1,59.8-216.8-46-240.1-106.8-23.5-137.8,103.2-106.8,173.5,27.5,62.4,50.6,104.2,51.6,174.3.6,41.4,7.4,73.2,34.8,107.2,35.9,44.6,84.9,72.2,92.7,131.5,6.6,50.5-7.1,82.3-31.8,124.1-20.3,34.4-22.3,63.2-33.6,98.6-14.1,44-66.5,81.1-108.3,101.9-22.3,11.1-85.9,42.2-88.5.8-2.2-36.3,63.7-37.6,83.9-62.5,24.6-30.4,11.6-70.4,19.3-104.9,11.3-50.8,64.8-84.1,70.1-138.6,3.8-39-19.2-54.8-51.8-29.9-29,22.2-32.4,57.6-38.5,89.7-3.5,18.7-15.1,207.8-63.8,181.6-24-12.9-.5-122.5,2.8-137.5,11.8-52.6,22.3-102.1,41.8-153.1,17.9-46.7,62.3-218.5-43.3-200.8-38.7,6.5-54.2,48-52.3,81.1,2.7,45.5,19.8,92,25.2,138.1,3,25.4,32.7,245.4-32.9,237.5-38.7-4.7,4.5-179.7-6.8-213.6-18.1-54.2-75.4-36.2-79.2,13.1-2.8,36.7,6.9,64.8,12.7,99.3,6.6,39.2-1.4,77.8-2.6,117.5-.7,23.3-1.2,35.9,7.6,55.4,6.2,13.7,17.1,21.1,19.1,37.3,6.9,53.4-45.9,15.5-58.6-13.8-16.3-37.5-10.4-92.4-9.2-133.1,2.4-74.8-48.6-136.7-29.9-212.9,9.7-39.6,35.3-56.5,54.3-88,19.4-32.1,11.2-75.1,29.6-109.8,22.3-42,65.8-70.3,90.9-110.7,22-35.5,29.1-69.7,27.8-111-2.3-68.7-103.2-120.8-170.3-100,1,50-33,97.1-34.5,149.7-1.3,46.4,9.9,89.2,9.2,135-1.3,78.2-67.4,125.5-78,198.4-4.9,33.4,3.9,67.1,17.7,96.6,20.7,44.4,30.2,65.1,28.7,115-2.4,80.5-18.6,151.4,52.6,210.1,34.9,28.8,100.1,62.8,66.1,115.8-21.2-8.6-31.7-29.3-49.7-41.4-20-13.3-43-13.8-62.4-23.3-47.3-23.3-51.7-62.8-50.4-108.9,2.6-89.7,14.7-169.5-18.1-254.1-16.1-41.4-36-76.4-30.9-121.7,5.5-48.4,46.3-69.5,71.3-108,24.4-37.5,28.5-88.1,25.2-131.9-2.9-37.8-28.4-61.3-35.8-96.9-16-77.3,5.5-131.8,47.6-194.8,27.3-40.9,72.4-65.2,104.2-101.8,42.1-48.6,93.8-131.1,45.4-191-36.4-45.1-158.6-77.8-203.9-34.5-58.5,55.9-47.6,149.3-80.2,216.6-39.1,80.9-106,123.9-101.6,218.7,1.8,38.3,20.7,73.6,29.5,110.5,10,41.5,4.4,87.2,2.8,130-3.1,81.5-58.5,140.1-9.6,215.9,26.3,40.7,51.1,84.9,59.2,132.1,10.3,60-3.9,121.1,2.9,180.9,9.6,83.9,46.5,140.4,126.8,181.5,38.2,19.5,85.4,26.3,119.7,53.4,22.1,17.4,51.5,75-.1,62.7-38.6-9.3-66.8-44.6-108.7-51.3-50-8-86-3.7-129.2-36.8-44-33.8-40.4-91.8-46.5-139.5s1.3-111.7-14-166c-13.4-47.5-31.6-85.2-53.8-128.9-18.4-36-39.4-65.2-44.3-106.6-7.1-60.9,5.9-113.7,31-168.8,17.3-38,28.2-74.7,20-116.2-8.9-44.9-31.4-86.5-39-132-9.9-59,8.3-100.3,44.6-147.5,36.9-48,155.9-185.2,19.9-194-40.3-2.6-87-6.8-126.7-1.3-57.9,8.1-88.2,53.1-111,99.9-45.4,93.1-67.4,202.4-60.7,306.6,7,108.1,26.6,212.6,72.8,312.7,50.8,110.2,138.7,207.3,151.2,331.6,9.1,90.6-27.3,212.8,46,283.9,72.3,70.1,201.7,56.4,292.7,81.5,19.8,5.5,78.1,30.4,48.6,57.1-10.9,9.9-46.5,0-59.1-2.6-42.5-8.2-85.2-24.8-128.5-30.8-53.4-7.5-128.1-17.9-156.7,32.7-34.5,61.1,28.9,84,84.8,94.4,58.8,10.9,121.7,7.7,182.1-1.6,41.1-6.4,77.1,1.1,117.2-1.9"/>
</svg>