<?xml version="1.0" encoding="UTF-8"?>
<svg id="Capa_1" data-name="Capa 1" xmlns="http://www.w3.org/2000/svg" viewBox="0 0 286.99 45.53">
  <defs>
    <style>
      .cls-1 {
        fill: #fff;
      }

      .cls-2 {
        fill: #222221;
      }
    </style>
  </defs>
  <g>
    <g>
      <path class="cls-1" d="M25.9,21.08v2.95c.08,0,.39.17.81,1.01.5.98.93,2.41,1.36,3.79.46,1.5.93,3.05,1.55,4.26.89,1.74,2.04,2.63,3.43,2.63s2.54-.89,3.43-2.63c.62-1.21,1.09-2.76,1.55-4.26.42-1.38.86-2.8,1.36-3.79v-.03c.18-.32.5-.49.81-.49s.63.16.8.49v.03c.51.98.95,2.41,1.37,3.79.46,1.5.93,3.05,1.55,4.26.89,1.74,2.04,2.63,3.43,2.63s2.54-.89,3.43-2.63c.62-1.21,1.09-2.76,1.55-4.26.42-1.38.86-2.8,1.36-3.79v-.03c.18-.32.5-.49.81-.49s.63.16.8.49v.03c.51.98.95,2.41,1.37,3.79.46,1.5.93,3.05,1.55,4.26.89,1.74,2.04,2.63,3.43,2.63s2.54-.89,3.43-2.63c.62-1.21,1.09-2.76,1.55-4.26.42-1.38.86-2.8,1.36-3.79v-.02c.18-.32.5-.49.81-.49s.63.16.8.49v.02c.51.98.95,2.41,1.37,3.79.46,1.5.93,3.05,1.55,4.26.89,1.74,2.04,2.63,3.43,2.63v-2.94c-.08,0-.39-.19-.81-1.03-.5-.98-.94-2.41-1.36-3.79-.46-1.5-.93-3.05-1.55-4.26-.89-1.75-2.04-2.63-3.43-2.63s-2.54.89-3.43,2.63c-.62,1.21-1.09,2.76-1.55,4.26-.42,1.38-.86,2.8-1.36,3.79v.03c-.18.32-.5.49-.81.49s-.63-.16-.8-.49v-.03c-.51-.98-.95-2.41-1.37-3.79-.46-1.5-.93-3.05-1.55-4.26-.89-1.75-2.04-2.63-3.43-2.63s-2.54.89-3.43,2.63c-.62,1.21-1.09,2.76-1.55,4.26-.42,1.38-.86,2.8-1.36,3.79v.03c-.18.32-.5.49-.81.49s-.63-.16-.8-.49v-.03c-.51-.98-.95-2.41-1.37-3.79-.46-1.5-.93-3.05-1.55-4.26-.89-1.75-2.04-2.63-3.43-2.63s-2.54.89-3.43,2.63c-.62,1.21-1.09,2.76-1.55,4.26-.42,1.38-.86,2.8-1.36,3.79v.03c-.18.32-.5.49-.81.49s-.63-.16-.8-.49v-.03c-.51-.98-.95-2.41-1.37-3.79-.46-1.5-.93-3.05-1.55-4.26-.89-1.75-2.04-2.63-3.43-2.63"/>
      <polygon class="cls-1" points="10.79 21.07 0 21.07 0 35.66 3.23 35.66 3.23 29.76 10.19 29.76 10.19 26.83 3.23 26.83 3.23 24 10.79 24 10.79 21.07"/>
      <polygon class="cls-1" points="23.81 21.07 12.87 21.07 12.87 35.66 24.01 35.66 24.01 32.73 16.11 32.73 16.11 29.58 23.2 29.58 23.2 26.65 16.11 26.65 16.11 24 23.81 24 23.81 21.07"/>
      <path class="cls-1" d="M40.08,15.19c-1.24,0-2.24,1-2.24,2.24s1,2.24,2.24,2.24,2.24-1,2.24-2.24-1-2.24-2.24-2.24"/>
    </g>
    <g id="V8vMcL">
      <g>
        <path class="cls-1" d="M107.82,41.31c-.61-.07-1.22-.13-1.82-.21-1.84-.27-3.6-.8-5.23-1.71-1.82-1.01-2.69-2.63-2.71-4.69-.02-2.11,0-4.21,0-6.32,0-1.09,0-2.17.02-3.26,0-.22-.05-.31-.27-.37-2.22-.62-4.41-.57-6.54.37-.47.21-.88.56-1.34.86-.16-.39-.4-.85-.53-1.34-.05-.17.11-.46.26-.6.53-.53,1.22-.8,1.92-1.02,2.05-.64,4.13-.68,6.22-.19.08.02.16.03.27.04,0-1.2,0-2.38,0-3.56,0-1.18,0-2.36,0-3.59h5.31s0-.04,0-.06c-.43-.12-.86-.23-1.29-.35-.29-.08-.43-.31-.28-.54.23-.37.05-.47-.24-.58-.04-.02-.08-.05-.14-.08.07-.11.14-.22.23-.37-.11-.04-.19-.1-.28-.11-.22-.02-.34-.12-.37-.35-.01-.07-.11-.15-.18-.2-.22-.15-.47-.27-.68-.44-.24-.2-.39-.5-.75-.55-.1-.01-.22-.17-.24-.28-.13-.67-.53-.94-1.22-.88.01-.17.03-.3.04-.44-.03.01-.07.02-.1.03-.07-.17-.13-.34-.2-.51-.02-.05-.03-.12-.07-.13-.36-.16-.28-.38-.1-.63-.22-.05-.41-.16-.33-.43.08-.26.28-.28.56-.23-.04-.04-.1-.11-.13-.1-.23.06-.45.03-.45-.23,0-.15.16-.3.26-.47-.02-.09-.13-.29-.08-.41.16-.36.43-.08.68-.05-.15-.19-.52-.25-.34-.57.06-.12.25-.17.41-.26,0-.37.09-.46.52-.42.04-.43.18-.52.59-.36.12-.45.23-.51.52-.38.24-.12.42-.27.59-.26.09,0,.17.28.28.49-.02,0,.07-.01.05,0,.04-.24.02-.48.12-.59.08-.08.33,0,.56.02.1-.02.3-.13.44-.09.23.07.19.28.12.48,0,.01.08.06.06.05.07-.18.11-.37.22-.51.04-.05.32,0,.36.07.07.14.04.32.06.5h.2c-.21-.44-.12-.59.37-.63.1-.43.21-.49.51-.37.17-.15.31-.38.43-.37.15.01.27.23.43.38-.01.03.05-.05.03-.07-.14-.18-.15-.38.04-.49.13-.07.32,0,.55.01.23-.3.35-.31.56-.08.26-.02.5-.11.61-.03.11.08.09.34.12.52-.03.01-.07.03-.1.04.07.01.15.03.22.04-.03-.02-.05-.05-.08-.07.09-.16.14-.4.28-.46.27-.12.38.11.44.35.1-.07.18-.12.27-.18-.32-.75-.24-1.02.35-1.54.1-.09.11-.3.17-.49-.22-.03-.36-.05-.52-.08v-.63c.14-.01.27-.03.45-.05,0-.15.02-.31.03-.47.21,0,.43,0,.64,0,.02.15.04.3.07.47.14.02.27.03.43.05v.63c-.14.02-.27.04-.42.06-.07.26-.06.44.21.62.44.3.49.79.2,1.41.08.06.16.12.17.13.2-.12.37-.31.52-.29.27.03.29.27.18.52.09,0,.17-.01.16-.01.05-.23.04-.46.14-.6.05-.07.31.01.49.03.16-.01.39-.1.51-.02.1.06.08.32.12.53-.01,0,.09-.04.09-.05-.06-.25.05-.43.28-.41.15.01.28.19.42.3.08-.02.26-.11.39-.07.11.04.17.24.26.37.36-.14.47-.07.56.26.21.14.4.21.47.34.05.1-.07.28-.11.41.05,0,.16-.02.18-.02.06-.21.05-.44.17-.54.08-.08.32,0,.53.02.12-.02.31-.1.46-.05.07.02.06.29.1.44.01.05.06.08.06.08.09-.19.14-.38.25-.51.04-.05.31,0,.33.06.06.16.05.35.06.57,0,0,.08.02.17.05-.03-.4,0-.77.51-.45.08.05.01.35.01.53-.03,0-.07.02-.1.03.06.02.13.03.09.03.15-.18.24-.35.38-.44.05-.04.3.08.3.14.02.17-.05.34-.09.56-.02,0,.04.02.1.05-.01-.03-.03-.07-.04-.1.15-.11.29-.28.44-.3.1,0,.23.21.42.4.33,0,.41.09.36.52.23,0,.51.01.46.33-.03.16-.23.3-.34.46.22-.09.46-.32.64-.01.07.12-.02.32-.03.46.07.16.22.35.2.51-.01.09-.31.16-.5.24-.01-.01.04.06.06.05.25-.1.43,0,.44.23,0,.14-.16.3-.27.48.13.17.19.39-.16.54-.04.02-.05.08-.07.13-.06.17-.11.34-.25.49.02.13.04.25.07.42-.14,0-.25,0-.36.02-.44.04-.73.27-.82.7-.06.29-.21.46-.49.54-.11.03-.21.13-.31.2-.34.28-.68.56-1.1.9.08.35-.36.31-.67.44.08.14.14.25.22.38-.07.04-.13.09-.2.12-.26.1-.36.22-.19.5.16.26.06.48-.25.57-.44.13-.88.24-1.32.41h5.4v7.14c.68-.1,1.31-.22,1.95-.28,1.89-.18,3.73.03,5.46.84.37.17.7.43,1.02.69.25.2.29.47.15.77-.18.41-.35.83-.52,1.24-.03-.02-.04-.04-.06-.05-.58-.42-.44-1.02-.38-1.59.01-.12.06-.25.02-.35-.02-.07-.19-.18-.22-.16-.4.25-.79.52-1.17.79-.02.01,0,.07,0,.1v.02c-.07-.02-.18-.03-.19-.06-.08-.25-.13-.5-.2-.78.04-.02.13-.04.18-.09.08-.09.2-.21.19-.3,0-.1-.12-.25-.21-.29-.25-.1-.51-.15-.8-.22-.12.48-.22.92-.34,1.41-.31-.06-.6-.12-.89-.17.11,0,.22,0,.33,0,.04-.43.08-.81.12-1.2.15,0,.27.01.41.02-.16-.24-.98-.32-1.23-.13.15.03.28.06.38.08v1.24c-1.21-.05-2.4.05-3.58.34-.32.08-.41.22-.41.55.02,3.13.04,6.26.03,9.39,0,2.31-1.05,3.99-3.15,4.99-.46.22-.92.42-1.4.6-1.57.59-3.19.95-4.86,1.03-.12,0-.23.04-.35.06h-1.06ZM108.07,4.96c-.07.42-.15.84-.22,1.26.04.01.07.02.11.03.07-.06.13-.11.2-.17l-.12-.02c0-.16-.06-.41.01-.46.14-.1.36-.08.58-.11-.02-.13-.05-.32-.09-.52-.15-.18-.31-.21-.47-.02ZM102.23,15.16c.41.1.82.2,1.23.28.83.17,1.67.33,2.42.24-.97-.18-2.04-.38-3.12-.56-.17-.03-.36.02-.54.04,0-.17.07-.27.26-.32,1.5-.38,3.03-.61,4.57-.63,1.23-.02,2.46-.03,3.68.08,1.15.11,2.3.37,3.44.58.1.02.17.14.3.25.04-.06.16-.16.14-.22-.03-.09-.15-.18-.25-.2-.94-.2-1.88-.43-2.84-.56-1.59-.22-3.2-.25-4.81-.15-1.51.09-3,.28-4.46.71-.11.03-.19.14-.29.21.08.09.17.17.25.26ZM108.53,16.01v7.58c2.22.41,3.05,1.93,3.29,3.94h6.49v-11.51h-9.78ZM100.37,24.49c.26-.01.51-.03.76-.04v-2.89c-.12-.03-.23-.06-.31-.09v-1.5c.21-.01.39-.02.61-.04-.1-.3.2-.67-.27-.82-.02,0-.02-.06-.02-.1,0-.23,0-.46,0-.77.21.08.34.13.49.19.14-.2.37-.2.52-.03.16-.05.3-.09.51-.15-.02.34.06.77-.06.84-.44.25-.14.56-.24.86.18-.01.29-.02.4-.03v-1.86c-.12-.03-.21-.05-.31-.07v-.94c.19.06.35.1.54.16.19-.22.42-.2.62-.01.17-.05.32-.09.5-.15v.95c-.12.03-.23.06-.32.08v1.88c.13,0,.23-.01.32-.02q.07-.44-.19-.83s-.02-.07-.02-.1c0-.23,0-.46,0-.78.21.09.34.15.48.21.15-.21.38-.21.53-.02.16-.05.31-.1.45-.14.02.03.04.05.06.08-.15.27.23.67-.26.86-.02,0-.03.09-.03.13,0,.2,0,.39,0,.6.26.01.46.03.67.04v1.51c-.14.03-.27.05-.37.07v2.94c.32-.03.68.04.88-.11.57-.4,1.16-.69,1.85-.78v-7.6h-9.76v11.53c1.11,0,2.18,0,3.26,0s2.17,0,3.25,0c.08-.49.16-.93.23-1.37h-4.77v-1.68ZM109.46,35.29c0-.25-.01-.49,0-.73,0-.09.05-.21.12-.25.28-.2.31-.45.04-.69-.28-.26-.33-.6-.05-.83.2-.17.23-.35.24-.58,0-.25,0-.47-.32-.52-.04,0-.06-.11-.08-.15-.25.05-.47.07-.68.14-.1.03-.24.16-.24.25,0,1.13-.03,2.27.05,3.4.18,2.46,2.46,4.47,4.93,4.4,2.76-.08,4.86-2.24,4.87-5.01,0-2.15,0-4.31,0-6.46v-.42h-6.53c-.04.27-.07.54-.11.82.3,0,.61-.05.63.35q.38.02.67-.22c.22-.19.55-.17.77.03.35.33.59.29.81-.15.24,0,.49,0,.73,0,.08,0,.19.05.23.11.2.3.5.34.78.07.26-.25.63-.26.85-.02.24.26.21.58-.08.84-.28.26-.23.78.08.99.05.04.09.13.1.2.01.27,0,.54,0,.8-.4.16-.5.74-.21,1.02.33.31.34.64.04.91-.28.26-.27.48.05.7.06.04.1.13.11.2.01.21.01.43,0,.64,0,.07-.07.17-.14.21-.27.16-.47.64-.36.94.16.45-.05.72-.5.84-.24.06-.6.33-.59.5.02.53-.39.55-.68.71-.07.04-.2.01-.28-.04-.25-.15-.63-.09-.82.16-.31.4-.66.37-1,.01-.16-.17-.59-.34-.69-.25-.44.36-.69-.04-1-.18-.05-.02-.1-.12-.11-.19-.02-.39-.29-.69-.67-.74-.38-.05-.6-.39-.47-.74.15-.44-.04-.89-.48-1.08ZM105.24,27.34c0,1.24.25,2.09.81,2.83,1.08,1.46,2.97,1.64,4.26.42,1.5-1.42,1.59-4.15.19-5.66-1.13-1.23-2.73-1.37-3.95-.32-.92.8-1.3,1.85-1.31,2.74ZM103.84,39.69v-.46c0-3.57,0-7.14,0-10.71,0-.69,0-.67-.69-.69-.34-.01-.43.09-.43.43.01,3.68,0,7.35,0,11.03v.41h1.12ZM101.56,27.83c-.24,0-.46.02-.68,0-.31-.03-.41.07-.4.39.02,1.25,0,2.51,0,3.76,0,2.18,0,4.35,0,6.53,0,.14.04.34.13.4.28.2.6.34.94.53v-11.6ZM100.67,10.74c.28.06.51.11.81.17-.2.24-.34.41-.48.59.04.08.09.17.16.29-.3.05-.57.1-.93.16.28.19.47.37.69.45.16.06.41.07.54-.02.19-.13.17-.34.03-.56-.08-.13-.04-.35,0-.52,0-.04.23-.11.27-.08.13.12.23.27.31.43.05.09.02.24.09.32.23.28.74.3,1.06.05.33-.25.42-.67.23-.98-.32.16-.65.31-.99.48-.02-.15-.03-.26-.04-.31-.26-.11-.47-.21-.75-.33.24-.22.41-.39.59-.55-.01-.08-.02-.18-.04-.3.28.01.52.03.8.04-.13-.27-.25-.51-.38-.78.16-.03.3-.06.41-.08.03-.1.06-.18.08-.26.02-.08.05-.17.05-.18-.16-.13-.33-.2-.38-.33-.15-.38-.33-.56-.73-.55-.29,0-.59.01-.88.07-.82.15-1.57.46-2.27.96.11.13.19.24.29.35-.16.28-.31.55-.51.91.63-.09,1.02.1,1.06.74.3-.17.55-.32.82-.47.04.11.08.21.11.3ZM107.29,6.92c-.64-.08-2.36.35-3.51.89.12.1.24.2.31.26-.04.37-.56.59-.21,1,.14-.02.26-.04.41-.06-.03.3-.06.55-.09.83.27-.1.51-.19.65-.24.16.14.26.25.37.33.15.09.31.14.54.24-.23.21-.41.37-.6.55.01.07.03.16.06.31-.38-.04-.72-.07-1.06-.1-.03.51.37.93.88.92.56-.01.87-.43.73-.94-.04-.15.03-.33.09-.48.02-.05.25-.08.28-.04.1.13.17.29.22.45.03.12-.04.27,0,.38.12.35.7.55,1.1.39.44-.18.66-.65.51-1-.41.12-.82.24-1.26.36.03-.18.05-.28.06-.35-.25-.16-.49-.31-.79-.5.31-.2.54-.34.79-.51-.01-.08-.03-.17-.05-.31.32.06.61.11.87.16.14-.36-.4-.65-.01-1q-.42-.46-.31-1.11c.02-.14.03-.28.04-.41ZM108.64,10.59c-.07.59.28,1.04.82,1.06.57.02.82-.25.81-.81,0-.14.1-.31.2-.43.04-.05.25-.05.28,0,.08.13.12.29.14.45.01.07-.06.15-.08.23-.02.06-.03.14-.02.19.1.36.61.64.99.56.48-.11.77-.49.69-.9-.35.03-.7.06-1.07.1.03-.15.06-.25.07-.3-.2-.19-.37-.35-.56-.53.31-.19.58-.36.85-.53-.01-.03-.03-.07-.04-.1.23.09.46.18.71.28-.03-.28-.06-.55-.1-.84.16.02.29.04.45.07.18-.43-.26-.65-.33-1.05.09-.05.21-.12.39-.22-1.28-.3-2.35-.93-3.6-.87.05.56.49,1.17-.34,1.54.17.05.25.07.33.1-.1.31-.18.59-.28.9.33-.07.61-.12.92-.18,0,.15-.02.25-.02.31.25.16.49.32.79.51-.31.19-.54.34-.78.49v.36c-.42-.13-.81-.24-1.22-.36ZM117.61,8.97c-.72-.64-2.38-1.2-3.27-1.07-.2.03-.4.21-.54.36-.13.13-.19.34-.28.51-.03-.01-.06-.02-.08-.03.05.16.1.31.14.46.14.03.27.06.41.1-.13.27-.25.51-.37.76h.81c-.2.48.44.47.44.87-.2.09-.42.18-.64.28,0,.08-.01.17-.02.32-.36-.17-.69-.33-1.07-.51-.02.14-.05.27-.04.41.03.42.41.77.83.78.38.01.57-.18.67-.62.05-.22.17-.42.43-.36.3.07.21.32.18.52,0,.05-.08.1-.08.15-.01.15-.06.34.01.43.08.1.31.18.42.14.28-.11.53-.3.79-.46-.01-.03-.03-.05-.04-.08-.27-.05-.54-.1-.82-.15.08-.14.12-.23.15-.28-.16-.2-.29-.37-.47-.6.32-.07.56-.11.81-.17.03-.09.06-.19.1-.3.29.16.55.31.85.48,0-.66.42-.78.96-.77-.19-.33-.34-.61-.5-.88.09-.1.17-.2.25-.3ZM105,39.44c.3-.15.54-.28.78-.39.25-.11.32-.29.32-.56-.01-2.49,0-4.99,0-7.48,0-.13.01-.29-.06-.38-.49-.58-.81-1.25-1.04-1.97v10.77ZM108.27,40.18c.12-.31-.05-.36-.25-.43-.52-.16-.76-.48-.77-.93,0-.4.16-.7.51-.9-.17-.17-.17-.17-.32.01-.74.97-1.7,1.63-2.89,1.92-.46.11-.93.15-1.48.23,3.55,1.19,7.03,1.21,10.51-.02-1.61-.04-2.98-.61-4.13-1.85.31.92.05,1.36-.88,1.65.02.1.03.2.05.3.97-.61,1.58-.71,2.31-.35-.46.38-.95.65-1.57.56-.15-.02-.31-.03-.46-.05-.17-.01-.28.01-.33.22-.03.12-.21.19-.32.29-.02-.03-.05-.05-.07-.08.02-.05.04-.11.05-.16.01-.06.01-.13.02-.24-.94.23-1.66-.08-2.25-.77.86-.17,1.61.05,2.28.6ZM103.1,14.96c3.48.78,6.95.78,10.42,0-3.48-.75-6.95-.75-10.42,0ZM113.94,13.77c.33-.06.62-.11,1-.18-2.6-1.12-11.59-1.1-13.2.02.32.06.6.11.88.16-.09.3-.6.29-.46.72,4.12-1,8.21-.99,12.3,0q0-.22-.52-.71ZM99.28,37.64v-9.78h-.87c-.01.06-.03.11-.03.15,0,2.4-.02,4.8.01,7.2.01.87.34,1.66.89,2.44ZM109.23,6.55c1.07.31,2.09.61,3.1.91.11.03.24.04.34.08.24.1.34-.02.42-.23.28-.67.1-1.37-.5-1.83-.83-.64-2.33-.73-3.22-.18-.08.05-.18.17-.18.26,0,.36.03.73.04.98ZM107.32,6.69c.02-.41.05-.76.04-1.11,0-.09-.09-.21-.17-.27-.9-.56-2.46-.45-3.28.22-.5.41-.66.94-.52,1.55.12.5.18.55.68.39,1.06-.33,2.08-.78,3.25-.78ZM114.09,7.69c1.36-.08,2.54.37,3.63,1.06.33-.65.25-1.36-.26-1.82-.98-.88-2.16-.99-3.46-.83.4.27.41.32.21.75q.19.28-.12.84ZM98.8,8.65c.61-.26,1.18-.57,1.79-.74.6-.17,1.23-.21,1.93-.31-.35-.26-.43-.5-.13-.77-.28-.3-.19-.53.13-.75-.36-.04-.7-.06-1.04-.04-.81.05-1.59.24-2.24.77-.59.49-.76,1.25-.43,1.84ZM100,11.98s-.04.05-.06.07c.27.49.68.83,1.25.9.41.06.58-.28.75-.61.38.21.78.34,1.16.15.34-.17.62-.45.94-.7.7.63,1.23.62,2.13-.12.3.31.68.44,1.11.4.46-.04.77-.32,1.03-.66.78.83,1.38.89,2.19.26.84.75,1.34.76,2.21.05.17.38.42.72.85.78.38.05.77-.02,1.2-.03.11.23.29.54.71.49.5-.05,1.08-.52,1.2-1-.24.19-.44.36-.66.51-.62.41-.95.29-1.19-.39,0-.02-.03-.03-.05-.05-.51.36-.89.44-1.27.25-.45-.23-.63-.61-.59-1.11,0-.05-.07-.11-.15-.22-.15.6-.42,1-1.02,1.06-.6.05-.97-.25-1.2-.8-.31.48-.7.74-1.24.62-.52-.12-.8-.47-.86-1,0-.06-.08-.12-.12-.18-.04.07-.11.14-.12.21-.05.51-.33.82-.81.96-.41.12-.85-.04-1.13-.4-.05-.06-.1-.13-.16-.2-.29.57-.56.78-1.04.79-.68.02-1-.41-1.21-1.01-.12.3-.16.62-.29.89-.15.32-.47.5-.81.46-.31-.03-.61-.17-.92-.27-.29.71-.63.8-1.32.3-.18-.13-.34-.28-.51-.41ZM107.28,31.52v6.15c.57-.84.88-1.68.9-2.6.02-1.01,0-2.03,0-3.05,0-.11-.01-.22-.02-.32-.32-.07-.6-.12-.89-.18ZM112.37,37.79c.4.17.79.08.77-.21-.03-.4.33-.93-.27-1.21-.02,0-.03-.04-.03-.06,0-.26-.03-.52,0-.78.01-.08.17-.15.26-.22.03-.03.07-.08.07-.12,0-.44,0-.88,0-1.36-.58.33-.78.73-.6,1.1-.05.06-.09.13-.15.18-.23.2-.31.67-.79.44-.02-.01-.09.06-.13.1-.13.14-.26.28-.37.43-.25.33-.16.87.14,1.07.16-.03.31-.12.41-.08.26.11.49.26.75.41-.02.1-.04.2-.06.3ZM115.45,37.21c.09-.11.24-.21.27-.34.1-.38-.22-1.07-.57-1.27-.05-.03-.13,0-.2-.02-.13-.03-.28-.05-.38-.13-.17-.15-.29-.34-.43-.51.17-.38-.03-.79-.59-1.09,0,.38,0,.73,0,1.08,0,.2-.05.41.25.45.04,0,.09.13.1.2.01.27,0,.54,0,.8q-.35.13-.35.45c0,.17,0,.33,0,.5,0,.51.31.7.77.47-.02-.1-.03-.2-.05-.3q.86-.45,1.15-.27ZM115.37,13.37c-1.16-1.4-12.73-1.41-14.14,0,4.71-1.15,9.42-1.16,14.14,0ZM115.67,31.33c-.37.17-.36.85-.98.62-.02,0-.06.03-.08.05-.18.21-.38.42-.54.65-.04.06.05.21.08.32.09-.04.2-.06.28-.11.07-.05.1-.2.16-.2.27-.02.54-.03.81,0,.07,0,.12.18.19.25.04.04.12.07.18.08.25.04.43-.05.6-.25.31-.34.24-.9-.19-1.08.14-.35-.28-.87.34-1.09.02,0,.02-.06.02-.1,0-.22,0-.44,0-.65-.33.27-.58.58-.84.87-.19.2-.32.38-.04.65ZM114.76,30.6c.17.06.28.1.4.14.35-.41.69-.83,1.09-1.3-.32.05-.63-.17-.72.27,0,.04-.1.09-.13.08-.32-.08-.77.25-.97-.28-.01-.03-.09-.05-.15-.06-.26-.06-.43.07-.59.26-.17.2-.15.39.08.52.07.04.17.13.16.18-.09.32.27.78-.29.95-.02,0-.04.04-.04.06,0,.35,0,.7,0,1.06.04,0,.08.02.11.03.23-.27.46-.55.67-.8-.34-.58.31-.69.39-1.08ZM110.23,35.43c.04.14.06.3.14.41.05.08.26.16.29.13.21-.18.41-.39.57-.62.05-.06-.04-.22-.05-.33,0-.06.01-.14.05-.19.17-.21.35-.41.53-.62.12.04.23.08.35.13.19-.22.38-.43.54-.66.05-.07,0-.2,0-.3-.11.02-.31.03-.32.08-.05.26-.23.28-.42.25-.28-.04-.65.17-.79-.3-.02-.06-.4-.1-.52-.02-.19.13-.49.27-.41.59.04.15.17.27.31.47-.14.24.43.74-.26.99ZM114.97,34.18c.13.39.79.51.46,1.09-.01.02.04.08.07.12.14.16.27.33.41.48.2.21.4.17.49-.11.03-.11.05-.22.06-.27-.13-.14-.33-.27-.31-.33.11-.32-.2-.79.34-.95.04-.01.05-.14.05-.22.04-.33-.23-.5-.45-.59-.17-.07-.51-.16-.58.23,0,.04-.13.09-.2.09-.26.01-.52,0-.78,0-.03-.06-.04-.13-.08-.17-.06-.07-.13-.15-.21-.18-.05-.01-.17.06-.18.11-.01.09.02.19.06.27.07.12.18.22.26.33.14.21.31.32.57.09ZM110.48,31.71c-.54.07-.34.51-.29.77.04.2.31.38.53.5.1.06.35,0,.43-.1.26-.32.93-.34,1.15,0,.05.07.21.07.32.1,0-.1.06-.22.02-.29-.1-.16-.25-.28-.35-.44-.16-.23-.34-.33-.62-.13-.11-.4-.77-.51-.44-1.07.01-.02-.03-.09-.06-.12-.11-.13-.23-.26-.35-.39-.48.29-.2.76-.32,1.18ZM113.03,32.51l.12-.03c0-.33.02-.67-.01-1,0-.09-.2-.15-.28-.24-.04-.04-.05-.13-.05-.19,0-.19-.01-.38,0-.57,0-.08.05-.21.11-.22.22-.06.32-.22.22-.39-.1-.17-.29-.32-.47-.4-.09-.04-.35.03-.37.11-.09.24-.25.24-.44.23-.15,0-.31-.01-.46,0-.2.02-.4.33-.28.45.19.19.25.62.69.42.03-.02.1,0,.13.03.18.2.37.4.53.62.04.06-.07.2-.09.31-.01.05,0,.12.04.16.2.24.41.48.62.71ZM108.39,37.77c-.14.1-.28.24-.45.32-.42.22-.57.49-.48.89.08.35.39.57.81.59-.34-.76-.29-1.22.19-1.57.43.5.41,1.02.09,1.57.39.01.73-.21.82-.53.1-.35-.05-.7-.38-.91-.19-.12-.38-.24-.6-.37ZM107.84,8.42l.07-.04c-.06-.09-.11-.2-.2-.27-.23-.17-.23-.36-.17-.61.08-.31.11-.63.14-.94.05-.54.08-1.08.14-1.62.03-.27.26-.41.48-.36.17.04.35.22.43.38.09.17.06.39.08.59.05.58.05,1.16.15,1.73.06.37.14.7-.22.96-.03.02-.03.07-.06.15.54-.34.58-.42.46-.94-.02-.09-.04-.18-.05-.28-.06-.7-.09-1.41-.18-2.11-.06-.5-.26-.63-.77-.6-.32.02-.51.24-.55.66-.07.76-.09,1.53-.21,2.29-.06.38-.03.65.29.88.06.04.1.09.16.14ZM108.47,1.93c.19-.1.33-.17.47-.24-.15-.08-.29-.15-.46-.24q-.05-.38-.3-.36c-.02.14-.04.29-.06.43-.16.01-.29.02-.43.03-.1.46.34.17.44.35v1.48c-.22.02-.42.04-.63.05q.07.32,1.27.28c.17,0,.35,0,.29-.28-.19-.01-.38-.03-.59-.05v-1.46ZM107.37,5.16s.04-.06.06-.08c-.07-.06-.13-.13-.21-.17-1.13-.47-2.26-.47-3.31.2-1.06.68-1.23,1.93-.41,2.89.13.15.16.27.05.43-.03.05-.02.12-.03.18.02.01.05.02.07.03.1-.16.2-.32.29-.48-.16-.18-.31-.31-.42-.48-.67-1-.22-2.22,1.02-2.7.99-.38,1.96-.3,2.9.18ZM112.98,8.69c.05-.02.1-.04.15-.06-.25-.31-.16-.52.06-.77.53-.62.51-1.57.03-2.23-.88-1.19-2.89-1.28-4.01-.64-.04.02-.04.09-.09.2.16-.07.27-.11.37-.15,1.16-.45,2.27-.41,3.28.35.54.41.78,1,.59,1.66-.11.4-.37.76-.56,1.14-.02.11.05.24.13.37.02.04.03.09.05.13ZM117.81,9.32s.06-.1.1-.14c.64-.96.48-1.98-.42-2.69-.93-.73-2.01-.86-3.15-.79-.04,0-.08.07-.2.18.2-.01.3-.03.4-.03,1.06-.02,2.08.13,2.93.82.71.58.86,1.54.39,2.29-.1.16-.35.28-.14.54.12.16.21.34.32.51.03-.02.07-.04.1-.06-.1-.21-.21-.42-.32-.64ZM102.37,5.82c-.03-.07-.04-.1-.06-.11-.02-.01-.04-.02-.07-.02-1.03-.08-2.03.06-2.93.61-1.21.74-1.29,2.06-.66,2.9.05.07.02.23-.01.34-.05.15-.14.28-.21.42.04.02.07.04.11.06.14-.24.28-.47.41-.7-.95-1.14-.52-2.46.69-2.99.46-.2.96-.32,1.45-.42.4-.08.83-.05,1.27-.07ZM102.84,25.96h.91c0-.31.02-.6,0-.89-.02-.27-.21-.43-.48-.41-.25.01-.41.17-.42.44,0,.28,0,.56,0,.86ZM108.97,8.78s-.04-.04-.06-.05c-.09.07-.19.14-.24.18-.11-.27-.21-.54-.32-.81-.04,0-.09,0-.13.01-.09.27-.18.53-.27.8-.09-.06-.17-.12-.25-.18-.02.01-.04.02-.06.04.1.29.2.58.29.83h.77c.09-.25.18-.53.28-.82ZM110.28,10.16s0-.07,0-.11c-.23-.1-.46-.2-.7-.3,0-.06.01-.13.03-.32-.31.17-.6.26-.78.45-.08.08-.04.44.07.53.16.15.43.19.7.28,0-.15-.01-.23-.02-.27.25-.1.47-.18.69-.27ZM107.02,9.75c-.24.11-.47.21-.7.31,0,.04,0,.08.01.11.23.08.45.17.69.25,0,.06-.02.13-.04.28.31-.11.56-.19.8-.27v-.66c-.24-.08-.5-.17-.82-.28.03.14.05.2.06.26ZM107.68,37.69c.28-.05.52-.09.77-.14.14.02.31.05.52.08-.24-.55-.43-1-.63-1.46-.21.49-.43.97-.67,1.52ZM90.76,23.59c.18.47.34.88.51,1.31.13-.05.22-.09.34-.13-.06-.19-.12-.36-.18-.54.12-.07.27-.11.34-.21.09-.14.18-.34.15-.48-.03-.1-.28-.2-.41-.18-.24.03-.47.14-.74.23ZM100.36,10.86s-.03-.09-.05-.13c-.19.21-.4.4-.56.63-.02.02.2.29.34.33.21.06.45.02.72.02-.08-.15-.11-.22-.13-.25.17-.14.32-.26.5-.42-.33-.07-.58-.12-.83-.17ZM116.29,10.75s-.01.08-.02.12c-.26.05-.51.1-.86.17.24.18.4.3.56.41-.03.06-.07.13-.1.2.6.16.74.12,1.09-.36-.22-.18-.43-.35-.65-.53ZM93.51,22.88c.23.42.44.83.67,1.22.09.16.23.17.31-.02.17-.42.34-.84.5-1.26-.04-.02-.07-.04-.11-.06-.31.21-.22.68-.47.91-.36-.18-.18-.95-.91-.79ZM112.64,9.96q.79.14,1-.51c-.1.04-.18.07-.24.09-.05-.26-.09-.49-.14-.72-.04,0-.08,0-.12-.01-.12.22-.24.43-.39.71-.04-.1-.07-.18-.1-.27-.03.02-.07.05-.1.07.03.22.05.44.08.65ZM120.29,23.86c-.37-.16-.27-.93-.99-.74.28.41.52.79.79,1.16.03.04.27,0,.29-.06.15-.43.27-.86.4-1.29-.04-.01-.07-.03-.11-.04-.28.26-.21.68-.39.98ZM103.28,10.09c.25-.05.47-.08.7-.13.03-.22.06-.45.09-.67-.02,0-.05-.01-.07-.02-.06.07-.12.14-.17.18-.13-.23-.25-.44-.37-.66-.04,0-.08.02-.12.02-.04.25-.07.5-.11.75-.09-.04-.17-.08-.33-.16.16.29.27.49.37.68ZM95.43,23.9c-.11.14-.15.24.09.32.34.11.73.02.84-.24.14-.35-.17-.45-.37-.62-.09-.07-.14-.21-.2-.31.13,0,.26,0,.39,0,.04,0,.08.06.12.09.03-.02.05-.04.08-.06-.04-.07-.06-.17-.11-.19-.13-.04-.29-.09-.41-.05-.16.06-.35.18-.4.31-.04.11.11.3.2.43.05.07.18.08.23.15.07.08.09.19.14.28-.12.02-.24.08-.35.06-.09-.01-.16-.12-.25-.18ZM118.47,10.72c-.28-.52-.55-.53-1.02-.11-.03-.06-.07-.13-.12-.21-.26.23-.3.49-.22.78.05.19.21.27.33.09.24-.37.59-.52,1.04-.55ZM99.19,10.61c-.5-.43-.85-.4-.99.09.55.14.54.14.98.55.06.05.28.03.32-.03.14-.21,0-.63-.23-.8-.03.06-.05.13-.08.19ZM114.03,10.32c.01-.05.03-.1.04-.15-.21.07-.47.1-.61.24-.09.09-.08.39,0,.53.08.13.3.18.49.28v-.23c.22-.04.43-.08.71-.13-.26-.22-.45-.38-.64-.53ZM104.7,9.97s0-.07,0-.1q-.5.17-.44.87c.19.03.4.06.6.08l-.05-.1c.2-.16.39-.31.63-.5-.29-.09-.52-.17-.75-.24ZM102.65,10.99c0,.06.02.12.03.2.59-.21.72-.37.49-.76-.09-.16-.41-.18-.67-.28.02.17.03.25.04.28-.2.13-.37.24-.54.35,0,.03.01.06.02.09.2.04.4.08.63.12ZM112,9.8c-.02.05-.03.1-.05.15-.24.08-.48.17-.76.26.24.19.44.36.71.57.45,0,.5,0,.51-.51,0-.16-.27-.32-.41-.48ZM92.6,24.47c.32-.08.61-.15.9-.22-.01-.05-.02-.09-.03-.14-.16.03-.33.06-.51.09-.09-.38-.17-.75-.26-1.14-.12.01-.22.03-.37.04.09.46.18.89.28,1.37ZM121.6,22.87c-.15,0-.24.01-.35.02v1.35h.87s0-.07.01-.11c-.17-.02-.34-.05-.53-.07v-1.19ZM114.23,15.08c-1.21.2-2.42.4-3.54.59.71.12,2.39-.11,3.54-.59ZM101.79,23.05h.53c0-.21.03-.41-.01-.58-.03-.1-.17-.18-.26-.26-.09.09-.22.18-.24.29-.04.17-.01.35-.01.56ZM104.27,23.05h.5c0-.22.03-.42-.01-.61-.02-.09-.16-.21-.25-.21-.08,0-.21.13-.23.22-.04.19-.01.39-.01.6ZM98.38,9.72c.03-.21.1-.36.06-.49-.13-.44-.3-.87-.43-1.23-.19.32-.08,1.13.38,1.72ZM118.24,9.64c.39-.48.51-1.29.31-1.66-.11.34-.21.76-.39,1.14-.11.23-.07.36.08.51ZM113.77,33.27c0-.05,0-.11.01-.16-.13-.1-.27-.27-.4-.26-.12,0-.23.2-.35.31.12.12.22.3.36.34.1.03.25-.14.38-.22ZM113.39,10.52c-.23-.17-.36-.34-.48-.33-.12.01-.31.2-.31.32,0,.11.18.31.3.32.11.02.25-.15.49-.31ZM103.74,10.02c-.17.22-.35.35-.34.47,0,.13.19.33.31.34.11,0,.32-.18.34-.31.02-.12-.15-.27-.3-.5ZM108.3,10.59c.16-.23.33-.37.32-.49-.01-.12-.21-.31-.32-.31-.11,0-.3.19-.31.31-.01.12.16.25.32.48ZM108.86,3.95h-1.16c.4.42.83.41,1.16,0ZM108.69,7.33c-.19-.14-.31-.29-.41-.28-.1.01-.24.17-.27.28-.01.07.15.25.25.25.11,0,.22-.12.42-.25ZM116.96,31.04c-.06-.04-.12-.09-.18-.13-.06.08-.17.17-.18.26,0,.09.09.19.14.28.07-.14.15-.27.22-.41ZM116.5,35c.33.13.41,0,.39-.19,0-.09-.09-.17-.14-.25-.08.14-.15.27-.24.44ZM99.47,11.44c-.08.13-.16.23-.15.24.11.11.23.2.35.29,0,0,.12-.12.11-.13-.08-.12-.18-.24-.32-.4ZM110.15,35.03c-.01-.16-.03-.3-.04-.44-.04-.02-.08-.03-.12-.05-.05.09-.14.18-.16.28-.03.19.05.32.32.22ZM114.66,37.76c.11.09.19.2.24.19.12-.03.23-.1.32-.19.03-.03-.05-.16-.09-.26-.17.09-.28.16-.47.26ZM117.15,11.45c-.13.16-.23.26-.3.38-.01.02.09.1.13.15.11-.1.22-.19.32-.3.01-.02-.07-.12-.15-.24ZM114.83,34.67c-.34.17-.12.32,0,.43.05.05.19,0,.37,0-.17-.21-.26-.31-.37-.44ZM113.38,28.95c-.1.12-.23.2-.22.26.02.09.13.16.2.24.07-.07.19-.13.2-.21.01-.07-.09-.16-.18-.29ZM111.46,37.77c.16.08.29.15.43.22.05-.11.09-.18.13-.25q-.4-.25-.55.02ZM114.63,31.43c.11.05.23.15.27.12.1-.07.18-.18.23-.3.02-.04-.09-.13-.15-.21-.13.14-.23.25-.35.39ZM111.51,31.27c.12.14.22.25.33.37.33-.3-.03-.38-.1-.57-.09.08-.15.13-.23.2ZM117.01,29.25c-.11-.1-.18-.2-.26-.21-.07,0-.2.12-.2.17.02.09.1.2.18.23.05.02.15-.1.27-.19ZM113.66,38.2c-.12-.1-.21-.23-.26-.21-.09.03-.16.13-.23.21.07.07.13.18.21.19.06.01.15-.09.27-.18ZM114.82,29.45c.17-.08.31-.14.45-.21-.07-.05-.14-.13-.22-.14-.17-.03-.35-.03-.24.35ZM113.57,30.56c-.38-.11-.37.07-.35.24.01.08.09.14.15.22.06-.14.13-.29.2-.46ZM110.75,36.54c-.12-.09-.21-.19-.27-.18-.08.01-.14.12-.21.19.07.07.14.18.23.21.04.01.13-.11.25-.21ZM110.26,33.17c-.13-.1-.22-.21-.27-.2-.09.03-.15.14-.22.21.07.06.14.16.22.17.07,0,.14-.09.27-.19ZM113.56,36.08c-.06-.16-.12-.3-.17-.45-.06.08-.15.15-.17.23-.03.18,0,.34.34.22ZM111.88,34.68c-.09.12-.19.23-.3.36.08.06.14.12.21.17q.33-.35.08-.53ZM111.67,33.39c.13-.09.21-.15.29-.2-.08-.06-.15-.17-.23-.16-.1,0-.19.09-.29.14.07.07.13.13.23.23ZM114.84,33.37c.16-.07.3-.12.44-.18-.08-.06-.15-.15-.23-.17-.18-.04-.34,0-.21.35ZM107.97,12.03h.69c-.15-.13-.25-.22-.38-.32-.1.1-.19.2-.31.32ZM111.54,29.45c.17-.07.3-.12.43-.18-.05-.06-.1-.16-.16-.17-.18-.03-.34-.01-.28.35ZM116.73,33.47c.11-.14.21-.23.2-.29,0-.08-.12-.14-.18-.21-.07.07-.17.13-.19.2-.01.07.08.16.17.3ZM107.47,3.24c.22-.02.35-.03.47-.05v-.51c-.18.22-.3.35-.47.56ZM116.51,36.56c-.11-.09-.2-.22-.25-.2-.08.03-.17.13-.19.22,0,.05.12.18.18.18.07,0,.15-.1.26-.19ZM112.94,12.42c-.13-.15-.22-.26-.32-.38-.13.1-.23.17-.37.28.26.04.44.06.69.1ZM108.56,6.5c-.13-.09-.21-.19-.28-.18-.07,0-.18.12-.18.18,0,.07.11.18.18.19.07,0,.15-.1.28-.19Z"/>
        <path class="cls-1" d="M184.18,33.9c-.78.04-.85.07-1.04-.58-.26-.91-.78-1.21-1.68-1.06-.4.07-.9-.1-1.2.1-.28.18-.38.68-.5,1.06-.13.41-.35.59-.77.51-.07-.01-.14-.02-.21,0-.86.22-1.29-.27-1.65-.95-.22-.41-.53-.76-.82-1.13-.1-.12-.25-.23-.4-.29-.53-.22-.72-.09-.72.48,0,.62,0,1.23,0,1.87h-.75v-5.59c.68.03,1.36.02,2.02.11.63.09,1.08.6,1.18,1.18.11.71-.14,1.21-.8,1.62.61.88,1.22,1.76,1.88,2.7.24-.55.45-1.04.66-1.53.53-1.25,1.07-2.5,1.6-3.76.08-.19.14-.35.43-.35.28,0,.35.15.43.35.73,1.65,1.46,3.29,2.2,4.94.04.1.08.2.14.33ZM175.21,30.75c.32,0,.59.03.85,0,.48-.06.8-.37.75-.8-.03-.27-.16-.65-.36-.74-.34-.16-.76-.13-1.15-.17-.03,0-.09.1-.09.16,0,.52,0,1.03,0,1.56ZM181.41,29.51c-.29.71-.55,1.34-.83,2.02h1.72c-.3-.68-.58-1.31-.89-2.02Z"/>
        <path class="cls-1" d="M120.2,38.22q.76-.15.76-.93c0-.18,0-.35,0-.52.53-.2.53-.21.51-.74,0-.08.15-.25.24-.25,1.11-.02,2.22-.02,3.33,0,.08,0,.23.17.23.26-.03.51,0,.58.51.71,0,.29.03.58,0,.87-.05.37.12.51.46.54.09,0,.19.03.31.04v2.65c-.28-.07-.56-.1-.81-.21-.53-.23-1.05-.24-1.57,0-.52.24-1.05.24-1.58,0-.53-.24-1.04-.23-1.57,0-.24.1-.51.14-.8.22v-2.64ZM125.55,36.93h-4.37v1.02h4.37v-1.02ZM120.29,39.22c.23-.06.46-.09.67-.18.56-.25,1.11-.26,1.67,0,.48.22.98.23,1.47,0,.57-.27,1.13-.26,1.7,0,.2.09.43.12.66.17.04-.41.04-.4-.28-.47-.16-.03-.32-.09-.47-.16-.5-.24-1-.25-1.5-.02-.56.26-1.11.26-1.67,0-.5-.23-1-.22-1.5,0-.16.07-.33.16-.5.16-.34,0-.32.18-.25.48ZM126.47,39.86c-.26-.08-.51-.14-.74-.24-.53-.22-1.05-.24-1.58,0-.53.24-1.03.19-1.58.01-.39-.13-.83-.16-1.24-.12-.36.03-.71.22-1.09.36,0,.1.02.22.03.39.27-.08.49-.12.69-.2.56-.24,1.12-.25,1.67,0,.48.22.96.23,1.44,0,.58-.26,1.15-.27,1.74,0,.19.09.41.11.66.18v-.4ZM121.59,36.68h3.55c-.06-.17-.11-.31-.17-.46h-3.21c-.05.15-.11.29-.17.46Z"/>
        <path class="cls-1" d="M120.56,26.76c1.31,1.12,2.84,1.76,4.35,2.42.59.26,1.16.56,1.74.86.25.13.32.34.25.63-.09.34-.13.69-.2,1.07-.91-.78-2.05-1.02-3.06-1.51-.83-.41-1.63-.9-2.44-1.35-.68-.37-.92-.93-.72-1.67.04-.13.05-.27.09-.45Z"/>
        <path class="cls-1" d="M136.94,21.22v4.33h-.78v-5.52c.45-.11.78-.05,1.07.36.46.64.99,1.24,1.52,1.89.54-.67,1.07-1.28,1.54-1.93.28-.38.59-.42,1.02-.33v5.53h-.75v-4.2l-.09-.04c-.55.69-1.1,1.38-1.72,2.15-.6-.75-1.17-1.45-1.81-2.24Z"/>
        <path class="cls-1" d="M149.78,20.01v5.53c-.42.11-.72.01-1.01-.33-1.02-1.22-2.08-2.41-3.13-3.62-.07-.08-.12-.17-.19-.26-.03.02-.06.03-.09.05v4.17h-.73v-5.52c.4-.11.67,0,.94.31,1.03,1.23,2.1,2.43,3.15,3.65.08.09.12.21.18.31.05-.03.1-.06.15-.09v-4.2h.73Z"/>
        <path class="cls-1" d="M178.67,22.78c0,1.66-1.3,2.87-3.07,2.86-1.7,0-2.93-1.21-2.93-2.86,0-1.69,1.24-2.89,2.99-2.88,1.74,0,3.01,1.21,3.01,2.88ZM175.64,24.91c1.27,0,2.23-.92,2.23-2.15,0-1.18-.96-2.11-2.18-2.11-1.29,0-2.23.9-2.22,2.14,0,1.2.94,2.11,2.17,2.11Z"/>
        <path class="cls-1" d="M136.19,33.92v-5.66c1.09.08,2.17.06,3.21.25,1.19.23,1.98,1.5,1.9,2.76-.08,1.28-1.03,2.36-2.29,2.57-.3.05-.6.07-.9.07-.63.01-1.26,0-1.92,0ZM136.96,33.17c.62,0,1.2.05,1.77-.01.95-.11,1.59-.79,1.74-1.72.14-.93-.28-1.77-1.08-2.16-.78-.38-1.6-.2-2.42-.24v4.13Z"/>
        <path class="cls-1" d="M124.7,15.08c.1.05.2.1.3.15-.07.25-.13.47-.21.75h.9v1.32c-.21.16-.4.29-.57.44-.04.04-.05.22-.01.24.32.21.3.4.03.64-.06.05-.02.2-.02.31,0,1.19,0,2.39,0,3.58,0,.12-.02.23-.03.35-.04,0-.09,0-.13,0v-4.08c-.18,0-.29-.01-.44-.02v3.88h-.07v-3.83c-.29-.03-.3-.03-.3.22,0,1.06,0,2.13,0,3.19,0,.11,0,.22,0,.33-.02,0-.04,0-.07,0v-3.77h-2.27v3.58s-.08,0-.12.01c-.02-.11-.05-.23-.05-.34,0-1.04,0-2.08,0-3.12,0-.14-.12-.28-.15-.43-.03-.11-.04-.24,0-.34.04-.12.21-.29.18-.32-.14-.15-.31-.27-.48-.4-.02-.02-.07-.01-.13-.02v-1.4h.91c-.11-.33-.2-.59-.29-.86.19-.02.38-.04.56-.06,0,.02,0,.05,0,.07.28.13.56.26.84.39.04-.12.06-.24.08-.24.15-.01.42-.04.43.01.12.35.44.09.54.21.06-.08.09-.13.14-.17.07-.07.15-.13.22-.2,0-.03.01-.06.02-.08.06,0,.12.02.19.03ZM121.23,17.2h4.25v-1.01h-4.25v1.01ZM124.81,18.01s.06-.06.09-.08c-.08-.08-.15-.22-.23-.22-.92-.02-1.84-.01-2.78-.01v.32h2.91ZM125.11,18.32s0-.05,0-.07h-3.48s0,.05,0,.07h3.48ZM124.7,15.86c-.49-.36-2.33-.34-2.7.02.17.04.31.07.45.1,0-.01,0-.03,0-.04-.06-.02-.12-.04-.26-.09.89-.2,1.69-.19,2.5.02ZM125.02,17.46s0-.03,0-.04h-3.29s0,.03,0,.04h3.29Z"/>
        <path class="cls-1" d="M166.7,25.56h-.75v-5.62c.73.06,1.47.05,2.18.19.58.11.94.56,1.01,1.17.08.72-.18,1.26-.8,1.56.61.88,1.22,1.75,1.83,2.64-.68.18-.85.13-1.2-.39-.22-.33-.4-.69-.65-1-.23-.3-.49-.61-.79-.82-.19-.13-.49-.11-.74-.1-.04,0-.08.34-.08.52-.01.6,0,1.21,0,1.85ZM166.7,22.45c.34-.02.63-.01.91-.06.5-.08.75-.43.72-.93-.04-.59-1.04-1.1-1.53-.77-.05.03-.08.11-.09.17,0,.52,0,1.03,0,1.59Z"/>
        <path class="cls-1" d="M158.4,28.35h.78c0,.35,0,.67,0,1,0,.76,0,1.51,0,2.27-.02,1.62-1.05,2.52-2.67,2.36-1.42-.15-2.09-.85-2.13-2.28-.03-1.11,0-2.22,0-3.35h.78c0,.15.02.3.02.44,0,1.03,0,2.06.02,3.09.02.89.55,1.37,1.5,1.4.99.03,1.63-.42,1.68-1.29.06-1.04.03-2.09.04-3.13,0-.16,0-.32,0-.5Z"/>
        <path class="cls-1" d="M168.49,28.35h.8c0,.43,0,.84,0,1.25,0,.77,0,1.54.02,2.31.03.86.56,1.34,1.48,1.37.99.04,1.64-.41,1.69-1.28.06-.89.03-1.79.04-2.68,0-.31,0-.63,0-.97h.75c.01.12.03.24.03.36,0,.96,0,1.92,0,2.89-.01,1.63-1.03,2.53-2.66,2.37-1.42-.14-2.11-.84-2.15-2.26-.03-1.11,0-2.22,0-3.36Z"/>
        <path class="cls-1" d="M153.45,29.44c-.57-.15-1.11-.35-1.67-.42-1.71-.22-2.95,1.41-2.3,2.98.37.9,1.4,1.43,2.5,1.22.52-.1,1.01-.31,1.53-.47,0-.01.02,0,.02.03.03.8.03.84-.75,1.03-1.05.27-2.1.32-3.05-.33-.97-.65-1.41-1.82-1.15-3,.24-1.08,1.19-1.97,2.29-2.17.83-.15,1.62,0,2.38.31.44.18.13.57.21.82Z"/>
        <path class="cls-1" d="M161.87,20.01h3.11v.69h-2.33v1.71h2.25v.71h-2.25v1.74h2.41v.7h-3.2v-5.54Z"/>
        <path class="cls-1" d="M142.3,33.89v-5.53h3.11v.66h-2.33v1.72h2.26v.71h-2.25v1.74h2.42v.7h-3.21Z"/>
        <path class="cls-1" d="M122.23,15.06c-.19.02-.38.04-.56.06-.42-.07-.5-.44-.67-.75.05-.04.1-.08.17-.13-.04-.06-.09-.13-.17-.24.33,0,.58-.05.53-.53.11.15.16.21.2.25.21-.07.42-.15.68-.24,0,0,.05.06.09.12.09-.02.06-.47.28-.06.04-.06.1-.13.19-.25.03.14.04.22.06.32.03-.02.08-.03.08-.05.02-.18.02-.37.06-.55.02-.09.14-.16.21-.24.07.08.18.16.19.25.03.18,0,.38.09.57.05-.08.1-.15.14-.23.04.06.08.12.14.21.04-.09.07-.16.12-.28.14.17.25.31.35.45.2-.04.39-.32.56,0,.05-.07.1-.13.2-.27v.38c.1-.06.17-.11.2-.12.09.24.18.45.29.72-.15.22-.2.69-.75.6v-.3s-.04-.01-.06-.02c-.05.11-.1.22-.14.33-.06,0-.12-.02-.19-.03-.06-.04-.11-.1-.17-.11-.35-.03-.7-.08-1.04-.06-.36.02-.71.11-1.07.18ZM123.04,13.9c-.2-.33-.49-.29-.7.04.22-.01.44-.03.7-.04ZM124.35,13.94l.04-.13c-.19-.04-.37-.09-.56-.11-.04,0-.1.1-.2.2.3.02.51.03.72.04Z"/>
        <path class="cls-1" d="M152.84,24.18c.15.14.25.23.35.32.36.31.78.52,1.24.42.26-.06.56-.24.71-.46.19-.27.06-.59-.17-.82-.18-.18-.4-.33-.61-.48-.26-.18-.54-.33-.8-.51-.68-.48-.9-1.11-.66-1.78.23-.62.9-1.01,1.67-.96.12,0,.25.03.37.05.8.16.88.27.79,1.16-.13-.08-.23-.18-.34-.21-.39-.1-.79-.25-1.18-.24-.21,0-.53.25-.6.45-.06.2.07.54.23.72.21.24.53.38.8.56.26.18.54.33.78.54.52.47.67,1.06.45,1.72-.22.66-.75.92-1.39.97-.19.02-.38-.01-.57-.04-.95-.16-1.12-.37-1.06-1.41Z"/>
        <path class="cls-1" d="M156.43,20.7v-.71h4.61v.67h-1.89v4.87h-.81v-4.84h-1.91Z"/>
        <path class="cls-1" d="M165.12,29.03h-1.9v-.69h4.59v.67h-1.9v4.89h-.79v-4.87Z"/>
        <path class="cls-1" d="M160.38,33.89v-5.53h.75v4.84h2.51v.7h-3.26Z"/>
        <path class="cls-1" d="M121.68,35.68v-6.14h.1v5.92h2.28v-4.69s.06,0,.08,0c0,.11,0,.22,0,.33,0,1.36,0,2.72,0,4.08,0,.17-.04.39.29.26v-4.55s.04,0,.07,0v4.58h.41v-4.42s.06-.02.09-.03c.04.07.11.13.11.2,0,1.48,0,2.95,0,4.46h-3.44Z"/>
        <path class="cls-1" d="M142.64,20.01h.71v5.54h-.71v-5.54Z"/>
        <path class="cls-1" d="M151.07,20.01h.71v5.54h-.71v-5.54Z"/>
        <path class="cls-1" d="M171.61,20.01v5.55h-.73v-5.55h.73Z"/>
        <path class="cls-1" d="M125.09,27.06v1.93c-.18-.21-.24-3.28-.04-3.91.03.14.06.28.11.47.08,0,.2.02.31,0,.41-.08.67.15.9.43.23.28.19.54-.13.7-.34.16-.71.24-1.14.38Z"/>
        <path class="cls-1" d="M120.63,26.29c.16-.06.32-.13.49-.19.17-.06.34-.1.56-.16v-1.44s.07,0,.1,0v2.9c-.41-.34-.8-.65-1.19-.97.02-.04.04-.09.05-.13Z"/>
        <path class="cls-1" d="M126.02,31.5c.23.21.45.4.66.59-.3.33-.58.63-.85.93-.34-.32-.31-.97.19-1.51Z"/>
        <path class="cls-1" d="M124.87,24.83c.1-.02.23,0,.29-.07.21-.23.4-.09.54.05.09.08.09.26.14.39-.03.02-.06.04-.09.06-.3-.14-.59-.28-.89-.42v-.02Z"/>
        <path class="cls-1" d="M124.1,28.5v-3.63s.02,0,.03,0v3.62s-.02,0-.03.01Z"/>
        <path class="cls-1" d="M124.45,28.66v-3.66s.02,0,.03,0v3.66s-.02,0-.03,0Z"/>
        <path class="cls-1" d="M124.03,23.96c.12.3.2.5.3.74-.16-.03-.29-.06-.45-.1.05-.19.09-.38.16-.64Z"/>
        <path class="cls-1" d="M124.07,23.8c.03-.14.06-.29.1-.43.03-.02.07-.03.1-.05.06.09.18.2.16.27-.03.11-.15.19-.24.29l-.12-.09Z"/>
        <path class="cls-1" d="M95.71,36.74c0,.3.03.59,0,.86-.05.39.14.53.49.56.08,0,.16.02.27.03v2.66c-.28-.07-.55-.1-.78-.2-.54-.24-1.07-.24-1.61,0-.51.23-1.03.23-1.54,0-.54-.25-1.06-.24-1.61,0-.23.1-.49.13-.78.21v-2.63s.05-.04.08-.04q.69-.1.69-.77c0-.22,0-.45,0-.66.52-.18.53-.22.49-.74,0-.08.15-.25.24-.25,1.11-.02,2.22-.01,3.33,0,.19,0,.27.09.24.3-.07.44.01.54.51.68ZM91.08,36.93c0,.25.02.48,0,.7-.03.29.08.36.36.36,1.25-.01,2.5,0,3.75,0,.1,0,.2-.02.32-.03v-1.02h-4.42ZM90.22,38.83v.39c.24-.06.46-.09.65-.18.57-.27,1.13-.27,1.7,0,.47.22.96.22,1.43,0,.58-.27,1.15-.26,1.74,0,.19.09.41.11.65.17-.01-.21-.02-.33-.02-.4-.28-.09-.53-.14-.75-.24-.52-.23-1.02-.23-1.54,0-.53.25-1.07.25-1.6,0-.47-.22-.95-.23-1.44-.04-.26.1-.53.18-.83.29ZM96.4,39.84c-.26-.07-.5-.11-.71-.21-.55-.25-1.09-.25-1.64,0-.51.23-1.01.18-1.54,0-.39-.13-.83-.16-1.24-.13-.36.03-.7.23-1.08.36,0,.12.01.24.02.39.25-.07.46-.1.65-.19.57-.26,1.13-.26,1.7,0,.48.22.96.22,1.43,0,.57-.26,1.13-.26,1.71,0,.2.09.42.12.66.19,0-.17.01-.28.02-.41ZM91.54,36.68h3.6c-.14-.19-.24-.44-.35-.44-1.04-.03-2.07-.02-3.11-.02-.05.17-.1.31-.15.46Z"/>
        <path class="cls-1" d="M89.97,31.69c-.07-.39-.11-.77-.2-1.13-.06-.22,0-.36.17-.45.49-.28.98-.55,1.49-.8,1.24-.62,2.5-1.21,3.73-1.84.34-.17.63-.45.99-.71.04.46.12.89.09,1.32-.02.19-.25.39-.42.53-.94.76-2,1.32-3.12,1.77-.52.21-1.06.4-1.57.64-.39.18-.75.43-1.16.67Z"/>
        <path class="cls-1" d="M94.9,15.13c-.02.12-.04.25-.07.37-.03.14-.06.29-.1.47h.9v1.3c-.24.18-.43.31-.59.48-.04.04.02.23.09.3.14.14.18.25.06.43-.08.11-.15.26-.15.39-.01,1.05,0,2.11,0,3.16,0,.11-.02.23-.04.34-.04,0-.08,0-.13,0v-3.59h-.46v3.49s-.04,0-.07,0v-3.46c-.32-.13-.29.07-.29.25,0,.98,0,1.96,0,2.95,0,.09,0,.19,0,.28h-.06v-3.5h-2.23c-.03,1.35.01,2.72-.02,4.08-.05,0-.11,0-.16,0,0-.12-.02-.23-.02-.35,0-1.19,0-2.39,0-3.58,0-.15-.12-.3-.16-.45-.03-.11-.03-.24,0-.35.04-.12.21-.28.19-.31-.13-.15-.3-.27-.46-.4-.03-.02-.09-.02-.16-.02v-1.4h.89c-.07-.28-.14-.51-.21-.78.1-.03.2-.06.31-.1.1-.06.2-.11.3-.17.21.01.43.03.64.03.26,0,.53-.02.79-.03.27.04.54.08.81.11.13.03.26.05.38.08ZM91.16,16.19v1h4.28v-1h-4.28ZM94.73,18.01s.06-.07.08-.1c-.08-.07-.16-.21-.24-.21-.91-.02-1.81,0-2.73,0v.32h2.89ZM91.56,18.25s0,.05,0,.08h3.46s0-.05,0-.08h-3.47ZM93.7,15.4s.07-.12.15-.26h-1.54s0,.02,0,.03c.08.02.16.03.3.06-.16.03-.24.04-.38.07.15.03.23.05.35.07-.06.07-.1.11-.15.17.23-.04.42-.07.62-.11.04-.08.12-.17.18-.16.13,0,.26.07.47.13ZM91.95,15.85c.9-.21,1.8-.21,2.7,0-.47-.34-2.2-.34-2.7,0ZM91.7,17.41v.04h3.21v-.04h-3.21Z"/>
        <path class="cls-1" d="M92.27,14.94c-.1.06-.2.11-.3.17-.06-.03-.13-.1-.17-.09-.32.08-.7-.08-.83-.37-.13-.29.04-.63.31-.85.52-.4,1.13-.36,1.78-.43,0-.18-.02-.38.01-.57.02-.09.14-.16.21-.24.07.08.18.15.2.24.03.18,0,.36,0,.57.44.04.83.08,1.22.1.28.02.79.55.82.87.03.4-.21.69-.64.77-.13-.03-.26-.05-.38-.08-.07-.15-.14-.3-.23-.51.04,0-.01,0-.07-.01.1-.06.18-.1.27-.15-.04-.06-.08-.11-.11-.15.15-.2.3-.41.45-.61-.54.12-.86.47-1.06.93-.13.01-.32-.28-.39.07,0,.02-.11.02-.17.02.03-.03.07-.06.09-.1.04-.08.09-.16.09-.25,0-.06-.06-.12-.09-.17-.03.05-.09.1-.1.15,0,.06.03.12.03.13-.14.06-.23.11-.34.16-.28-.39-.53-.86-1.12-.94.15.21.31.41.44.59-.04.07-.07.13-.11.19.08.03.17.06.25.09-.04.06-.12.11-.13.17,0,.1.03.2.04.29ZM93.24,14.06c.37-.25.37-.33,0-.66v.66Z"/>
        <path class="cls-1" d="M91.74,35.48h2.23v-5.37s.05,0,.08,0c0,.33,0,.66,0,.99,0,1.36,0,2.72,0,4.08,0,.17-.03.38.29.28v-5.49s.04,0,.07,0v5.5c.15,0,.26.01.43.02v-.4c0-1.74,0-3.48,0-5.21,0-.13.04-.26.07-.39.04,0,.07.01.11.02v6.17h-3.39c-.14-.47-.08-4.48.12-4.69v4.48Z"/>
        <path class="cls-1" d="M91.58,28.94v-1.9c-.38-.11-.72-.17-1.04-.31-.44-.19-.46-.46-.17-.83.31-.39.72-.4,1.15-.34.04-.18.07-.33.11-.49.02,0,.05,0,.07.01v3.85s-.08,0-.13,0Z"/>
        <path class="cls-1" d="M96.09,26.42c-.39.32-.78.65-1.22,1.02v-2.94s.09,0,.13-.01c.01.23.03.46.03.7,0,.25,0,.5,0,.74.34.12.67.23,1,.35.02.05.03.1.05.15Z"/>
        <path class="cls-1" d="M90.62,31.57c.43.45.48.87.32,1.17-.19-.12-.43-.28-.67-.42-.27-.16-.22-.32,0-.48.11-.08.23-.16.36-.26Z"/>
        <path class="cls-1" d="M94,27.8v-3.16h.03v3.16h-.03Z"/>
        <path class="cls-1" d="M94.4,24.6v2.97s-.02,0-.03,0v-2.97s.02,0,.03,0Z"/>
        <path class="cls-1" d="M108.07,4.96c.16-.19.32-.17.47.02-.04.13-.07.28-.14.38-.03.04-.24.02-.27-.03-.06-.11-.04-.25-.06-.37Z"/>
        <path class="cls-1" d="M124.5,15.13c-.75,0-1.51,0-2.26,0,0-.02,0-.05,0-.07.36-.06.71-.15,1.07-.18.35-.02.7.03,1.04.06.06,0,.11.07.17.11,0,.03-.01.06-.02.08Z"/>
        <path class="cls-1" d="M113.02,18.47c-.01-.08,0-.12-.02-.15q-.25-.51.34-.58c.41-.05.69-.44.6-.85-.02-.09-.03-.18-.05-.36.14.15.25.23.3.33.04.08,0,.19,0,.29.14-.13.24-.23.29-.27.23.16.39.27.55.39l.06-.07c.01.1.03.2.04.32.11.01.22.03.34.04v.36c.14.07.27.15.41.22-.3.09-.68.1-.79.28-.13.21-.03.56-.03.89,0,0-.07,0-.18-.01.14.29.27.57.4.84-.02.02-.05.04-.07.05-.07-.05-.13-.09-.21-.14-.03.17-.06.34-.09.55-.1-.11-.18-.19-.27-.29-.02.26-.03.5-.05.77-.09-.06-.14-.09-.21-.14-.01.04-.04.08-.02.1.22.43.42.89.69,1.29.19.27.52.33.83.16.3-.16.33-.44.29-.74-.02-.17-.06-.35-.11-.52-.32-1.09-.26-2.16.13-3.21.05-.14.07-.29.12-.48.07.12.13.21.21.34.21-.15.43-.3.64-.45.03.01.05.02.08.03-.11.28-.22.55-.33.83.05,0,.13.02.21.03,0,.02,0,.05,0,.06-.14.23-.28.46-.42.69-.05.08-.08.19-.15.24-.58.37-.39.89-.27,1.39.11.44.29.87.33,1.32.05.54-.22.85-.76.98-.31.07-.47.25-.5.55-.03.31.04.55.36.69.3.14.32.33.16.63-.19.34-.42.67-.2,1.12.07.13-.08.37-.15.64-.15-.18-.28-.34-.43-.52-.13.09-.28.19-.5.35.02-.27.04-.5.07-.8-.12-.02-.3-.04-.49-.07.05-.33.35-.34.62-.4.12-.03.3-.05.32-.12.04-.1-.05-.24-.08-.36-.03,0-.07,0-.1,0-.03.06-.06.12-.09.21-.05-.04-.11-.09-.18-.15-.01.06-.02.11-.03.15-.35-.05-.61-.66-.54-1.26-.15,0-.35-.03-.42.04-.08.09-.07.28-.04.42.18.86.19.86-.67.79-.12,0-.23-.03-.36-.05-.12.2-.23.4-.36.61-.37-.13-.15-.45-.21-.67-.23-.02-.46-.04-.7-.06.03-.32.15-.4.7-.43-.15-.18-.27-.34-.4-.5.21-.22.54-.18.7.15.11.22.28.31.52.23.05-.02.09-.08.14-.12-.05-.02-.1-.04-.15-.06-.22-.11-.33-.52-.24-.92.06-.29.26-.44.56-.45.21,0,.42,0,.74,0-.3-.2-.54-.32-.73-.5-.19-.18-.33-.42-.51-.66-.32.19-.66.4-1.02.62-.02-.08-.03-.15-.05-.22-.15.02-.29.05-.43.07-.08.27-.17.54-.29.93-.14-.28-.24-.49-.37-.75-.11-.01-.31-.04-.5-.06-.02-.02-.04-.05-.06-.07.2-.14.39-.29.59-.43-.12-.1-.28-.22-.46-.37.17-.28.46-.23.64-.07.28.25.48.15.72,0,.14-.09.27-.19.5-.36-.42-.23-.78-.42-1.15-.62.01,0,.07-.04.16-.11-.17-.07-.31-.12-.47-.19.08-.06.15-.12.22-.17-.2-.35-.5-.45-.99-.3-.05-.39.27-.43.52-.57-.17-.17-.34-.34-.51-.51.19-.22.42-.21.84.08.09-.22.18-.45.27-.67.27.11.38.38.24.68-.17.37-.11.54.24.74.17.1.34.21.51.32.34.23.97.2,1.3-.08-.09-.1-.19-.2-.32-.34.14-.08.26-.15.38-.21-.63.1-1.01-.3-1.39-.71.56-.43.81.31,1.28.37Z"/>
        <path class="cls-1" d="M110.75,27.54c0,.95-.23,1.71-.82,2.34-.92.97-2.24.96-3.15-.02-1.08-1.15-1.07-3.3.02-4.45.98-1.03,2.48-.93,3.34.24.43.59.63,1.26.62,1.89ZM106.16,27.76c.01.64.2,1.23.58,1.75.8,1.11,2.18,1.18,3.1.17.94-1.04.98-2.92.08-3.99-.9-1.08-2.31-1.07-3.15.04-.45.6-.63,1.28-.61,2.03Z"/>
        <path class="cls-1" d="M108.31,12.91c.22,0,.45-.03.67.01.12.02.29.16.3.26,0,.1-.15.31-.24.31-.48.03-.96.03-1.44,0-.09,0-.25-.21-.24-.31,0-.1.17-.24.29-.26.21-.04.44-.01.67-.01ZM109.1,13.27v-.18c-.5,0-.99,0-1.48,0-.03,0-.06.09-.08.13.07.04.13.1.2.1.35.01.7.01,1.05,0,.1,0,.2-.04.31-.07Z"/>
        <path class="cls-1" d="M111.4,13.06c.22.02.49.02.73.09.13.04.21.23.31.35-.12.09-.23.24-.35.25-.25.02-.51-.03-.77-.07-.22-.03-.48-.06-.44-.38.03-.31.28-.26.52-.25ZM111.9,13.57s0,0,0,0c.04,0,.07.01.1,0,.08-.02.16-.06.23-.09-.06-.05-.12-.12-.19-.14-.25-.05-.51-.09-.76-.1-.07,0-.14.07-.21.11.06.05.11.12.17.14.22.04.44.06.66.09Z"/>
        <path class="cls-1" d="M105.44,13.04c.06.05.27.14.3.27.07.25-.15.34-.36.37-.28.04-.56.1-.84.08-.13,0-.25-.18-.37-.28.1-.11.19-.29.31-.32.27-.07.56-.08.96-.12ZM104.34,13.45s.03.09.04.14c.36-.04.71-.07,1.06-.12.04,0,.06-.1.09-.16-.06-.03-.12-.09-.18-.08-.28.03-.56.07-.84.12-.06.01-.12.07-.18.11Z"/>
        <path class="cls-1" d="M103.71,13.64c-.21.16-.33.33-.44.31-.12-.01-.28-.17-.31-.29-.02-.08.16-.28.27-.29.11-.01.24.13.47.27Z"/>
        <path class="cls-1" d="M113.35,13.21c.14.22.28.34.28.46,0,.1-.19.3-.25.28-.13-.03-.3-.17-.31-.28-.01-.11.14-.24.29-.47Z"/>
        <path class="cls-1" d="M106.59,13.7c-.15-.22-.32-.35-.3-.45.02-.12.19-.26.32-.28.07-.01.26.18.26.28,0,.11-.14.24-.29.45Z"/>
        <path class="cls-1" d="M110.09,12.9c.08.12.22.25.21.36-.02.11-.18.26-.3.28-.07.01-.26-.17-.26-.27,0-.12.13-.24.21-.36.05,0,.09,0,.14,0Z"/>
        <path class="cls-1" d="M91.36,24.05c-.06-.15-.11-.29-.17-.44l.07-.09c.1.05.26.08.29.16.04.11-.03.25-.06.37-.04,0-.09,0-.13,0Z"/>
        <path class="cls-1" d="M109.84,28.07h-.71c-.08-.21-.16-.33-.16-.45,0-.1.1-.2.18-.34h-.35c-.24-.45-.17-.62.26-.68.09-.33.18-.64.27-.95.06,0,.12,0,.17,0,.1.3.2.6.31.95.42.08.49.23.24.68-.12-.01-.24-.02-.35-.03.46.22-.04.53.14.82Z"/>
        <path class="cls-1" d="M106.9,26.6c.1-.34.19-.64.29-1,.35.32.43.62.36.98.53.09.6.24.36.7-.12,0-.25-.01-.38-.02.09.15.2.26.21.36,0,.12-.08.24-.15.44h-.76c.33-.24-.34-.56.22-.77-.13,0-.25-.01-.39-.02-.24-.45-.18-.6.26-.67Z"/>
        <path class="cls-1" d="M108.44,27.61c.09.29.18.57.28.91.44.11.5.25.25.7h-.36c.52.2-.1.52.11.78h-.71s-.03-.05-.05-.08c.3-.17-.47-.49.22-.61-.03-.03-.05-.06-.08-.09-.12-.01-.24-.02-.39-.04-.23-.41-.17-.56.26-.68.11-.33.2-.61.29-.9.06,0,.12,0,.18,0Z"/>
      </g>
    </g>
  </g>
  <g>
    <polygon class="cls-1" points="202.18 10.76 202.18 45.53 286.97 45.53 286.99 0 202.18 10.76"/>
    <g>
      <path class="cls-2" d="M210.82,28.13l-2.79-8.49h1.47l1.16,3.54c.39,1.18.74,2.37,1.06,3.55h.02c.31-1.18.67-2.37,1.05-3.55l1.16-3.54h1.47l-2.78,8.49h-1.81Z"/>
      <path class="cls-2" d="M219.17,25.25c-.4.02-.99.08-1.39.15-.87.14-1.2.4-1.2.95s.38.9,1.07.9c.42,0,.82-.13,1.1-.4.32-.33.42-.65.42-1.3v-.3ZM220.48,24.26v2.26c0,.71.06,1.22.15,1.6h-1.23c-.06-.26-.08-.56-.08-.85h-.02c-.44.64-1.12.98-2.04.98-1.26,0-2.05-.76-2.05-1.8s.59-1.63,2.32-1.91c.49-.08,1.21-.15,1.63-.18v-.24c0-.9-.49-1.25-1.18-1.25-.75,0-1.16.42-1.2,1.06h-1.33c.06-1.15.9-2.05,2.53-2.05,1.6,0,2.5.78,2.5,2.37"/>
    </g>
    <rect class="cls-2" x="222.28" y="19.64" width="1.36" height="8.49"/>
    <g>
      <path class="cls-2" d="M226.46,24.48h3.07c-.09-1.06-.71-1.59-1.53-1.59-.82,0-1.42.54-1.54,1.59M229.42,26.3h1.39c-.23,1.08-1.21,2-2.79,2-1.85,0-2.93-1.32-2.93-3.28,0-1.79,1.07-3.14,2.91-3.14,1.38,0,2.38.8,2.72,2.06.12.38.17.84.17,1.42h-4.45c.05,1.37.74,1.93,1.59,1.93.77,0,1.27-.42,1.39-1"/>
      <path class="cls-2" d="M237.67,24.42v3.71h-1.36v-3.59c0-1.08-.46-1.52-1.23-1.52s-1.38.59-1.38,1.74v3.36h-1.36v-6.06h1.29v.79h.02c.38-.55,1.01-.93,1.81-.93,1.38.01,2.21.84,2.21,2.5"/>
      <path class="cls-2" d="M244.74,24.26h-1.42c-.06-.79-.57-1.3-1.31-1.3-.95,0-1.52.81-1.52,2.14s.56,2.14,1.52,2.14c.74,0,1.24-.59,1.3-1.41h1.43c-.12,1.47-1.17,2.48-2.73,2.48-1.79,0-2.94-1.24-2.94-3.21s1.16-3.21,2.94-3.21c1.54,0,2.6.99,2.72,2.37"/>
    </g>
    <path class="cls-2" d="M246.14,28.13v-6.06h1.36v6.06h-1.36ZM246.14,19.64h1.36v1.3h-1.36v-1.3Z"/>
    <g>
      <path class="cls-2" d="M252.82,25.25c-.4.02-.99.08-1.39.15-.87.14-1.19.4-1.19.95s.38.9,1.07.9c.42,0,.82-.13,1.1-.4.32-.33.42-.65.42-1.3v-.3ZM254.13,24.26v2.26c0,.71.06,1.22.15,1.6h-1.23c-.06-.26-.08-.56-.08-.85h-.02c-.44.64-1.12.98-2.04.98-1.26,0-2.05-.76-2.05-1.8s.58-1.63,2.32-1.91c.49-.08,1.21-.15,1.63-.18v-.24c0-.9-.49-1.25-1.18-1.25-.75,0-1.16.42-1.2,1.06h-1.33c.06-1.15.9-2.05,2.53-2.05,1.6,0,2.5.78,2.5,2.37"/>
      <path class="cls-2" d="M261.26,24.42v3.71h-1.36v-3.59c0-1.08-.46-1.52-1.23-1.52s-1.38.59-1.38,1.74v3.36h-1.36v-6.06h1.29v.79h.02c.38-.55,1.01-.93,1.81-.93,1.38,0,2.21.84,2.21,2.5"/>
      <path class="cls-2" d="M216.65,39.73v-4.27c0-1.07.01-2.15.05-3.22h-.02c-.32,1.07-.67,2.14-1.02,3.19l-1.47,4.29h-1.63l-1.47-4.29c-.36-1.06-.7-2.12-1.02-3.19h-.02c.03,1.07.05,2.15.05,3.22v4.27h-1.38v-8.49h2.3l1.37,4.04c.36,1.05.69,2.14.98,3.19h.02c.3-1.06.63-2.15.99-3.19l1.37-4.04h2.3v8.49h-1.4Z"/>
      <path class="cls-2" d="M220.02,37.38v-3.71h1.36v3.59c0,1.08.46,1.52,1.23,1.52s1.38-.59,1.38-1.74v-3.36h1.36v6.06h-1.29v-.79h-.03c-.38.55-1.01.93-1.81.93-1.37,0-2.21-.84-2.21-2.5"/>
      <path class="cls-2" d="M231.76,35.56h-1.31c0-.72-.43-1.07-1.16-1.07-.63,0-1,.28-1,.71,0,.53.42.63,1.37.87,1.11.29,2.29.55,2.29,1.99,0,1.1-.98,1.85-2.54,1.85s-2.61-.72-2.62-2.17h1.38c0,.74.45,1.16,1.26,1.16.69,0,1.1-.3,1.1-.75,0-.62-.48-.74-1.53-1-1.01-.25-2.08-.48-2.08-1.84,0-1.07.95-1.81,2.37-1.81,1.54.01,2.45.72,2.46,2.07"/>
    </g>
    <path class="cls-2" d="M233.41,33.68h1.36v6.06h-1.36v-6.06ZM233.41,31.24h1.36v1.3h-1.36v-1.3Z"/>
    <g>
      <path class="cls-2" d="M241.9,35.87h-1.42c-.06-.79-.57-1.3-1.31-1.3-.95,0-1.52.81-1.52,2.14s.56,2.14,1.52,2.14c.74,0,1.24-.59,1.3-1.41h1.43c-.12,1.47-1.17,2.48-2.73,2.48-1.79,0-2.94-1.24-2.94-3.2s1.16-3.21,2.94-3.21c1.54,0,2.6.98,2.72,2.37"/>
      <path class="cls-2" d="M247.66,35.49c0,1.94.94,3.15,2.46,3.15s2.46-1.21,2.46-3.15-.94-3.15-2.46-3.15c-1.52,0-2.46,1.21-2.46,3.15M254.05,35.49c0,2.73-1.51,4.42-3.93,4.42s-3.93-1.69-3.93-4.42,1.5-4.42,3.93-4.42,3.93,1.69,3.93,4.42"/>
      <path class="cls-2" d="M264.22,39.73h-1.36v-6.06h1.36v6.06ZM264.22,32.54h-1.36v-1.3h1.36v1.3ZM259.31,33.03c0-1.25.64-1.87,1.84-1.87.24,0,.54.05.7.08v1c-.07-.02-.2-.05-.32-.05-.59,0-.87.28-.87.99v.49h1.17v1.03h-1.17v5.02h-1.35v-5.02h-2.14v5.02h-1.35v-5.02h-1.02v-1.03h1.02v-.64c0-1.25.64-1.87,1.84-1.87.25,0,.54.05.71.08v1c-.08-.02-.22-.05-.33-.05-.58,0-.87.28-.87.99v.49h2.14v-.64Z"/>
      <path class="cls-2" d="M271.35,35.87h-1.42c-.06-.79-.57-1.3-1.31-1.3-.95,0-1.52.81-1.52,2.14s.56,2.14,1.52,2.14c.74,0,1.24-.59,1.3-1.41h1.43c-.12,1.47-1.17,2.48-2.73,2.48-1.79,0-2.94-1.24-2.94-3.2s1.16-3.21,2.94-3.21c1.54,0,2.6.98,2.72,2.37"/>
      <path class="cls-2" d="M273.78,36.08h3.07c-.09-1.06-.71-1.59-1.53-1.59-.82,0-1.42.54-1.54,1.59M276.73,37.91h1.39c-.23,1.08-1.21,2-2.79,2-1.85,0-2.93-1.32-2.93-3.28,0-1.79,1.07-3.14,2.91-3.14,1.38,0,2.38.8,2.72,2.06.12.38.17.84.17,1.42h-4.45c.05,1.37.74,1.93,1.59,1.93.77,0,1.27-.42,1.39-1"/>
    </g>
  </g>
</svg>