<?xml version="1.0" encoding="UTF-8"?>
<svg id="Capa_1" xmlns="http://www.w3.org/2000/svg" version="1.1" viewBox="0 0 5948.5 3926">
  <!-- Generator: Adobe Illustrator 29.3.1, SVG Export Plug-In . SVG Version: 2.1.0 Build 151)  -->
  <defs>
    <style>
      .st0 {
        fill: #ad86c0;
      }

      .st1 {
        fill: #e4e6e5;
      }
    </style>
  </defs>
  <g>
    <path class="st0" d="M1174.7-723c-17.7-24.9-19.5-63.3-30.4-92-11.8-30.9-29.6-59.8-26.6-93.9,6.4-72,74.1-26.5,108.8-4.3,89.1,56.9,173.7-32.4,271.6-18.2,100.6,14.6-59.6,155.5-46.4,197.4,17.8,56.5,155.4,4.4,193.7-1.2,72.9-10.4,116.3,6.4,176.6,47.8,46.3,32,59.1,81.9,71.7,133.7,18.7,76.3,17.9,183.2-1.3,259.2-11.8,46.8-24.2,97.6-25.1,144.4-1.3,61.5,24.6,125.6,32.5,185.9,13.1,100-14.6,193.6-31.8,291.4-17.2,97.3-77.6,169.7-167.9,210.4-42.1,19-86,30-131.4,36-68.2,9.1-135.5,23.9-204.5,23.8-62.1-.1-131.8,8.7-193.1-.4-63.5-9.4-128.5-39.1-185.9-65.9-90.4-42.1-185.8-98.6-238.8-185.5-35.9-58.9-35.9-127.5-36-194.8-.3-93.2,41.7-174.9,40.8-269.2-.6-64.7-27.7-124.5-41.3-187-19.2-88.5-42.6-212.6-.4-297.3,58.9-118.4,149-161,274.3-161.1,40.4,0,73.3,7.7,110.3,22.3,20.3,7.9,39.8,18.7,61.8,18.3"/>
    <path class="st1" d="M1131.3-604c-48.7-66.8-181.1-80.4-252.6-47.8-101.3,46.3-92.6,186.2-89.5,280.1.6,20.5,5.3,132.9,36.6,140.6,24.2,6,34.6-39,46-53.8,22.6-29.4,55.9-56.4,88.4-74.6,61.2-34.3,85.2-50.8,112.9-114.7,16.9-38.8,42-91.7,58.3-129.8"/>
    <path class="st1" d="M1510-616.2c79.8-41.4,167.6-69.3,255.6-32.5,116.3,48.7,93.2,204.9,70.3,301.3-7.9,33.7-4.7,95.8-44.6,88.6-30.1-5.5-102.4-77.4-123.3-103.6-27.5-34.4-41.8-79.6-60-118.9-22.3-48.1-47.7-79.3-81.6-118.8"/>
  </g>
  <g>
    <path class="st0" d="M2582.6,927.5c16.4-23.3,18.1-58.9,28.3-85.6,11-28.7,27.5-55.6,24.7-87.4-6-67-68.9-24.7-101.2-4-82.9,52.9-161.6-30.1-252.7-16.9-93.6,13.5,55.5,144.7,43.3,183.7-16.6,52.6-144.6,4-180.3-1-68-9.7-108.2,5.8-164.4,44.6-43.1,29.8-55,76.1-66.8,124.5-17.4,70.9-16.6,170.5,1.2,241.3,11,43.5,22.5,90.8,23.3,134.3,1.2,57.2-22.9,116.9-30.3,173.1-12.2,93.2,13.5,180.2,29.6,271.3,16,90.6,72.1,158,156.2,195.8,39.2,17.7,80,27.9,122.3,33.5,63.5,8.4,126.2,22.2,190.4,22.1,57.8,0,122.7,8.1,179.7-.4,59.1-8.7,119.5-36.5,173.1-61.3,84.2-39.1,172.9-91.7,222.3-172.7,33.4-54.7,33.4-118.6,33.5-181.3.1-86.8-38.7-162.8-37.9-250.6.5-60.2,25.9-115.9,38.5-174.1,17.9-82.4,39.6-197.9.4-276.8-54.8-110.2-138.8-149.8-255.3-149.9-37.6,0-68.2,7.1-102.6,20.8-18.8,7.4-37,17.4-57.6,17"/>
    <path class="st1" d="M2623,1038.3c45.3-62.2,168.7-74.8,235.2-44.4,94.3,43,86.3,173.3,83.3,260.8-.6,19.1-5.1,123.7-34.2,130.8-22.5,5.6-32.1-36.4-42.7-50.2-21-27.4-52-52.5-82.2-69.4-56.9-32-79.4-47.3-105.1-106.8-15.7-36.3-39-85.5-54.3-120.8"/>
    <path class="st1" d="M2270.3,1027c-74.2-38.6-156-64.4-237.9-30.1-108.2,45.3-86.7,190.7-65.4,280.5,7.4,31.3,4.3,89.1,41.6,82.4,28.1-5.1,95.2-72.1,114.7-96.4,25.6-32,38.8-74.2,55.9-110.7,20.8-44.7,44.3-73.7,75.9-110.6"/>
  </g>
  <path class="st0" d="M2314.4-472.9c35.3-12.6,49.8-5.8,87.6-7.5,52.4-2.2,103.6-19,155.9-21,48.1-1.8,96.4,1,144.5,0,16.5,30.8,9.4,81.7,9.4,115.2s-2.1,38.2-2.1,57.2c38.2,22.5,79.5,36.3,116.4,62.4,35,24.8,67.4,52.8,91.7,88.7,56.9,84.1,71.7,187.5,43.8,284.4-19.6,67.8-48.1,165.9-119.7,196.1-27.3,11.6-55.5,16.5-84.5,21.6-11.7,2.1-45.1,1.7-55.5,9-11.6,8.1-4.5,51.2-4.5,67.6s2.7,34.8,0,50.7-4,15.5-19.6,23.3c-52.5,26.6-112,24.3-169.3,24.3s-143.4,10.5-207.8-6.2c12.1-24.6,3-70.9,3-98.9s5.3-39,0-47.2c-4-6.4-22.7-7.9-30-10.8-14.2-5.6-28.2-14.3-40.8-22.7-25.9-17.3-45.5-40.5-62.5-66.8-35.7-55.1-57.8-127.5-60.2-193.2-2.3-67.7,9.4-129.4,39.2-190.9,24.7-50.9,66.7-99,113-130.7,13-8.8,28.5-15.9,40.8-24.9,17.3-12.7,14.7-18.8,14.7-43s1.4-59.4,0-88.9c-.8-16-5.5-31.8-3.6-47.7"/>
  <path class="st0" d="M1422,584.7c-47-16.8-66.3-7.8-116.8-10-69.8-3-138-25.3-207.8-28.1-64.1-2.5-128.5,1.3-192.6-.1-22,41.1-12.5,108.9-12.5,153.7s2.7,50.9,2.9,76.1c-50.9,30-106,48.3-155.1,83.3-46.6,33.1-89.9,70.4-122.3,118.2-75.9,112-95.6,249.9-58.3,379.1,26.1,90.4,64.1,221.1,159.4,261.4,36.4,15.3,74.1,22,112.5,28.7,15.6,2.7,60.2,2.2,73.9,12,15.3,10.8,6.1,68.3,6.1,90s-3.6,46.5,0,67.6c3.6,21.2,5.5,20.5,26.1,31.1,70,35.5,149.3,32.5,225.8,32.5s191.1,14,276.9-8.3c-16.1-32.9-4-94.6-4-131.8s-7-52-.1-62.9c5.3-8.4,30.3-10.5,40-14.4,18.8-7.5,37.6-19.1,54.3-30.3,34.4-23.1,60.7-53.9,83.3-89,47.6-73.5,77.2-170,80.2-257.5,3.1-90.3-12.5-172.4-52.2-254.4-32.9-67.8-88.9-132-150.7-174.2-17.4-11.8-37.9-21.2-54.3-33.3-23-16.9-19.6-25.1-19.5-57.4,0-39.4-1.9-79.3,0-118.5,1-21.2,7.3-42.4,4.8-63.5"/>
  <path class="st0" d="M-.9-844.7c28.2-.5,44.7,9.5,71.2,18.2,42.2,13.8,92.1,17.7,136.4,21.6,49.5,4.4,133.7,15.9,180.5-4,3.8,74.7,14.3,167.2-1.7,240,72.1,14.7,161.5,45.7,197.8,112.8,60.8,112.8,56,268.3,60.9,392.1,4.8,120.3,14,242.2-39.2,353.9-38.5,80.6-93.7,140.3-177.7,169.7-100.4,35.1-212.8,39.5-319.2,30.3-63-5.5-124.3-52.6-150.7-109-26.5-56.8-33-115.2-50.2-174.6-20.3-70.4-35.5-152.7-37.8-225.8-3.6-114.6,8.6-222.7,45-331.8,9.7-29.4,24.3-65,42.4-90.3,15.6-21.7,40.1-30.3,57.6-48.3,27.4-28.3,21.7-67.6,17.4-106.3-5.3-47.8-13.8-94.6-17.7-142.9-2.1-26.2.4-66-9-90.6"/>
  <path class="st0" d="M410.8,1140.4c-28.2,1.4-43.9,12.3-69.8,22.7-41.2,16.5-90.8,23.6-134.7,30.4-49.1,7.7-132.4,24.4-180.3,7.7,1,74.8-3.4,167.9,17.3,239.5-70.9,19.4-158.3,56.1-190,125.5-53.3,116.5-38.3,271.4-35.2,395.4,3.1,120.3,1.8,242.6,62.2,350.7,43.5,78,102.6,134,188.4,157.7,102.5,28.5,215,25.5,320.5,9.4,62.5-9.6,120.7-60.7,143.3-118.6,22.7-58.3,25.5-117.2,38.6-177.5,15.7-71.6,25.5-154.6,23-227.8-3.9-114.6-23-221.8-66.5-328.2-11.7-28.6-28.5-63.1-48.2-87.3-16.9-20.7-42-27.7-60.5-44.4-29.2-26.5-26-66-24.3-105,2.2-48.1,7.5-95.2,8.3-143.7.4-26.4-4.7-65.7,3-91"/>
  <g>
    <path class="st0" d="M5904.6-344.5c16.4-23.3,18.1-58.9,28.3-85.6,11-28.7,27.5-55.6,24.7-87.4-6-67-68.9-24.7-101.2-4-82.9,52.9-161.6-30.1-252.7-16.9-93.6,13.5,55.5,144.7,43.3,183.7-16.6,52.6-144.6,4-180.3-1-68-9.7-108.2,5.8-164.4,44.6-43.1,29.8-55,76.1-66.8,124.5-17.4,70.9-16.6,170.5,1.2,241.3,11,43.5,22.5,90.8,23.3,134.3,1.2,57.2-22.9,116.9-30.3,173.1-12.2,93.2,13.5,180.2,29.6,271.3,16,90.6,72.1,158,156.2,195.8,39.2,17.7,80,27.9,122.3,33.5,63.5,8.4,126.2,22.2,190.3,22.1,57.8,0,122.7,8.1,179.7-.4,59.1-8.7,119.5-36.5,173.1-61.3,84.2-39.1,172.9-91.7,222.3-172.7,33.4-54.7,33.4-118.6,33.5-181.3.1-86.8-38.7-162.8-37.9-250.6.5-60.2,25.9-115.9,38.5-174.1,17.9-82.4,39.6-197.9.4-276.8-54.8-110.2-138.8-149.8-255.3-149.9-37.6,0-68.2,7.1-102.6,20.8-18.8,7.4-37,17.4-57.6,17"/>
    <path class="st1" d="M5945-233.6c45.3-62.2,168.7-74.8,235.2-44.4,94.3,43,86.3,173.3,83.3,260.8-.6,19.1-5.1,123.7-34.2,130.8-22.5,5.6-32.1-36.4-42.7-50.2-21-27.4-52-52.5-82.2-69.4-56.9-32-79.4-47.3-105.1-106.8-15.7-36.3-39-85.5-54.3-120.8"/>
    <path class="st1" d="M5592.4-245c-74.2-38.6-156-64.4-237.9-30.1-108.2,45.3-86.7,190.7-65.4,280.5,7.4,31.3,4.3,89.1,41.6,82.4,28.1-5.1,95.2-72.1,114.7-96.4,25.6-32,38.8-74.2,55.9-110.7,20.8-44.7,44.3-73.7,75.9-110.6"/>
  </g>
  <path class="st0" d="M4102.4,1355.8c35.2-12.6,49.6-5.8,87.4-7.5,52.4-2.2,103.3-19,155.7-21,47.9-1.8,96.1,1,144.2,0,16.5,30.7,9.4,81.6,9.4,115.1s-2.1,38.1-2.1,57c38.1,22.5,79.4,36.3,116.2,62.4,35,24.8,67.3,52.8,91.6,88.6,56.8,83.9,71.6,187.2,43.8,284-19.5,67.7-47.9,165.7-119.4,195.8-27.3,11.6-55.5,16.5-84.3,21.4-11.7,2.1-45.1,1.7-55.4,9-11.4,8.1-4.5,51.2-4.5,67.4s2.7,34.8,0,50.7-4,15.5-19.5,23.3c-52.4,26.6-111.7,24.3-169.2,24.3s-143.2,10.5-207.4-6.2c12.1-24.6,3-70.9,3-98.7s5.2-38.8,0-47c-4-6.4-22.7-7.9-30-10.8-14-5.6-28.2-14.3-40.7-22.7-25.9-17.3-45.5-40.4-62.4-66.7-35.6-55.1-57.8-127.3-60-192.9-2.3-67.6,9.4-129.2,39.1-190.6,24.7-50.8,66.7-98.9,112.9-130.5,13-8.8,28.5-15.9,40.7-24.9,17.2-12.7,14.7-18.7,14.7-43s1.4-59.4,0-88.7c-.8-15.9-5.5-31.8-3.6-47.6"/>
  <path class="st0" d="M4792.9-234.7c-47-16.8-66.3-7.8-116.8-10-69.8-3-138-25.3-207.8-28.1-64.1-2.5-128.5,1.3-192.6-.1-22,41.1-12.5,108.9-12.5,153.7s2.7,50.9,2.9,76.1c-50.9,30-106,48.3-155.1,83.3-46.6,33.1-89.9,70.4-122.3,118.2-75.9,112-95.6,249.9-58.3,379.1,26.1,90.4,64.1,221.1,159.4,261.4,36.4,15.3,74.1,22,112.5,28.7,15.6,2.7,60.2,2.2,73.9,12,15.3,10.8,6.1,68.3,6.1,90s-3.6,46.5,0,67.6c3.6,21.2,5.5,20.5,26.1,31.1,70,35.5,149.3,32.5,225.8,32.5s191.1,14,276.9-8.3c-16.1-32.9-4-94.6-4-131.8s-7-52-.1-62.9c5.3-8.4,30.3-10.5,40-14.4,18.8-7.5,37.6-19.1,54.3-30.3,34.4-23.1,60.7-53.9,83.3-89,47.6-73.5,77.2-170,80.2-257.5,3.1-90.3-12.5-172.4-52.2-254.4-32.9-67.8-88.9-132-150.7-174.2-17.4-11.8-37.9-21.2-54.3-33.3-23-16.9-19.6-25.1-19.5-57.4,0-39.4-1.9-79.3,0-118.5,1-21.2,7.3-42.4,4.8-63.5"/>
  <path class="st0" d="M3270-1156.4c28.2-.5,44.7,9.5,71.2,18.2,42.2,13.8,92.1,17.7,136.4,21.6,49.5,4.4,133.7,15.9,180.5-4,3.8,74.8,14.3,167.2-1.6,240,72.1,14.7,161.5,45.7,197.8,112.8,60.8,112.8,56,268.3,60.9,392.1,4.8,120.3,14,242.2-39.2,353.9-38.5,80.6-93.7,140.3-177.7,169.7-100.4,35.1-212.8,39.5-319.2,30.3-63-5.5-124.3-52.6-150.7-109-26.5-56.8-33-115.2-50.2-174.6-20.3-70.4-35.5-152.7-37.8-225.8-3.6-114.6,8.6-222.7,45-331.8,9.7-29.4,24.3-65,42.4-90.3,15.6-21.7,40.1-30.3,57.6-48.3,27.4-28.3,21.7-67.6,17.4-106.3-5.3-47.8-13.8-94.6-17.7-142.9-2.1-26.2.4-66-9-90.6"/>
  <path class="st0" d="M5050,936.1c28.2-.5,44.7,9.5,71.2,18.2,42.2,13.8,92.1,17.7,136.4,21.6,49.5,4.4,133.7,15.9,180.5-4,3.8,74.8,14.3,167.2-1.6,240,72.1,14.7,161.5,45.7,197.8,112.8,60.8,112.8,56,268.3,60.9,392.1,4.8,120.3,14,242.2-39.2,353.9-38.5,80.6-93.7,140.3-177.7,169.7-100.4,35.1-212.8,39.5-319.2,30.3-63-5.5-124.3-52.6-150.7-109-26.5-56.8-33-115.2-50.2-174.6-20.3-70.4-35.5-152.7-37.8-225.8-3.6-114.6,8.6-222.7,45-331.8,9.7-29.4,24.3-65,42.4-90.3,15.6-21.7,40.1-30.3,57.6-48.3,27.4-28.3,21.7-67.6,17.4-106.3-5.3-47.8-13.8-94.6-17.7-142.9-2.1-26.2.4-66-9-90.6"/>
  <path class="st0" d="M3781.9,321c-28.2,1.4-43.9,12.3-69.8,22.7-41.2,16.5-90.8,23.6-134.7,30.4-49.1,7.7-132.4,24.4-180.3,7.7,1,74.8-3.4,167.9,17.3,239.5-70.9,19.4-158.3,56.1-190,125.5-53.3,116.5-38.3,271.4-35.2,395.4,3.1,120.3,1.8,242.6,62.2,350.7,43.5,78,102.6,134,188.4,157.7,102.5,28.5,215,25.5,320.5,9.4,62.5-9.6,120.7-60.7,143.3-118.6,22.7-58.3,25.5-117.2,38.6-177.5,15.7-71.6,25.5-154.6,23-227.8-3.9-114.6-23-221.8-66.5-328.2-11.7-28.6-28.5-63.1-48.2-87.3-16.9-20.7-42-27.7-60.5-44.4-29.2-26.5-26-66-24.3-105,2.2-48.1,7.5-95.2,8.3-143.7.4-26.4-4.7-65.7,3-91"/>
</svg>