<?xml version="1.0" encoding="UTF-8"?>
<svg id="Capa_1" xmlns="http://www.w3.org/2000/svg" version="1.1" viewBox="0 0 4402 3028.2">
  <!-- Generator: Adobe Illustrator 29.3.1, SVG Export Plug-In . SVG Version: 2.1.0 Build 151)  -->
  <defs>
    <style>
      .st0 {
        fill: #cffe1e;
      }
    </style>
  </defs>
  <path class="st0" d="M1148.6,2751.3c-42.7-30-62.2-90.6-102.7-126-43-37.6-93.8-69.6-141.3-101.3-80.2-53.6-188.2-116.3-286.5-121.1,31.9,43.3,62,88.1,95.9,130.6,31.6,39.7,93.9,96,101,145.4-85.2,26.4-185.2-37.2-269.4-44.8-43.3-3.9-96.3-2.7-138.7,5.1-24.2,4.5-46,16.5-70.9,18.8-14.8,54.5,10.3,116.5,17.5,170.3,5.6,41.8,11.5,83.4,17.2,125.3,10,72.3,10.8,143.7,90.4,85.5,81.1-59.2,168.3-133.3,270.9-147,51.1-6.8,131.8-10.2,182.8.6,6.8,95.7-43.5,186-76.2,272.1-29.6,77.9-50.2,158.5-80.8,236.3,133.6-.8,275.4-57.6,351.8-173.5,32.9-50,33.8-97.7,41.1-155,8.1-63,21-126.9,24.5-190.3,63.7-15.8,133.5-10.3,197.6-28.3-34.2-33.9-81.2-58.4-126.2-75.5-32.9-12.5-73-1.2-97.9-27.3"/>
  <path class="st0" d="M1674.3,1921.9c-52.2-1.3-102-40.9-155.3-48-56.6-7.5-116.6-5.9-173.8-6-96.4-.2-221.1,7.4-305.7,57.9,50.6,18.4,100.4,38.9,152.2,55.6,48.3,15.6,131.3,27.9,164.6,65.1-56.3,69.2-174.8,71.7-249.1,112-38.2,20.8-81.7,51.1-112.6,81.1-17.7,17.1-29.2,39.2-48.6,54.9,17.9,53.6,73.1,91.2,109,132.1,27.8,31.7,55.7,63.1,83.7,94.7,48.4,54.7,88.6,113.6,122.6,21.1,34.7-94.2,66.2-204.2,144.1-272.4,38.8-34,104-81.5,152.5-100.8,58.7,75.9,66.9,179,87.4,268.7,18.6,81.3,46,159.7,63.7,241.5,110.8-74.7,197.4-200.6,196.7-339.3-.3-59.8-26-100-51.7-151.9-28.2-56.9-52.9-117.3-85.1-172,44.3-48.5,105.4-82.5,148.8-133.1-47.2-9.3-99.9-3.6-146.9,7.1-34.3,7.8-61.5,39.5-96.7,31.5"/>
  <path class="st0" d="M1589.2,334.7c-36.1,2.7-71.4-39.9-99.7-59.1-58.3-39.6-123.6-78.9-189.3-104.1-88.3-34-186.2-58.2-281.2-61.7-44.1-1.6-99.6-8.4-142.9.1-46,9-74.1,48.4-91.2,75.1,94.4-7.8,215.9,63.7,296.3,105.7,24.4,12.8,47.3,26.7,72.2,38.8,21,10.2,115,34.9,125.6,55,15,28.4.2,33.1-28.6,52.1-187.3,123.3-411.3,66.6-616.7,122.9,65.3,23.6,105.1,123.8,130.3,182,28,64.4,17.6,137.5,18.7,206.1,34.9,6.5,76-33,106.8-51.6,68.5-41.1,132.9-78.1,197.2-125.9,72.8-54.1,165.1-93.3,228.5-157.3.2,220.4,121.6,421.6,206.8,616.2,54.5-8.6,67.4-93.6,81-138.4,19.5-64.1,44.9-131.2,56.7-197.2,11.5-64.1,7.4-138.8,4.4-204.3-2-44.3-22.1-86.2-23.2-129.2-.9-35.9.4-33.6,32.6-57.4,61.7-45.7,144.3-91.7,192.9-149.2-74-27.4-171.3-14.3-250.9-14.3"/>
  <path class="st0" d="M2460.3-227.1c-36.1,2.7-71.4-39.9-99.7-59.1-58.3-39.6-123.6-78.9-189.3-104.1-88.3-34-186.2-58.2-281.2-61.7-44.1-1.6-99.6-8.4-142.9.1-46,9-55.6,48.8-91.2,75.1,94.4-7.8,215.9,63.7,296.3,105.7,24.4,12.8,47.3,26.7,72.2,38.8,21,10.2,115,34.9,125.6,55,15,28.4.2,33.1-28.6,52.1C1934.1-1.8,1710.1-58.5,1504.7-2.1c65.3,23.6,105.1,123.8,130.3,182,28,64.4,17.6,137.5,18.7,206.1,34.9,6.5,76-33,106.8-51.6,68.5-41.1,132.9-78.1,197.2-125.9,72.8-54.1,165.1-93.3,228.5-157.3.2,220.4,121.6,421.6,206.8,616.2,54.5-8.6,67.4-93.6,81-138.4,19.5-64.1,44.9-131.2,56.7-197.2,11.5-64.1,7.4-138.8,4.4-204.3-2-44.3-22.1-86.2-23.2-129.2-.9-35.9.4-33.6,32.6-57.4,61.7-45.7,144.3-91.7,192.9-149.2-74-27.4-171.3-14.3-250.9-14.3"/>
  <path class="st0" d="M536.9,3590.5c-21.5-29.1-4.3-81.6-3.2-115.8,2.4-70.5.8-146.6-12.8-215.7-18.3-92.8-50.1-188.5-97.7-270.8-22.1-38.2-46-88.8-76.3-120.9-32.2-34.1-70.9-21-112.2-37.1,56.9,75.7,61.2,216.6,68.5,307.1,2.2,27.5,2.7,54.3,5.7,81.8,2.6,23.2,31.8,115.9,20.4,135.6-16,27.8-27.9,17.8-59.3,3.6-204.1-92.7-275.6-312.5-432.8-456.2,14.8,67.8-48.7,154.9-84.5,207.3-39.5,58-106.9,88.2-164.4,125.7,13.1,33,68.5,46.6,100.6,62.9,71.3,36,136.9,70.8,211.6,99.7,84.6,32.8,167,89.9,255,109.5-186.3,117.7-291.8,327.6-411.1,503.5,36.3,41.5,115.1,7.2,160.3-5.2,64.6-17.7,134.9-31.9,197.1-57.2,60.4-24.5,121.4-67.7,175.2-105.2,36.4-25.3,61.2-64.7,97-88.5,29.9-19.9,28.6-17.5,66-3,71.6,27.8,154.5,73.2,229.1,83.7-16.3-77.2-79.2-152.6-121.6-219.9"/>
  <path class="st0" d="M488.6,397.7c-35.2-8.2-56.1-59.4-77.4-86.3-43.8-55.3-94.3-112.3-149.4-156.1C187.8,96.5,101.6,44.1,12,12.3-29.5-2.5-80.5-25.6-124.4-30.5c-46.6-5.2-67.7,29.9-109.6,44.4C-141.5,34.7-47,139.3,17.1,203.6c19.5,19.5,37.2,39.6,57.3,58.6,16.9,16,99.2,67.8,103.3,90.2,5.8,31.6-9.8,31.7-42.9,41.1-215.6,61.5-412.4-59.7-625.2-67.5,55.2,42.1,63.1,149.6,69.8,212.7,7.4,69.8-24.4,136.4-43.9,202.3,31.3,16.7,82.4-8.8,117.4-17.2,77.6-18.7,150.2-34.7,225.9-61,85.7-29.8,185.5-39.6,265.2-81.6-65.9,210.3-10.3,438.6,12.6,649.9,54.6,8.1,92.4-69.1,118.8-107.7,37.8-55.4,82.2-111.7,113.2-171.2,30.2-57.8,48.7-130.2,65.5-193.6,11.3-42.8,4.8-88.9,16.6-130.2,9.9-34.5,10.5-31.9,48.3-45,72.5-25.2,165.2-44.2,228.7-84.5-62.4-48.3-159.1-65-235.1-88.9"/>
  <path class="st0" d="M-178.7,2285.4c36.1,1.6,66.2,48,92,70.5,53.2,46.3,113.4,93,175.6,125.8,83.6,44.2,178,79.8,271.9,94.6,43.6,6.8,97.9,20.2,141.9,16.8,46.8-3.5,61-41.8,99.5-63.8-94.7-3.4-206.8-88.8-281.7-140.1-22.7-15.6-43.8-32.1-67.1-47-19.6-12.6-110-48.3-118.2-69.5-11.5-30,3.7-32.9,34.6-48.3,200.6-100.2,416.3-17.4,626.9-49-62-31.2-89.6-135.4-107.9-196.2-20.1-67.2-1.2-138.6,5.9-206.9-33.9-10.6-79.3,23.8-112.2,38.6-72.8,32.7-141.2,61.8-210.7,101.6-78.7,45.1-175,73.1-245.6,129.1,25.9-218.9-70.8-433-132.3-636.4-55.1,2.1-78,84.9-96.8,127.8-26.9,61.4-60.1,124.9-79.7,189.1-19,62.3-23.8,137-28.6,202.4-3.2,44.2,11.7,88.2,7.7,131.1-3.3,35.8-4.4,33.3-39.2,53.2-66.6,38.1-154.2,73.9-209.2,125.3,70.3,36,168.4,34.5,247.4,43.9"/>
  <path class="st0" d="M1067.5,1048.7c-27.4,23.6-81.1,10.3-115.3,11.6-70.5,2.8-146.3,9.9-214.1,28.6-91.2,25.1-184.3,63.7-262.9,117.3-36.4,24.9-85.2,52.4-115,85-31.7,34.6-15.8,72.3-28.8,114.6,71.3-62.3,211.5-77,301.2-90.9,27.2-4.2,53.9-6.7,81.1-11.7,22.9-4.2,113.2-40.2,133.7-30.3,28.9,13.9,19.8,26.6,7.9,58.9-77.5,210.4-291.4,297.8-423.2,465.1,66.6-19.8,158,37.3,212.9,69.1,60.7,35.2,95.8,100.1,137.4,154.8,31.9-15.5,41.5-71.7,55.3-104.9,30.7-73.7,60.6-141.7,84-218.4,26.5-86.8,77.5-173.2,90.5-262.3,131,177.2,348.2,267,532.3,373.1,38.8-39.3-1.3-115.3-17-159.4-22.4-63.2-41.7-132.2-71.5-192.4-28.9-58.4-76.4-116.1-117.8-167-27.9-34.4-69-56.3-95.4-90.2-22.1-28.4-19.6-27.2-7.9-65.6,22.4-73.4,61.7-159.5,66.6-234.6-75.8,21.9-146.3,90.2-210.4,137.4"/>
  <path class="st0" d="M1904.4,3011.6c-34.6,10.4-78.3-23.5-110.1-36.2-65.5-26.1-137.7-50.4-207.3-60.9-93.5-14.1-194.3-16.7-287.9.4-43.4,7.9-99.1,13.3-139.6,30.9-43,18.8-43.8,59.6-72.9,93.1,90.5-28,224.5,15.6,312.1,39.4,26.6,7.2,52,15.8,78.9,22.3,22.7,5.4,119.8,9.3,134.5,26.7,20.8,24.5,7.3,32.3-16.7,57-156.3,160.8-387.3,153.7-575.7,253,68.8,9,129.3,98.2,166.5,149.6,41.2,56.8,46.8,130.4,62.7,197.2,35.5-1.2,67-48.6,93.2-73.4,58-54.9,112.9-104.9,165.4-165.4,59.5-68.5,141.1-126.8,189.2-202.9,47.7,215.2,209.6,385.4,334.8,557.1,51.4-20.1,45.7-105.9,49.3-152.6,5.2-66.8,15.6-137.8,12.8-204.8-2.6-65.1-22.7-137.2-39.7-200.5-11.5-42.8-40.2-79.4-50.5-121.2-8.6-34.9-6.8-32.9,19.4-63.1,50.3-58,121.2-120.6,156.2-187.3-78.2-10.8-170.4,23-248.1,40.1"/>
  <path class="st0" d="M4677.6,3144.4c-42.7-30-62.2-90.6-102.7-126-43-37.6-93.8-69.6-141.3-101.3-80.2-53.6-188.2-116.3-286.5-121.1,31.9,43.3,62,88.1,95.9,130.6,31.6,39.7,93.9,96,101,145.4-85.2,26.4-185.2-37.2-269.4-44.8-43.3-3.9-96.3-2.7-138.7,5.1-24.2,4.5-46,16.5-70.9,18.8-14.8,54.5,10.3,116.5,17.5,170.3,5.6,41.8,11.5,83.4,17.2,125.3,10,72.3,10.8,143.7,90.4,85.5,81.1-59.2,168.3-133.3,270.9-147,51.1-6.8,131.8-10.2,182.8.6,6.8,95.7-43.5,186-76.2,272.1-29.6,77.9-50.2,158.5-80.8,236.3,133.6-.8,275.4-57.6,351.8-173.5,32.9-50,33.8-97.7,41.1-155,8.1-63,21-126.9,24.5-190.3,63.7-15.8,133.5-10.3,197.6-28.3-34.2-33.9-81.2-58.4-126.2-75.5-32.9-12.5-73-1.2-97.9-27.3"/>
  <path class="st0" d="M3725.7,2537.6c-52.2-1.3-102-40.9-155.3-48-56.6-7.5-116.6-5.9-173.8-6-96.4-.2-221.1,7.4-305.7,57.9,50.6,18.4,100.4,38.9,152.2,55.6,48.3,15.6,131.3,27.9,164.6,65.1-56.3,69.2-174.8,71.7-249.1,112-38.2,20.8-81.7,51.1-112.6,81.1-17.7,17.1-29.2,39.2-48.6,54.9,17.9,53.6,73.1,91.2,109,132.1,27.8,31.7,55.7,63.1,83.7,94.7,48.4,54.7,88.6,113.6,122.6,21.1,34.7-94.2,66.2-204.2,144.1-272.4,38.8-34,104-81.5,152.5-100.8,58.7,75.9,66.9,179,87.4,268.7,18.6,81.3,46,159.7,63.7,241.5,110.8-74.7,197.4-200.6,196.7-339.3-.3-59.8-26-100-51.7-151.9-28.2-56.9-52.9-117.3-85.1-172,44.3-48.5,105.4-82.5,148.8-133.1-47.2-9.3-99.9-3.6-146.9,7.1-34.3,7.8-61.5,39.5-96.7,31.5"/>
  <path class="st0" d="M3677.3,1141.9c-36.1,2.7-71.4-39.9-99.7-59.1-58.3-39.6-123.6-78.9-189.3-104.1-88.3-34-186.2-58.2-281.2-61.7-44.1-1.6-99.6-8.4-142.9.1-46,9-74.1,48.4-91.2,75.1,94.4-7.8,215.9,63.7,296.3,105.7,24.4,12.8,47.3,26.7,72.2,38.8,21,10.2,115,34.9,125.6,55,15,28.4.2,33.1-28.6,52.1-187.3,123.3-411.3,66.6-616.7,122.9,65.3,23.6,105.1,123.8,130.3,182,28,64.4,17.6,137.5,18.7,206.1,34.9,6.5,76-33,106.8-51.6,68.5-41.1,132.9-78.1,197.2-125.9,72.8-54.1,165.1-93.3,228.5-157.3.2,220.4,121.6,421.6,206.8,616.2,54.5-8.6,67.4-93.6,81-138.4,19.5-64.1,44.9-131.2,56.7-197.2,11.5-64.1,7.4-138.8,4.4-204.3-2-44.3-22.1-86.2-23.2-129.2-.9-35.9.4-33.6,32.6-57.4,61.7-45.7,144.3-91.7,192.9-149.2-74-27.4-171.3-14.3-250.9-14.3"/>
  <path class="st0" d="M4511.6,388.6c-36.1,2.7-71.4-39.9-99.7-59.1-58.3-39.6-123.6-78.9-189.3-104.1-88.3-34-186.2-58.2-281.2-61.7-44.1-1.6-99.6-8.4-142.9.1-46,9-55.6,48.8-91.2,75.1,94.4-7.8,215.9,63.7,296.3,105.7,24.4,12.8,47.3,26.7,72.2,38.8,21,10.2,115,34.9,125.6,55,15,28.4.2,33.1-28.6,52.1-187.3,123.3-411.3,66.6-616.7,122.9,65.3,23.6,105.1,123.8,130.3,182,28,64.4,17.6,137.5,18.7,206.1,34.9,6.5,76-33,106.8-51.6,68.5-41.1,132.9-78.1,197.2-125.9,72.8-54.1,165.1-93.3,228.5-157.3.2,220.4,121.6,421.6,206.8,616.2,54.5-8.6,67.4-93.6,81-138.4,19.5-64.1,44.9-131.2,56.7-197.2,11.5-64.1,7.4-138.8,4.4-204.3-2-44.3-22.1-86.2-23.2-129.2-.9-35.9.4-33.6,32.6-57.4,61.7-45.7,144.3-91.7,192.9-149.2-74-27.4-171.3-14.3-250.9-14.3"/>
  <path class="st0" d="M4623.3,2196.5c-21.5-29.1-4.3-81.6-3.2-115.8,2.4-70.5.8-146.6-12.8-215.7-18.3-92.8-50.1-188.5-97.7-270.8-22.1-38.2-46-88.8-76.3-120.9-32.2-34.1-70.9-21-112.2-37.1,56.9,75.7,61.2,216.6,68.5,307.1,2.2,27.5,2.7,54.3,5.7,81.8,2.6,23.2,31.8,115.9,20.4,135.6-16,27.8-27.9,17.8-59.3,3.6-204.1-92.7-275.6-312.5-432.8-456.2,14.8,67.8-48.7,154.9-84.5,207.3-39.5,58-106.9,88.2-164.4,125.7,13.1,33,68.5,46.6,100.6,62.9,71.3,36,136.9,70.8,211.6,99.7,84.6,32.8,167,89.9,255,109.5-186.3,117.7-291.8,327.6-411.1,503.5,36.3,41.5,115.1,7.2,160.3-5.2,64.6-17.7,134.9-31.9,197.1-57.2,60.4-24.5,121.4-67.7,175.2-105.2,36.4-25.3,61.2-64.7,97-88.5,29.9-19.9,28.6-17.5,66-3,71.6,27.8,154.5,73.2,229.1,83.7-16.3-77.2-79.2-152.6-121.6-219.9"/>
  <path class="st0" d="M2540,1013.4c-35.2-8.2-56.1-59.4-77.4-86.3-43.8-55.3-94.3-112.3-149.4-156.1-74-58.8-160.2-111.3-249.8-143.1-41.6-14.8-92.5-37.9-136.4-42.7-46.6-5.2-67.7,29.9-109.6,44.4,92.4,20.9,186.9,125.4,251,189.7,19.5,19.5,37.2,39.6,57.3,58.6,16.9,16,99.2,67.8,103.3,90.2,5.8,31.6-9.8,31.7-42.9,41.1-215.6,61.5-412.4-59.7-625.2-67.5,55.2,42.1,63.1,149.6,69.8,212.7,7.4,69.8-24.4,136.4-43.9,202.3,31.3,16.7,82.4-8.8,117.4-17.2,77.6-18.7,150.2-34.7,225.9-61,85.7-29.8,185.5-39.6,265.2-81.6-65.9,210.3-10.3,438.6,12.6,649.9,54.6,8.1,92.4-69.1,118.8-107.7,37.8-55.4,82.2-111.7,113.2-171.2,30.2-57.8,48.7-130.2,65.5-193.6,11.3-42.8,4.8-88.9,16.6-130.2,9.9-34.5,10.5-31.9,48.3-45,72.5-25.2,165.2-44.2,228.7-84.5-62.4-48.3-159.1-65-235.1-88.9"/>
  <path class="st0" d="M1872.7,2901.1c36.1,1.6,66.2,48,92,70.5,53.2,46.3,113.4,93,175.6,125.8,83.6,44.2,178,79.8,271.9,94.6,43.6,6.8,97.9,20.2,141.9,16.8,46.8-3.5,61-41.8,99.5-63.8-94.7-3.4-206.8-88.8-281.7-140.1-22.7-15.6-43.8-32.1-67.1-47-19.6-12.6-110-48.3-118.2-69.5-11.5-30,3.7-32.9,34.6-48.3,200.6-100.2,416.3-17.4,626.9-49-62-31.2-89.6-135.4-107.9-196.2-20.1-67.2-1.2-138.6,5.9-206.9-33.9-10.6-79.3,23.8-112.2,38.6-72.8,32.7-141.2,61.8-210.7,101.6-78.7,45.1-175,73.1-245.6,129.1,25.9-218.9-70.8-433-132.3-636.4-55.1,2.1-78,84.9-96.8,127.8-26.9,61.4-60.1,124.9-79.7,189.1-19,62.3-23.8,137-28.6,202.4-3.2,44.2,11.7,88.2,7.7,131.1-3.3,35.8-4.4,33.3-39.2,53.2-66.6,38.1-154.2,73.9-209.2,125.3,70.3,36,168.4,34.5,247.4,43.9"/>
  <path class="st0" d="M3118.9,1664.3c-27.4,23.6-81.1,10.3-115.3,11.6-70.5,2.8-146.3,9.9-214.1,28.6-91.2,25.1-184.3,63.7-262.9,117.3-36.4,24.9-85.2,52.4-115,85-31.7,34.6-15.8,72.3-28.8,114.6,71.3-62.3,211.5-77,301.2-90.9,27.2-4.2,53.9-6.7,81.1-11.7,22.9-4.2,113.2-40.2,133.7-30.3,28.9,13.9,19.8,26.6,7.9,58.9-77.5,210.4-291.4,297.8-423.2,465.1,66.6-19.8,158,37.3,212.9,69.1,60.7,35.2,95.8,100.1,137.4,154.8,31.9-15.5,41.5-71.7,55.3-104.9,30.7-73.7,60.6-141.7,84-218.4,26.5-86.8,77.5-173.2,90.5-262.3,131,177.2,348.2,267,532.3,373.1,38.8-39.3-1.3-115.3-17-159.4-22.4-63.2-41.7-132.2-71.5-192.4-28.9-58.4-76.4-116.1-117.8-167-27.9-34.4-69-56.3-95.4-90.2-22.1-28.4-19.6-27.2-7.9-65.6,22.4-73.4,61.7-159.5,66.6-234.6-75.8,21.9-146.3,90.2-210.4,137.4"/>
  <path class="st0" d="M2965.8-54.2c8.1,35.2-28.8,76.5-43.6,107.4-30.5,63.6-59.5,134-74.7,202.7-20.4,92.4-29.7,192.8-19,287.2,5,43.8,6.6,99.8,21.4,141.3,15.8,44.2,56.5,47.7,87.9,79-21.8-92.2,30.7-223,60.3-308.8,9-26.1,19.3-50.8,27.6-77.2,7-22.3,17.4-118.9,35.7-132.4,25.8-19.1,32.7-5.1,55.8,20.5,149.8,166.8,127.2,396.8,213.6,591.4,13.6-68.1,106.8-122.4,160.5-156,59.5-37.2,133.3-37.9,201-49.2,1.2-35.4-44-70.2-67-97.9-50.9-61.5-97-119.7-153.9-176.2-64.4-64-116.9-149.4-189.7-202.5,217.9-33.1,398.7-183.1,578.5-296.4-16.6-52.6-102.6-52.7-148.9-59.5-66.3-9.7-136.4-24.8-203.5-26.7-65.1-1.8-138.4,13.4-202.7,26.1-43.5,8.6-82,34.7-124.3,42.2-35.4,6.3-33.2,4.6-61.6-23.7-54.4-54.1-112.2-129-176.3-168.5-16,77.3,11.4,171.5,23.3,250.2"/>
</svg>