<?xml version="1.0" encoding="UTF-8"?>
<svg id="Capa_1" xmlns="http://www.w3.org/2000/svg" version="1.1" viewBox="0 0 4402 3028.2">
  <!-- Generator: Adobe Illustrator 29.3.1, SVG Export Plug-In . SVG Version: 2.1.0 Build 151)  -->
  <defs>
    <style>
      .st0 {
        fill: #ad86c0;
      }

      .st1 {
        fill: #e4e6e5;
      }
    </style>
  </defs>
  <g>
    <path class="st0" d="M607.4-118.5c-13.6-19.2-15-48.7-23.4-70.8-9.1-23.8-22.8-46-20.5-72.3,4.9-55.4,57-20.4,83.7-3.3,68.6,43.8,133.7-24.9,209-14,77.4,11.2-45.9,119.7-35.7,151.9,13.7,43.5,119.6,3.4,149.1-.9,56.1-8,89.5,4.9,135.9,36.8,35.6,24.6,45.5,63,55.2,102.9,14.4,58.7,13.8,141-1,199.5-9.1,36-18.6,75.1-19.3,111.1-1,47.3,18.9,96.7,25,143.1,10.1,77-11.2,149-24.5,224.3-13.2,74.9-59.7,130.6-129.2,161.9-32.4,14.6-66.2,23.1-101.1,27.7-52.5,7-104.3,18.4-157.4,18.3-47.8-.1-101.4,6.7-148.6-.3-48.9-7.2-98.9-30.1-143.1-50.7-69.6-32.4-143-75.9-183.8-142.8-27.6-45.3-27.6-98.1-27.7-149.9-.2-71.7,32.1-134.6,31.4-207.2-.5-49.8-21.3-95.8-31.8-143.9-14.8-68.1-32.8-163.6-.3-228.8,45.3-91.1,114.7-123.9,211.1-124,31.1,0,56.4,5.9,84.9,17.2,15.6,6.1,30.6,14.4,47.6,14.1"/>
    <path class="st1" d="M574-26.9c-37.5-51.4-139.4-61.9-194.4-36.8-78,35.6-71.3,143.3-68.9,215.6.5,15.8,4.1,102.3,28.2,108.2,18.6,4.6,26.6-30,35.4-41.4,17.4-22.6,43-43.4,68-57.4,47.1-26.4,65.6-39.1,86.9-88.3,13-29.9,32.3-70.6,44.9-99.9"/>
    <path class="st1" d="M865.5-36.3c61.4-31.9,129-53.3,196.7-25,89.5,37.5,71.7,157.7,54.1,231.9-6.1,25.9-3.6,73.7-34.3,68.2-23.2-4.2-78.8-59.6-94.9-79.7-21.2-26.5-32.2-61.3-46.2-91.5-17.2-37-36.7-61-62.8-91.4"/>
  </g>
  <g>
    <path class="st0" d="M1896.3,2096.4c-13.6-19.2-15-48.7-23.4-70.8-9.1-23.8-22.8-46-20.5-72.3,4.9-55.4,57-20.4,83.7-3.3,68.6,43.8,133.7-24.9,209-14,77.4,11.2-45.9,119.7-35.7,151.9,13.7,43.5,119.6,3.4,149.1-.9,56.1-8,89.5,4.9,135.9,36.8,35.6,24.6,45.5,63,55.2,102.9,14.4,58.7,13.8,141-1,199.5-9.1,36-18.6,75.1-19.3,111.1-1,47.3,18.9,96.7,25,143.1,10.1,77-11.2,149-24.5,224.3-13.2,74.9-59.7,130.6-129.2,161.9-32.4,14.6-66.2,23.1-101.1,27.7-52.5,7-104.3,18.4-157.4,18.3-47.8-.1-101.4,6.7-148.6-.3-48.9-7.2-98.9-30.1-143.1-50.7-69.6-32.4-143-75.9-183.8-142.8-27.6-45.3-27.6-98.1-27.7-149.9-.2-71.7,32.1-134.6,31.4-207.2-.5-49.8-21.3-95.8-31.8-143.9-14.8-68.1-32.8-163.6-.3-228.8,45.3-91.1,114.7-123.9,211.1-124,31.1,0,56.4,5.9,84.9,17.2,15.6,6.1,30.6,14.4,47.6,14.1"/>
    <path class="st1" d="M1862.9,2188.1c-37.5-51.4-139.4-61.9-194.4-36.8-78,35.6-71.3,143.3-68.9,215.6.5,15.8,4.1,102.3,28.2,108.2,18.6,4.6,26.6-30,35.4-41.4,17.4-22.6,43-43.4,68-57.4,47.1-26.4,65.6-39.1,86.9-88.3,13-29.9,32.3-70.6,44.9-99.9"/>
    <path class="st1" d="M2154.4,2178.7c61.4-31.9,129-53.3,196.7-25,89.5,37.5,71.7,157.7,54.1,231.9-6.1,25.9-3.6,73.7-34.3,68.2-23.2-4.2-78.8-59.6-94.9-79.7-21.2-26.5-32.2-61.3-46.2-91.5-17.2-37-36.7-61-62.8-91.4"/>
  </g>
  <g>
    <path class="st0" d="M-94.1,2759.4c-12.5-17.7-13.8-44.8-21.5-65-8.4-21.8-21-42.2-18.8-66.4,4.5-50.9,52.3-18.7,76.9-3.1,63,40.2,122.8-22.9,192-12.9,71.1,10.3-42.2,110-32.8,139.6,12.6,40,109.9,3.1,137-.8,51.6-7.4,82.3,4.5,124.9,33.9,32.7,22.6,41.8,57.9,50.8,94.5,13.2,53.9,12.7,129.6-.9,183.3-8.4,33.1-17,69-17.7,102.1-.9,43.4,17.4,88.9,23,131.5,9.3,70.7-10.3,136.9-22.5,206.1-12.1,68.8-54.8,120.1-118.7,148.8-29.8,13.4-60.8,21.2-92.9,25.5-48.3,6.4-95.9,16.9-144.6,16.8-43.9,0-93.2,6.1-136.6-.3-44.9-6.6-90.8-27.7-131.5-46.6-64-29.7-131.4-69.7-168.9-131.2-25.4-41.6-25.3-90.2-25.4-137.7-.1-65.9,29.5-123.7,28.8-190.4-.4-45.7-19.6-88.1-29.2-132.2-13.6-62.6-30.1-150.3-.3-210.2,41.7-83.8,105.4-113.8,194-113.9,28.5,0,51.8,5.5,78,15.8,14.3,5.6,28.1,13.2,43.7,12.9"/>
    <path class="st1" d="M-124.9,2843.6c-34.5-47.3-128.1-56.9-178.7-33.8-71.6,32.7-65.5,131.7-63.3,198.2.5,14.5,3.8,94,25.9,99.4,17.1,4.2,24.4-27.6,32.5-38.1,16-20.8,39.5-39.9,62.5-52.8,43.3-24.2,60.3-36,79.9-81.1,11.9-27.5,29.7-64.9,41.2-91.8"/>
    <path class="st1" d="M143.1,2835c56.4-29.3,118.6-49,180.7-22.9,82.3,34.4,65.9,145,49.7,213.1-5.6,23.8-3.3,67.7-31.6,62.6-21.3-3.8-72.4-54.8-87.2-73.2-19.5-24.3-29.5-56.4-42.4-84.1-15.8-34-33.7-56-57.7-84"/>
  </g>
  <g>
    <path class="st0" d="M1653.3,803.5c12.6-17.9,13.9-45.3,21.8-65.9,8.5-22.1,21.2-42.8,19-67.3-4.6-51.6-53-19-77.9-3.1-63.8,40.7-124.4-23.2-194.5-13-72,10.4,42.7,111.4,33.3,141.4-12.8,40.5-111.3,3.1-138.8-.8-52.3-7.5-83.3,4.5-126.5,34.3-33.2,22.9-42.3,58.6-51.4,95.8-13.4,54.6-12.8,131.2.9,185.7,8.5,33.5,17.3,69.9,17.9,103.4.9,44-17.6,90-23.3,133.2-9.4,71.7,10.4,138.7,22.8,208.8,12.3,69.7,55.5,121.6,120.2,150.7,30.2,13.6,61.6,21.5,94.1,25.8,48.9,6.5,97.1,17.1,146.5,17,44.5,0,94.4,6.2,138.3-.3,45.5-6.7,92-28.1,133.2-47.2,64.8-30.1,133.1-70.6,171.1-132.9,25.7-42.1,25.7-91.3,25.8-139.5.1-66.8-29.8-125.3-29.2-192.9.4-46.3,19.9-89.2,29.6-134,13.8-63.4,30.5-152.3.3-213-42.2-84.8-106.8-115.3-196.5-115.4-28.9,0-52.5,5.5-79,16-14.5,5.7-28.5,13.4-44.3,13.1"/>
    <path class="st1" d="M1684.4,888.8c34.9-47.9,129.8-57.6,181-34.2,72.6,33.1,66.4,133.4,64.1,200.7-.5,14.7-3.9,95.2-26.3,100.7-17.3,4.3-24.7-28-32.9-38.6-16.2-21.1-40-40.4-63.3-53.4-43.8-24.6-61.1-36.4-80.9-82.2-12.1-27.9-30-65.8-41.8-93"/>
    <path class="st1" d="M1413,880.1c-57.1-29.7-120.1-49.6-183.1-23.2-83.3,34.9-66.7,146.8-50.3,215.9,5.7,24.1,3.3,68.6,32,63.4,21.6-3.9,73.3-55.5,88.3-74.2,19.7-24.6,29.9-57.1,43-85.2,16-34.4,34.1-56.7,58.4-85.1"/>
  </g>
  <path class="st0" d="M1522.8-229.4c27.2-9.7,38.3-4.5,67.4-5.8,40.3-1.7,79.7-14.6,120-16.2,37-1.4,74.2.8,111.2,0,12.7,23.7,7.2,62.9,7.2,88.7,0,14.7-1.6,29.4-1.6,44,29.4,17.3,61.2,27.9,89.6,48,26.9,19.1,51.9,40.6,70.6,68.3,43.8,64.7,55.2,144.3,33.7,218.9-15.1,52.2-37,127.7-92.1,150.9-21,8.9-42.7,12.7-65,16.6-9,1.6-34.7,1.3-42.7,6.9-8.9,6.2-3.5,39.4-3.5,52s2.1,26.8,0,39c-2.1,12.2-3.1,11.9-15.1,17.9-40.4,20.5-86.2,18.7-130.3,18.7s-110.4,8.1-159.9-4.8c9.3-18.9,2.3-54.6,2.3-76.1s4.1-30,0-36.3c-3.1-4.9-17.5-6.1-23.1-8.3-10.9-4.3-21.7-11-31.4-17.5-19.9-13.3-35-31.2-48.1-51.4-27.5-42.4-44.5-98.1-46.3-148.7-1.8-52.1,7.2-99.6,30.2-146.9,19-39.2,51.3-76.2,87-100.6,10-6.8,21.9-12.2,31.4-19.2,13.3-9.8,11.3-14.5,11.3-33.1,0-22.7,1.1-45.7,0-68.4-.6-12.3-4.2-24.5-2.8-36.7"/>
  <path class="st0" d="M949.7,3703.3c-27.2,9.7-38.3,4.5-67.4,5.8-40.3,1.7-79.7,14.6-120,16.2-37,1.4-74.2-.8-111.2,0-12.7-23.7-7.2-62.9-7.2-88.7,0-14.7,1.6-29.4,1.6-44-29.4-17.3-61.2-27.9-89.6-48-26.9-19.1-51.9-40.6-70.6-68.3-43.8-64.7-55.2-144.3-33.7-218.9,15.1-52.2,37-127.7,92.1-150.9,21-8.9,42.7-12.7,65-16.6,9-1.6,34.7-1.3,42.7-6.9,8.9-6.2,3.5-39.4,3.5-52s-2.1-26.8,0-39c2.1-12.2,3.1-11.9,15.1-17.9,40.4-20.5,86.2-18.7,130.3-18.7s110.4-8.1,159.9,4.8c-9.3,18.9-2.3,54.6-2.3,76.1s-4.1,30,0,36.3c3.1,4.9,17.5,6.1,23.1,8.3,10.9,4.3,21.7,11,31.4,17.5,19.9,13.3,35,31.2,48.1,51.4,27.5,42.4,44.5,98.1,46.3,148.7,1.8,52.1-7.2,99.6-30.2,146.9-19,39.2-51.3,76.2-87,100.6-10,6.8-21.9,12.2-31.4,19.2-13.3,9.8-11.3,14.5-11.3,33.1,0,22.7-1.1,45.7,0,68.4.6,12.3,4.2,24.5,2.8,36.7"/>
  <path class="st0" d="M266.3,2112.1c27.1-9.7,38.2-4.5,67.3-5.8,40.3-1.7,79.5-14.6,119.8-16.2,36.9-1.4,74,.8,111,0,12.7,23.6,7.2,62.8,7.2,88.6,0,14.7-1.6,29.3-1.6,43.9,29.3,17.3,61.1,27.9,89.4,48,26.9,19.1,51.8,40.6,70.5,68.2,43.7,64.6,55.1,144.1,33.7,218.6-15,52.1-36.9,127.5-91.9,150.7-21,8.9-42.7,12.7-64.9,16.5-9,1.6-34.7,1.3-42.6,6.9-8.8,6.2-3.5,39.4-3.5,51.9s2.1,26.8,0,39c-2.1,12.2-3.1,11.9-15,17.9-40.3,20.5-86,18.7-130.2,18.7s-110.2,8.1-159.6-4.8c9.3-18.9,2.3-54.6,2.3-76s4-29.9,0-36.2c-3.1-4.9-17.5-6.1-23.1-8.3-10.8-4.3-21.7-11-31.3-17.5-19.9-13.3-35-31.1-48-51.3-27.4-42.4-44.5-98-46.2-148.5-1.8-52,7.2-99.4,30.1-146.7,19-39.1,51.3-76.1,86.9-100.4,10-6.8,21.9-12.2,31.3-19.2,13.2-9.8,11.3-14.4,11.3-33.1,0-22.7,1.1-45.7,0-68.3-.6-12.2-4.2-24.5-2.8-36.6"/>
  <path class="st0" d="M797.7,887.9c-36.2-12.9-51-6-89.9-7.7-53.7-2.3-106.2-19.5-159.9-21.6-49.3-1.9-98.9,1-148.2-.1-16.9,31.6-9.6,83.8-9.6,118.3,0,19.6,2.1,39.2,2.2,58.6-39.2,23.1-81.6,37.2-119.4,64.1-35.9,25.5-69.2,54.2-94.1,91-58.4,86.2-73.6,192.3-44.9,291.8,20.1,69.6,49.3,170.2,122.7,201.2,28,11.8,57,16.9,86.6,22.1,12,2.1,46.3,1.7,56.9,9.2,11.8,8.3,4.7,52.6,4.7,69.3,0,16.7-2.8,35.8,0,52,2.8,16.3,4.2,15.8,20.1,23.9,53.9,27.3,114.9,25,173.8,25,68,0,147.1,10.8,213.1-6.4-12.4-25.3-3.1-72.8-3.1-101.4,0-9.4-5.4-40-.1-48.4,4.1-6.5,23.3-8.1,30.8-11.1,14.5-5.8,28.9-14.7,41.8-23.3,26.5-17.8,46.7-41.5,64.1-68.5,36.6-56.6,59.4-130.8,61.7-198.2,2.4-69.5-9.6-132.7-40.2-195.8-25.3-52.2-68.4-101.6-116-134.1-13.4-9.1-29.2-16.3-41.8-25.6-17.7-13-15.1-19.3-15-44.2,0-30.3-1.5-61,0-91.2.8-16.3,5.6-32.6,3.7-48.9"/>
  <path class="st0" d="M-297.4-212.2c21.7-.4,34.4,7.3,54.8,14,32.5,10.6,70.9,13.6,105,16.6,38.1,3.4,102.9,12.2,138.9-3.1C4.2-127.2,12.3-56,0,0c55.5,11.3,124.3,35.2,152.2,86.8,46.8,86.8,43.1,206.5,46.9,301.8,3.7,92.6,10.8,186.4-30.2,272.4-29.6,62-72.1,108-136.8,130.6-77.3,27-163.8,30.4-245.7,23.3-48.5-4.2-95.7-40.5-116-83.9-20.4-43.7-25.4-88.7-38.6-134.4-15.6-54.2-27.3-117.5-29.1-173.8-2.8-88.2,6.6-171.4,34.6-255.4,7.5-22.6,18.7-50,32.6-69.5,12-16.7,30.9-23.3,44.3-37.2,21.1-21.8,16.7-52,13.4-81.8-4.1-36.8-10.6-72.8-13.6-110-1.6-20.2.3-50.8-6.9-69.7"/>
  <path class="st0" d="M1290.1,2633c21.7-.4,34.4,7.3,54.8,14,32.5,10.6,70.9,13.6,105,16.6,38.1,3.4,102.9,12.2,138.9-3.1,2.9,57.6,11,128.7-1.2,184.7,55.5,11.3,124.3,35.2,152.2,86.8,46.8,86.8,43.1,206.5,46.9,301.8,3.7,92.6,10.8,186.4-30.2,272.4-29.6,62-72.1,108-136.8,130.6-77.3,27-163.8,30.4-245.7,23.3-48.5-4.2-95.7-40.5-116-83.9-20.4-43.7-25.4-88.7-38.6-134.4-15.6-54.2-27.3-117.5-29.1-173.8-2.8-88.2,6.6-171.4,34.6-255.4,7.5-22.6,18.7-50,32.6-69.5,12-16.7,30.9-23.3,44.3-37.2,21.1-21.8,16.7-52,13.4-81.8-4.1-36.8-10.6-72.8-13.6-110-1.6-20.2.3-50.8-6.9-69.7"/>
  <path class="st0" d="M913.7,1789.1c21.7-.4,34.4,7.3,54.8,14,32.5,10.6,70.9,13.6,105,16.6,38.1,3.4,102.9,12.2,138.9-3.1,2.9,57.6,11,128.7-1.2,184.7,55.5,11.3,124.3,35.2,152.2,86.8,46.8,86.8,43.1,206.5,46.9,301.8,3.7,92.6,10.8,186.4-30.2,272.4-29.6,62-72.1,108-136.8,130.6-77.3,27-163.8,30.4-245.7,23.3-48.5-4.2-95.7-40.5-116-83.9-20.4-43.7-25.4-88.7-38.6-134.4-15.6-54.2-27.3-117.5-29.1-173.8-2.8-88.2,6.6-171.4,34.6-255.4,7.5-22.6,18.7-50,32.6-69.5,12-16.7,30.9-23.3,44.3-37.2,21.1-21.8,16.7-52,13.4-81.8-4.1-36.8-10.6-72.8-13.6-110-1.6-20.2.3-50.8-6.9-69.7"/>
  <path class="st0" d="M19.5,1315.6c-21.7,1.1-33.8,9.5-53.7,17.5-31.7,12.7-69.9,18.2-103.7,23.4-37.8,5.9-101.9,18.8-138.8,5.9.8,57.6-2.6,129.2,13.3,184.3-54.6,14.9-121.8,43.2-146.2,96.6-41,89.7-29.5,208.9-27.1,304.3,2.4,92.6,1.4,186.7,47.9,269.9,33.5,60,79,103.1,145,121.4,78.9,21.9,165.5,19.6,246.7,7.2,48.1-7.4,92.9-46.7,110.3-91.3,17.5-44.9,19.6-90.2,29.7-136.6,12.1-55.1,19.6-119,17.7-175.3-3-88.2-17.7-170.7-51.2-252.6-9-22-21.9-48.6-37.1-67.2-13-15.9-32.3-21.3-46.6-34.2-22.5-20.4-20-50.8-18.7-80.8,1.7-37,5.8-73.3,6.4-110.6.3-20.3-3.6-50.6,2.3-70"/>
  <g>
    <path class="st0" d="M3201.8-749.2c-13.6-19.2-15-48.7-23.4-70.8-9.1-23.8-22.8-46-20.5-72.3,4.9-55.4,57-20.4,83.7-3.3,68.6,43.8,133.7-24.9,209-14,77.4,11.2-45.9,119.7-35.7,151.9,13.7,43.5,119.6,3.4,149.1-.9,56.1-8,89.5,4.9,135.9,36.8,35.6,24.6,45.5,63,55.2,102.9,14.4,58.7,13.8,141-1,199.5-9.1,36-18.6,75.1-19.3,111.1-1,47.3,18.9,96.7,25,143.1,10.1,77-11.2,149-24.5,224.3-13.2,74.9-59.7,130.6-129.2,161.9-32.4,14.6-66.2,23.1-101.1,27.7-52.5,7-104.3,18.4-157.4,18.3-47.8-.1-101.4,6.7-148.6-.3-48.9-7.2-98.9-30.1-143.1-50.7-69.6-32.4-143-75.9-183.8-142.8-27.6-45.3-27.6-98.1-27.7-149.9-.2-71.7,32.1-134.6,31.4-207.2-.5-49.8-21.3-95.8-31.8-143.9-14.8-68.1-32.8-163.6-.3-228.8,45.3-91.1,114.7-123.9,211.1-124,31.1,0,56.4,5.9,84.9,17.2,15.6,6.1,30.6,14.4,47.6,14.1"/>
    <path class="st1" d="M3168.4-657.5c-37.5-51.4-139.4-61.9-194.4-36.8-78,35.6-71.3,143.3-68.9,215.6.5,15.8,4.1,102.3,28.2,108.2,18.6,4.6,26.6-30,35.4-41.4,17.4-22.6,43-43.4,68-57.4,47.1-26.4,65.6-39.1,86.9-88.3,13-29.9,32.3-70.6,44.9-99.9"/>
    <path class="st1" d="M3460-666.9c61.4-31.9,129-53.3,196.7-25,89.5,37.5,71.7,157.7,54.1,231.9-6.1,25.9-3.6,73.7-34.3,68.2-23.2-4.2-78.8-59.6-94.9-79.7-21.2-26.5-32.2-61.3-46.2-91.5-17.2-37-36.7-61-62.8-91.4"/>
  </g>
  <g>
    <path class="st0" d="M4490.7,1465.8c-13.6-19.2-15-48.7-23.4-70.8-9.1-23.8-22.8-46-20.5-72.3,4.9-55.4,57-20.4,83.7-3.3,68.6,43.8,133.7-24.9,209-14,77.4,11.2-45.9,119.7-35.7,151.9,13.7,43.5,119.6,3.4,149.1-.9,56.1-8,89.5,4.9,135.9,36.8,35.6,24.6,45.5,63,55.2,102.9,14.4,58.7,13.8,141-1,199.5-9.1,36-18.6,75.1-19.3,111.1-1,47.3,18.9,96.7,25,143.1,10.1,77-11.2,149-24.5,224.3-13.2,74.9-59.7,130.6-129.2,161.9-32.4,14.6-66.2,23.1-101.1,27.7-52.5,7-104.3,18.4-157.4,18.3-47.8-.1-101.4,6.7-148.6-.3-48.9-7.2-98.9-30.1-143.1-50.7-69.6-32.4-143-75.9-183.8-142.8-27.6-45.3-27.6-98.1-27.7-149.9-.2-71.7,32.1-134.6,31.4-207.2-.5-49.8-21.3-95.8-31.8-143.9-14.8-68.1-32.8-163.6-.3-228.8,45.3-91.1,114.7-123.9,211.1-124,31.1,0,56.4,5.9,84.9,17.2,15.6,6.1,30.6,14.4,47.6,14.1"/>
    <path class="st1" d="M4457.3,1557.4c-37.5-51.4-139.4-61.9-194.4-36.8-78,35.6-71.3,143.3-68.9,215.6.5,15.8,4.1,102.3,28.2,108.2,18.6,4.6,26.6-30,35.4-41.4,17.4-22.6,43-43.4,68-57.4,47.1-26.4,65.6-39.1,86.9-88.3,13-29.9,32.3-70.6,44.9-99.9"/>
    <path class="st1" d="M4748.8,1548c61.4-31.9,129-53.3,196.7-25,89.5,37.5,71.7,157.7,54.1,231.9-6.1,25.9-3.6,73.7-34.3,68.2-23.2-4.2-78.8-59.6-94.9-79.7-21.2-26.5-32.2-61.3-46.2-91.5-17.2-37-36.7-61-62.8-91.4"/>
  </g>
  <g>
    <path class="st0" d="M3548.9,2489.6c-12.5-17.7-13.8-44.8-21.5-65-8.4-21.8-21-42.2-18.8-66.4,4.5-50.9,52.3-18.7,76.9-3.1,63,40.2,122.8-22.9,192-12.9,71.1,10.3-42.2,110-32.8,139.6,12.6,40,109.9,3.1,137-.8,51.6-7.4,82.3,4.5,124.9,33.9,32.7,22.6,41.8,57.9,50.8,94.5,13.2,53.9,12.7,129.6-.9,183.3-8.4,33.1-17,69-17.7,102.1-.9,43.4,17.4,88.9,23,131.5,9.3,70.7-10.3,136.9-22.5,206.1-12.1,68.8-54.8,120.1-118.7,148.8-29.8,13.4-60.8,21.2-92.9,25.5-48.3,6.4-95.9,16.9-144.6,16.8-43.9,0-93.2,6.1-136.6-.3-44.9-6.6-90.8-27.7-131.5-46.6-64-29.7-131.4-69.7-168.9-131.2-25.4-41.6-25.3-90.2-25.4-137.7-.1-65.9,29.5-123.7,28.8-190.4-.4-45.7-19.6-88.1-29.2-132.2-13.6-62.6-30.1-150.3-.3-210.2,41.7-83.8,105.4-113.8,194-113.9,28.5,0,51.8,5.5,78,15.8,14.3,5.6,28.1,13.2,43.7,12.9"/>
    <path class="st1" d="M3518.2,2573.8c-34.5-47.3-128.1-56.9-178.7-33.8-71.6,32.7-65.5,131.7-63.3,198.2.5,14.5,3.8,94,25.9,99.4,17.1,4.2,24.4-27.6,32.5-38.1,16-20.8,39.5-39.9,62.5-52.8,43.3-24.2,60.3-36,79.9-81.1,11.9-27.5,29.7-64.9,41.2-91.8"/>
    <path class="st1" d="M3786.1,2565.2c56.4-29.3,118.6-49,180.7-22.9,82.3,34.4,65.9,145,49.7,213.1-5.6,23.8-3.3,67.7-31.6,62.6-21.3-3.8-72.4-54.8-87.2-73.2-19.5-24.3-29.5-56.4-42.4-84.1-15.8-34-33.7-56-57.7-84"/>
  </g>
  <g>
    <path class="st0" d="M4247.7,172.8c12.6-17.9,13.9-45.3,21.8-65.9,8.5-22.1,21.2-42.8,19-67.3-4.6-51.6-53-19-77.9-3.1-63.8,40.7-124.4-23.2-194.5-13-72,10.4,42.7,111.4,33.3,141.4-12.8,40.5-111.3,3.1-138.8-.8-52.3-7.5-83.3,4.5-126.5,34.3-33.2,22.9-42.3,58.6-51.4,95.8-13.4,54.6-12.8,131.2.9,185.7,8.5,33.5,17.3,69.9,17.9,103.4.9,44-17.6,90-23.3,133.2-9.4,71.7,10.4,138.7,22.8,208.8,12.3,69.7,55.5,121.6,120.2,150.7,30.2,13.6,61.6,21.5,94.1,25.8,48.9,6.5,97.1,17.1,146.5,17,44.5,0,94.4,6.2,138.3-.3,45.5-6.7,92-28.1,133.2-47.2,64.8-30.1,133.1-70.6,171.1-132.9,25.7-42.1,25.7-91.3,25.8-139.5.1-66.8-29.8-125.3-29.2-192.9.4-46.3,19.9-89.2,29.6-134,13.8-63.4,30.5-152.3.3-213-42.2-84.8-106.8-115.3-196.5-115.4-28.9,0-52.5,5.5-79,16-14.5,5.7-28.5,13.4-44.3,13.1"/>
    <path class="st1" d="M4278.8,258.1c34.9-47.9,129.8-57.6,181-34.2,72.6,33.1,66.4,133.4,64.1,200.7-.5,14.7-3.9,95.2-26.3,100.7-17.3,4.3-24.7-28-32.9-38.6-16.2-21.1-40-40.4-63.3-53.4-43.8-24.6-61.1-36.4-80.9-82.2-12.1-27.9-30-65.8-41.8-93"/>
    <path class="st1" d="M4007.4,249.4c-57.1-29.7-120.1-49.6-183.1-23.2-83.3,34.9-66.7,146.8-50.3,215.9,5.7,24.1,3.3,68.6,32,63.4,21.6-3.9,73.3-55.5,88.3-74.2,19.7-24.6,29.9-57.1,43-85.2,16-34.4,34.1-56.7,58.4-85.1"/>
  </g>
  <path class="st0" d="M4117.2-860.1c27.2-9.7,38.3-4.5,67.4-5.8,40.3-1.7,79.7-14.6,120-16.2,37-1.4,74.2.8,111.2,0,12.7,23.7,7.2,62.9,7.2,88.7,0,14.7-1.6,29.4-1.6,44,29.4,17.3,61.2,27.9,89.6,48,26.9,19.1,51.9,40.6,70.6,68.3,43.8,64.7,55.2,144.3,33.7,218.9-15.1,52.2-37,127.7-92.1,150.9-21,8.9-42.7,12.7-65,16.6-9,1.6-34.7,1.3-42.7,6.9-8.9,6.2-3.5,39.4-3.5,52s2.1,26.8,0,39c-2.1,12.2-3.1,11.9-15.1,17.9-40.4,20.5-86.2,18.7-130.3,18.7s-110.4,8.1-159.9-4.8c9.3-18.9,2.3-54.6,2.3-76.1s4.1-30,0-36.3c-3.1-4.9-17.5-6.1-23.1-8.3-10.9-4.3-21.7-11-31.4-17.5-19.9-13.3-35-31.2-48.1-51.4-27.5-42.4-44.5-98.1-46.3-148.7-1.8-52.1,7.2-99.6,30.2-146.9,19-39.2,51.3-76.2,87-100.6,10-6.8,21.9-12.2,31.4-19.2,13.3-9.8,11.3-14.5,11.3-33.1,0-22.7,1.1-45.7,0-68.4-.6-12.3-4.2-24.5-2.8-36.7"/>
  <path class="st0" d="M3005.1,3145.1c-27.2,9.7-38.3,4.5-67.4,5.8-40.3,1.7-79.7,14.6-120,16.2-37,1.4-74.2-.8-111.2,0-12.7-23.7-7.2-62.9-7.2-88.7,0-14.7,1.6-29.4,1.6-44-29.4-17.3-61.2-27.9-89.6-48-26.9-19.1-51.9-40.6-70.6-68.3-43.8-64.7-55.2-144.3-33.7-218.9,15.1-52.2,37-127.7,92.1-150.9,21-8.9,42.7-12.7,65-16.6,9-1.6,34.7-1.3,42.7-6.9,8.9-6.2,3.5-39.4,3.5-52s-2.1-26.8,0-39c2.1-12.2,3.1-11.9,15.1-17.9,40.4-20.5,86.2-18.7,130.3-18.7s110.4-8.1,159.9,4.8c-9.3,18.9-2.3,54.6-2.3,76.1s-4.1,30,0,36.3c3.1,4.9,17.5,6.1,23.1,8.3,10.9,4.3,21.7,11,31.4,17.5,19.9,13.3,35,31.2,48.1,51.4,27.5,42.4,44.5,98.1,46.3,148.7,1.8,52.1-7.2,99.6-30.2,146.9-19,39.2-51.3,76.2-87,100.6-10,6.8-21.9,12.2-31.4,19.2-13.3,9.8-11.3,14.5-11.3,33.1,0,22.7-1.1,45.7,0,68.4.6,12.3,4.2,24.5,2.8,36.7"/>
  <path class="st0" d="M2860.7,1481.4c27.1-9.7,38.2-4.5,67.3-5.8,40.3-1.7,79.5-14.6,119.8-16.2,36.9-1.4,74,.8,111,0,12.7,23.6,7.2,62.8,7.2,88.6,0,14.7-1.6,29.3-1.6,43.9,29.3,17.3,61.1,27.9,89.4,48,26.9,19.1,51.8,40.6,70.5,68.2,43.7,64.6,55.1,144.1,33.7,218.6-15,52.1-36.9,127.5-91.9,150.7-21,8.9-42.7,12.7-64.9,16.5-9,1.6-34.7,1.3-42.6,6.9-8.8,6.2-3.5,39.4-3.5,51.9s2.1,26.8,0,39c-2.1,12.2-3.1,11.9-15,17.9-40.3,20.5-86,18.7-130.2,18.7s-110.2,8.1-159.6-4.8c9.3-18.9,2.3-54.6,2.3-76s4-29.9,0-36.2c-3.1-4.9-17.5-6.1-23.1-8.3-10.8-4.3-21.7-11-31.3-17.5-19.9-13.3-35-31.1-48-51.3-27.4-42.4-44.5-98-46.2-148.5-1.8-52,7.2-99.4,30.1-146.7,19-39.1,51.3-76.1,86.9-100.4,10-6.8,21.9-12.2,31.3-19.2,13.2-9.8,11.3-14.4,11.3-33.1,0-22.7,1.1-45.7,0-68.3-.6-12.2-4.2-24.5-2.8-36.6"/>
  <path class="st0" d="M3392.1,257.3c-36.2-12.9-51-6-89.9-7.7-53.7-2.3-106.2-19.5-159.9-21.6-49.3-1.9-98.9,1-148.2-.1-16.9,31.6-9.6,83.8-9.6,118.3,0,19.6,2.1,39.2,2.2,58.6-39.2,23.1-81.6,37.2-119.4,64.1-35.9,25.5-69.2,54.2-94.1,91-58.4,86.2-73.6,192.3-44.9,291.8,20.1,69.6,49.3,170.2,122.7,201.2,28,11.8,57,16.9,86.6,22.1,12,2.1,46.3,1.7,56.9,9.2,11.8,8.3,4.7,52.6,4.7,69.3,0,16.7-2.8,35.8,0,52,2.8,16.3,4.2,15.8,20.1,23.9,53.9,27.3,114.9,25,173.8,25,68,0,147.1,10.8,213.1-6.4-12.4-25.3-3.1-72.8-3.1-101.4,0-9.4-5.4-40-.1-48.4,4.1-6.5,23.3-8.1,30.8-11.1,14.5-5.8,28.9-14.7,41.8-23.3,26.5-17.8,46.7-41.5,64.1-68.5,36.6-56.6,59.4-130.8,61.7-198.2,2.4-69.5-9.6-132.7-40.2-195.8-25.3-52.2-68.4-101.6-116-134.1-13.4-9.1-29.2-16.3-41.8-25.6-17.7-13-15.1-19.3-15-44.2,0-30.3-1.5-61,0-91.2.8-16.3,5.6-32.6,3.7-48.9"/>
  <path class="st0" d="M2220-452.1c21.7-.4,34.4,7.3,54.8,14,32.5,10.6,70.9,13.6,105,16.6,38.1,3.4,102.9,12.2,138.9-3.1,2.9,57.6,11,128.7-1.2,184.7,55.5,11.3,124.3,35.2,152.2,86.8,46.8,86.8,43.1,206.5,46.9,301.8,3.7,92.6,10.8,186.4-30.2,272.4-29.6,62-72.1,108-136.8,130.6-77.3,27-163.8,30.4-245.7,23.3-48.5-4.2-95.7-40.5-116-83.9-20.4-43.7-25.4-88.7-38.6-134.4-15.6-54.2-27.3-117.5-29.1-173.8-2.8-88.2,6.6-171.4,34.6-255.4,7.5-22.6,18.7-50,32.6-69.5,12-16.7,30.9-23.3,44.3-37.2,21.1-21.8,16.7-52,13.4-81.8-4.1-36.8-10.6-72.8-13.6-110-1.6-20.2.3-50.8-6.9-69.7"/>
  <path class="st0" d="M4096.1,2310.5c21.7-.4,34.4,7.3,54.8,14,32.5,10.6,70.9,13.6,105,16.6,38.1,3.4,102.9,12.2,138.9-3.1,2.9,57.6,11,128.7-1.2,184.7,55.5,11.3,124.3,35.2,152.2,86.8,46.8,86.8,43.1,206.5,46.9,301.8,3.7,92.6,10.8,186.4-30.2,272.4-29.6,62-72.1,108-136.8,130.6-77.3,27-163.8,30.4-245.7,23.3-48.5-4.2-95.7-40.5-116-83.9-20.4-43.7-25.4-88.7-38.6-134.4-15.6-54.2-27.3-117.5-29.1-173.8-2.8-88.2,6.6-171.4,34.6-255.4,7.5-22.6,18.7-50,32.6-69.5,12-16.7,30.9-23.3,44.3-37.2,21.1-21.8,16.7-52,13.4-81.8-4.1-36.8-10.6-72.8-13.6-110-1.6-20.2.3-50.8-6.9-69.7"/>
  <path class="st0" d="M3508.1,1158.4c21.7-.4,34.4,7.3,54.8,14,32.5,10.6,70.9,13.6,105,16.6,38.1,3.4,102.9,12.2,138.9-3.1,2.9,57.6,11,128.7-1.2,184.7,55.5,11.3,124.3,35.2,152.2,86.8,46.8,86.8,43.1,206.5,46.9,301.8,3.7,92.6,10.8,186.4-30.2,272.4-29.6,62-72.1,108-136.8,130.6-77.3,27-163.8,30.4-245.7,23.3-48.5-4.2-95.7-40.5-116-83.9-20.4-43.7-25.4-88.7-38.6-134.4-15.6-54.2-27.3-117.5-29.1-173.8-2.8-88.2,6.6-171.4,34.6-255.4,7.5-22.6,18.7-50,32.6-69.5,12-16.7,30.9-23.3,44.3-37.2,21.1-21.8,16.7-52,13.4-81.8-4.1-36.8-10.6-72.8-13.6-110-1.6-20.2.3-50.8-6.9-69.7"/>
  <path class="st0" d="M2614,685c-21.7,1.1-33.8,9.5-53.7,17.5-31.7,12.7-69.9,18.2-103.7,23.4-37.8,5.9-101.9,18.8-138.8,5.9.8,57.6-2.6,129.2,13.3,184.3-54.6,14.9-121.8,43.2-146.2,96.6-41,89.7-29.5,208.9-27.1,304.3,2.4,92.6,1.4,186.7,47.9,269.9,33.5,60,79,103.1,145,121.4,78.9,21.9,165.5,19.6,246.7,7.2,48.1-7.4,92.9-46.7,110.3-91.3,17.5-44.9,19.6-90.2,29.7-136.6,12.1-55.1,19.6-119,17.7-175.3-3-88.2-17.7-170.7-51.2-252.6-9-22-21.9-48.6-37.1-67.2-13-15.9-32.3-21.3-46.6-34.2-22.5-20.4-20-50.8-18.7-80.8,1.7-37,5.8-73.3,6.4-110.6.3-20.3-3.6-50.6,2.3-70"/>
</svg>