<?xml version="1.0" encoding="UTF-8"?>
<svg id="Capa_1" xmlns="http://www.w3.org/2000/svg" version="1.1" viewBox="0 0 4402 3028.2">
  <!-- Generator: Adobe Illustrator 29.3.1, SVG Export Plug-In . SVG Version: 2.1.0 Build 151)  -->
  <defs>
    <style>
      .st0 {
        fill: #cb604a;
      }
    </style>
  </defs>
  <path class="st0" d="M1497.9,1388.6c-6.7-16.2-2.5-31.1-2.1-49.3,1.1-55.2-2.3-110.3-7.3-165.5-3.8-42.1-32.8-321.2-97.9-305.5-55.9,13.5-94.5,175.8-104.8,215.6-22.1,85.4-21.4,174.4-47.4,259.2-17.9-56.7-57.2-487-146.9-438.7-33.2,17.9-34.6,136.1-36.8,165.5-6,80.8,9.6,159.9,9.6,240.5-18.8-53.2-28.3-108.1-47.5-161.3-28.4-78.6-58.5-238.4-139.6-276.8,0,0-101.7-64.6,87.4,499.2-39.2-38.7-58.9-114.2-85.3-163.6-34.4-64.3-63.1-133.6-103.1-194.5-30.7-46.7-106.8-150.3-118.5-43.5-12.5,114,54.2,246.3,100.5,346.1,43.4,93.6,107,177.6,164.1,263.1,47.5,71,95.9,142.5,146.4,211.3,19.1,26,44.3,48,46.2,82l1.8,25.1s354.6-34.5,330.1-24.3c-24.5,10.2,31.5-140.1,52.3-197.8,69.1-191.4,238.5-340.4,281.1-541.1,14.2-66.8,31.2-238.6-75.1-198.4,0,0-73.4-2.3-207.1,453Z"/>
  <path class="st0" d="M163.5-175c-5.8-16.3-2.4-31.1-2.4-49.3.3-55.2-3.2-110.2-8.1-165.5-3.7-42.1-31.4-321.3-85.8-306.4-46.8,12.8-77.2,174.5-85.4,214.2-17.5,85-15.9,174-36.7,258.4-15.7-56.9-53.7-487.2-128.5-440.1-27.7,17.5-27.4,135.6-28.9,164.9-4.1,80.6,10,159.9,10.9,240.4-16.4-53.3-25-108.4-41.8-161.8-24.7-78.8-51.9-238.9-120.4-278.2,0,0-86.1-65.8,79.3,499.8-33.3-39.1-50.8-114.8-73.5-164.5-29.6-64.6-54.5-134.2-88.8-195.5-26.3-47-91.3-151.4-99.9-44.9-9.2,113.7,48.4,246.7,88.4,347,37.5,94,91.9,178.7,140.8,264.8,40.7,71.5,82.2,143.5,125.3,212.8,16.3,26.2,37.8,48.5,39.7,82.5l1.8,25.1s297.1-30.2,276.7-20.3c-20.4,9.9,24.7-139.7,41.5-197,55.7-190.4,196.1-337.3,229.4-537.3,11.1-66.6,23.4-238-65.4-199.1,0,0-61.6-3.2-168.4,450.2Z"/>
  <path class="st0" d="M464.2,341.1c5.5,16.7.2,31.2-1.5,49.3-5.2,55-5.8,110.2-4.8,165.6.7,42.3,9.2,322.8,75.2,311.9,56.8-9.3,107.1-168.4,120.3-207.4,28.3-83.5,34.1-172.4,66.3-255,13.7,57.9,22.5,473.5,115.6,432,34.4-15.4,43.3-116.9,47.6-146,11.9-80.1,2.1-160.2,8-240.5,14.8,54.4,20.3,109.9,35.5,164.4,22.5,80.4,40.9,242.1,118.9,286.3,0,0,96.7,71.9-50.6-504.2,36.2,41.4,50.4,118.2,73.1,169.4,29.6,66.6,53.1,137.9,88.6,201.5,27.2,48.8,95.4,157.7,115,52.1,20.8-112.7-36-249.6-74.8-352.5-36.4-96.5-93.7-184.9-144.4-274.4-42.1-74.3-85.2-149.1-130.5-221.4-17.1-27.3-40.7-51.2-40-85.2v-25.1s-356.2,8.4-331,0c25.1-8.4-41.6,137.5-66.6,193.4-82.9,185.8-262.8,322-320,519-19,65.6-48.6,235.6,60.4,203.4,0,0,73,7.7,239.8-436.6Z"/>
  <path class="st0" d="M-66,1464.4c11.7,13.1,12.7,28.5,18.4,45.8,17.3,52.5,38.8,103.3,61.9,153.7,17.6,38.5,137.8,292,193.9,255.6,48.3-31.3,30.7-197.2,27.1-238.2-7.5-87.8-37.8-171.6-41.4-260.2,35.8,47.6,210.4,424.8,279,349.4,25.4-27.9-7.2-124.4-14.9-152.8-21.2-78.2-62.2-147.6-89-223.6,35.4,43.9,62.6,92.6,98.5,136.4,52.9,64.7,134.5,205.4,223.7,214.7,0,0,117.4,27.1-248.4-441.7,49.8,23.4,93.5,88.2,134.9,125.9,53.8,49.1,103.9,105,161.9,149.1,44.4,33.8,150.7,106.3,126.2,1.7-26.1-111.6-133-214.2-209.9-293-72-73.8-159.9-131.9-242.3-193.5-68.4-51.2-137.8-102.5-208.3-150.6-26.6-18.2-57.8-30.6-70.8-62l-10.1-23s-323,150.4-303.3,132.7c19.7-17.8,16.9,142.6,16.5,203.9-1.5,203.4-111.8,400.3-85.2,603.7,8.9,67.7,49.9,235.4,136.8,162.2,0,0,70-22.2,44.7-496.1Z"/>
  <path class="st0" d="M2120.1,158.5c-5.2,16.8.4,31.2,2.4,49.3,6.2,54.9,7.9,110,7.9,165.5,0,42.3-3.1,322.9-69.4,313.3-56.9-8.3-110.2-166.3-124.2-205.1-29.8-83-37.4-171.7-71.1-253.7-12.6,58.2-13.6,473.8-107.4,434.1-34.7-14.7-45.5-116-50.4-145.1-13.4-79.9-5.1-160.1-12.5-240.3-13.8,54.7-18.2,110.3-32.5,165-21,80.8-36.3,242.8-113.5,288.5,0,0-95.4,73.7,41.1-505.1-35.5,42.1-48.1,119.2-69.9,170.8-28.4,67.1-50.5,138.9-84.8,203.1-26.3,49.3-92.5,159.5-114,54.3-22.9-112.3,31.3-250.2,68.2-353.9,34.6-97.2,90.2-186.7,139.2-277,40.7-75.1,82.4-150.7,126.3-223.9,16.6-27.6,39.7-51.9,38.4-85.9l-.5-25.1s356.3,1.7,331-6.2c-25.3-7.9,44.2,136.7,70.2,192.2,86.4,184.2,268.8,317,329.7,512.9,20.3,65.2,53,234.7-56.5,204.5,0,0-72.9,9-247.9-432Z"/>
  <path class="st0" d="M2800.7,257c-17.5-1.3-30.4,7.4-47.5,13.4-52.1,18.3-105.5,32.2-159.5,44.7-41.2,9.5-315.4,69-320.8,2.3-4.6-57.3,137.5-144.6,172.2-166.8,74.2-47.6,159.1-74.8,231.5-125.9-59.5.6-464.9,92.4-447.1-7.9,6.6-37.1,103-70.2,130.2-81.5,74.9-30.9,154.9-40.7,231.5-65.9-56.4-1.3-111.5,6.8-168.1,5.2-83.5-2.4-244.8,18.8-306.5-46.3,0,0-93.1-76.5,501.5-72.6-49-25.2-126.9-20.3-182.1-30-71.8-12.7-146.6-18.3-216.9-37.3-53.9-14.6-176.1-54.5-78.3-99,104.4-47.4,250.9-25.3,360.2-12.5,102.4,12,202.1,46.3,301.1,73.9,82.3,22.9,165.3,46.7,246.4,73.2,30.6,10,59.5,27.1,92.3,18.3l24.4-6.1s77.9,347.7,79.9,321.2c2.1-26.4-123.3,73.6-171.6,111.4-160.3,125.3-249,332.8-426.4,435.8-59.1,34.3-216.9,104.1-212-9.5,0,0-25.1-69,365.8-338.1Z"/>
  <path class="st0" d="M1139.4-94.7c-11.2,13.6-11.4,29.1-16.4,46.6-15,53.2-34.3,104.8-55.2,156.2s-125,297.7-182.7,263.8c-49.6-29.2-39.2-195.7-37.4-236.8,3.7-88.1,30.3-173.1,30.1-261.8-33.7,49.1-191.8,433.5-263.6,361.2-26.6-26.8,1.8-124.6,8.2-153.3,17.8-79,55.8-150.2,79.3-227.2-33.5,45.4-58.6,95.2-92.4,140.5-50,66.9-125.4,211.1-214.2,224.1,0,0-116.2,32.2,229-452-48.7,25.6-89.6,92.1-129.3,131.6-51.6,51.4-99.3,109.4-155.3,156-42.9,35.7-145.9,112.7-126,7.1,21.2-112.7,123.6-219.8,197-301.8,68.7-76.9,154.1-138.7,233.6-203.8,66.1-54.1,133.3-108.3,201.6-159.5,25.8-19.3,56.4-33,68-65l9.1-23.4s329.2,136.3,308.7,119.4c-20.4-16.9-10.7,143.2-7.6,204.5,10.3,203.2,129,395.1,111.2,599.5-5.9,68.1-39.6,237.3-129.7,167.9,0,0-70.9-19.2-66.1-493.7Z"/>
  <path class="st0" d="M472.3,2283.1c6.7,16.2,2.5,31.1,2.1,49.3-1.1,55.2,2.3,110.3,7.3,165.5,3.8,42.1,32.8,321.2,97.9,305.5,55.9-13.5,94.5-175.8,104.8-215.6,22.1-85.4,21.4-174.4,47.4-259.2,17.9,56.7,57.2,487,146.9,438.7,33.2-17.9,34.6-136.1,36.8-165.5,6-80.8-9.6-159.9-9.6-240.5,18.8,53.2,28.3,108.1,47.5,161.3,28.4,78.6,58.5,238.4,139.6,276.8,0,0,101.7,64.6-87.4-499.2,39.2,38.7,58.9,114.2,85.3,163.6,34.4,64.3,63.1,133.6,103.1,194.5,30.7,46.7,106.8,150.3,118.5,43.5,12.5-114-54.2-246.3-100.5-346.1-43.4-93.6-107-177.6-164.1-263.1-47.5-71-95.9-142.5-146.4-211.3-19.1-26-44.3-48-46.2-82l-1.8-25.1s-354.6,34.5-330.1,24.3c24.5-10.2-31.5,140.1-52.3,197.8-69.1,191.4-238.5,340.4-281.1,541.1-14.2,66.8-31.2,238.6,75.1,198.4,0,0,73.4,2.3,207.1-453Z"/>
  <path class="st0" d="M2283.8,2857.3c-11.6,13.2-26.9,15.9-43.4,23.6-50.1,23.3-98,50.6-145.4,79.4-36.1,22-274,170.8-231.3,222.4,36.7,44.3,199.4,7.5,239.7-.8,86.4-17.7,166.1-57.5,253.6-71.4-43.1,41.1-412.1,265.6-329.3,325,30.7,22,137.5-28.8,164.8-39.8,75.2-30.1,139.4-79,211.7-114.4-39.5,40.3-84.6,73-124,113.7-58.1,60-188.4,157.5-187.2,247.1,0,0-13.3,119.8,409.8-298.1-17.5,52.2-76.7,103.1-109.4,148.6-42.6,59.2-92.2,115.5-129.3,178.2-28.4,48.1-88,162,13,125.6,107.8-38.9,197.3-157.1,266.6-242.5,64.9-80.1,112.4-174.2,164-263.1,42.9-73.9,85.7-148.8,125.3-224.4,15-28.6,23.6-60.9,53.3-77.5l21.7-12.7s-187-303.3-167.1-285.8-139.7,33.4-200.6,40.1c-202.2,22.2-410.6-64.4-609.5-14.3-66.2,16.7-228,76.9-145.1,154.7,0,0,30.2,66.9,497.9-13.3Z"/>
  <path class="st0" d="M1191.3,3148.8c-5.5-16.7-.2-31.2,1.5-49.3,5.2-55,5.8-110.2,4.8-165.6-.7-42.3-9.2-322.8-75.2-311.9-56.8,9.3-107.1,168.4-120.3,207.4-28.3,83.5-34.1,172.4-66.3,255-13.7-57.9-22.5-473.5-115.6-432-34.4,15.4-43.3,116.9-47.6,146-11.9,80.1-2.1,160.2-8,240.5-14.8-54.4-20.3-109.9-35.5-164.4-22.5-80.4-40.9-242.1-118.9-286.3,0,0-96.7-71.9,50.6,504.2-36.2-41.4-50.4-118.2-73.1-169.4-29.6-66.6-53.1-137.9-88.6-201.5-27.2-48.8-95.4-157.7-115-52.1-20.8,112.7,36,249.6,74.8,352.5,36.4,96.5,93.7,184.9,144.4,274.4,42.1,74.3,85.2,149.1,130.5,221.4,17.1,27.3,40.7,51.2,40,85.2v25.1s356.2-8.4,331,0c-25.1,8.4,41.6-137.5,66.6-193.4,82.9-185.8,262.8-322,320-519,19-65.6,48.6-235.6-60.4-203.4,0,0-73-7.7-239.8,436.6Z"/>
  <path class="st0" d="M2036.2,2207.3c-11.7-13.1-12.7-28.5-18.4-45.8-17.3-52.5-38.8-103.3-61.9-153.7-17.6-38.5-137.8-292-193.9-255.6-48.3,31.3-30.7,197.2-27.1,238.2,7.5,87.8,37.8,171.6,41.4,260.2-35.8-47.6-210.4-424.8-279-349.4-25.4,27.9,7.2,124.4,14.9,152.8,21.2,78.2,62.2,147.6,89,223.6-35.4-43.9-62.6-92.6-98.5-136.4-52.9-64.7-134.5-205.4-223.7-214.7,0,0-117.4-27.1,248.4,441.7-49.8-23.4-93.5-88.2-134.9-125.9-53.8-49.1-103.9-105-161.9-149.1-44.4-33.8-150.7-106.3-126.2-1.7,26.1,111.6,133,214.2,209.9,293,72,73.8,159.9,131.9,242.3,193.5,68.4,51.2,137.8,102.5,208.3,150.6,26.6,18.2,57.8,30.6,70.8,62l10.1,23s323-150.4,303.3-132.7c-19.7,17.8-16.9-142.6-16.5-203.9,1.5-203.4,111.8-400.3,85.2-603.7-8.9-67.7-49.9-235.4-136.8-162.2,0,0-70,22.2-44.7,496.1Z"/>
  <path class="st0" d="M-612.4,2591.5c5.2-16.8-.4-31.2-2.4-49.3-6.2-54.9-7.9-110-7.9-165.5,0-42.3,3.1-322.9,69.4-313.3,56.9,8.3,110.2,166.3,124.2,205.1,29.8,83,37.4,171.7,71.1,253.7,12.6-58.2,13.6-473.8,107.4-434.1,34.7,14.7,45.5,116,50.4,145.1,13.4,79.9,5.1,160.1,12.5,240.3,13.8-54.7,18.2-110.3,32.5-165,21-80.8,36.3-242.8,113.5-288.5,0,0,95.4-73.7-41.1,505.1,35.5-42.1,48.1-119.2,69.9-170.8,28.4-67.1,50.5-138.9,84.8-203.1,26.3-49.3,92.5-159.5,114-54.3,22.9,112.3-31.3,250.2-68.2,353.9-34.6,97.2-90.2,186.7-139.2,277-40.7,75.1-82.4,150.7-126.3,223.9-16.6,27.6-39.7,51.9-38.4,85.9l.5,25.1s-356.3-1.7-331,6.2c25.3,7.9-44.2-136.7-70.2-192.2-86.4-184.2-268.8-317-329.7-512.9-20.3-65.2-53-234.7,56.5-204.5,0,0,72.9-9,247.9,432Z"/>
  <path class="st0" d="M-193.5,2919.3c17.5,1.3,30.4-7.4,47.5-13.4,52.1-18.3,105.5-32.2,159.5-44.7,41.2-9.5,315.4-69,320.8-2.3,4.6,57.3-137.5,144.6-172.2,166.8-74.2,47.6-159.1,74.8-231.5,125.9,59.5-.6,464.9-92.4,447.1,7.9-6.6,37.1-103,70.2-130.2,81.5-74.9,30.9-154.9,40.7-231.5,65.9,56.4,1.3,111.5-6.8,168.1-5.2,83.5,2.4,244.8-18.8,306.5,46.3,0,0,93.1,76.5-501.5,72.6,49,25.2,126.9,20.3,182.1,30,71.8,12.7,146.6,18.3,216.9,37.3,53.9,14.6,176.1,54.5,78.3,99-104.4,47.4-250.9,25.3-360.2,12.5-102.4-12-202.1-46.3-301.1-73.9-82.3-22.9-165.3-46.7-246.4-73.2-30.6-10-59.5-27.1-92.3-18.3l-24.4,6.1s-77.9-347.7-79.9-321.2c-2.1,26.4,123.3-73.6,171.6-111.4,160.3-125.3,249-332.8,426.4-435.8,59.1-34.3,216.9-104.1,212,9.5,0,0,25.1,69-365.8,338.1Z"/>
  <path class="st0" d="M3888.4,1503.5c7.9,15.7,4.8,30.9,5.8,49,3.1,55.2,10.6,109.8,19.8,164.5,7,41.7,57.1,317.8,120.8,297.2,54.7-17.7,80.9-182.4,88.1-222.9,15.6-86.8,8.1-175.6,27.7-262,22.2,55.2,93.9,481.2,179.8,426.3s24.2-138.4,24.1-167.8c-.1-81-21.7-158.7-27.8-239,22.8,51.6,36.4,105.7,59.6,157.3,34.2,76.2,76.4,233.3,160.2,265.4,0,0,106.3,56.7-125-491.1,42,35.6,67.4,109.4,97.5,156.7,39.2,61.5,73,128.4,117.6,186.1,34.1,44.2,117.8,141.8,121.4,34.4,3.8-114.6-72.8-241.5-126.4-337.5-50.3-90-120.1-168.9-183.6-249.9-52.7-67.2-106.4-134.8-162-199.6-21-24.5-47.8-44.5-52.2-78.3l-3.7-24.9s-351,61.3-327.3,49.2c23.6-12-20.7,142.1-37.1,201.2-54.4,196.1-212,357.5-239.2,560.8-9.1,67.7-13,240.3,89.9,192.2,0,0,73.4-3.3,172.2-467.4Z"/>
  <path class="st0" d="M4998.6,2469.6c-6.8-16.2-2.6-31.1-2.2-49.3,1-55.2-2.6-110.3-7.7-165.5-3.9-42.1-33.6-321.1-98.7-305.3-55.9,13.6-94,176-104.2,215.9-21.9,85.4-21,174.5-46.8,259.3-18.1-56.7-58.4-470.4-148-422-33.2,17.9-34.3,119.8-36.4,149.2-5.8,80.8,10,159.9,10.2,240.4-18.9-53.1-28.6-108-47.9-161.2-28.6-78.5-59.1-238.3-140.3-276.5,0,0-101.9-64.4,88.7,498.9-39.3-38.6-59.2-114.1-85.7-163.4-34.6-64.2-63.4-133.5-103.6-194.2-30.8-46.6-107.1-150-118.6-43.2-12.2,114,54.9,246.1,101.4,345.9,43.6,93.5,107.4,177.3,164.8,262.6,47.6,70.9,96.3,142.2,146.9,210.9,19.1,25.9,44.4,47.9,46.4,81.9l1.9,25.1s354.5-35.4,330.1-25.1c-24.4,10.3,31.1-140.2,51.8-197.9,68.6-191.5,237.7-341,279.7-541.8,14-66.9,30.6-238.6-75.6-198.2,0,0-73.4-2.1-206,453.5Z"/>
  <path class="st0" d="M3361.3,2777.3c3.9-17.1-2.8-31.1-6.2-49-10.4-54.3-16.2-109.1-20.5-164.4-3.3-42.2-21.3-322.2,45.4-317.6,57.4,3.9,122.5,157.5,139.4,195.1,36.1,80.5,50.3,168.4,90.1,247.6,8.2-59-22.3-473.5,74.2-440.9,35.7,12.1,54.1,112.3,61.2,140.8,19.5,78.6,17.3,159.3,30.7,238.7,9.6-55.6,9.8-111.3,19.9-167,14.8-82.2,17.8-244.9,91.3-296.3,0,0,89.5-80.7-2.7,506.7,32.2-44.7,39-122.5,56.8-175.6,23.2-69.1,39.9-142.3,69.1-209,22.4-51.1,80.1-166,109.5-62.7,31.4,110.3-12.3,251.9-41.2,358-27.1,99.5-75.8,193-117.8,286.8-34.9,78-70.7,156.5-109,232.8-14.4,28.8-35.7,54.8-31.8,88.6l2.4,25s-355.4,25.3-329.5,31.3c25.8,6-54.5-132.9-84.6-186.3-100.1-177.1-292.1-295.7-367.6-486.4-25.1-63.5-70.7-230,40.9-208.2,0,0,72-14.5,280,412Z"/>
  <path class="st0" d="M3528.1,2984.2c17.6,0,29.7-9.6,46.4-16.9,50.6-22.2,102.8-40.1,155.7-56.6,40.4-12.6,309.3-92.7,319.7-26.6,9,56.8-126.2,154.6-159,179.4-70.4,53.1-152.9,86.6-221.2,143.1,59.3-5.2,456.6-127.4,446.4-26.1-3.8,37.5-97.4,77.8-123.6,91.1-72.3,36.5-151.4,52.4-225.8,83.2,56.3-3,110.7-15.3,167.2-17.9,83.4-3.9,242.7-37.3,309.2,22.9,0,0,98.7,69.2-494.6,110.5,50.7,21.4,128.1,10.6,183.8,16.2,72.5,7.2,147.6,7.1,219.1,20.8,54.8,10.5,179.7,41,85.6,92.8-100.5,55.2-248.3,44.2-358.2,39.7-103-4.2-205-30.8-305.9-50.8-83.8-16.6-168.3-34-251.2-54.3-31.3-7.7-61.4-22.6-93.4-11.2l-23.9,7.9s-104-340.8-104-314.3c0,26.5,117.4-82.7,162.7-124,150.3-137.1,223.1-350.7,392.1-466.9,56.3-38.7,208.4-120.2,212.1-6.6,0,0,30.2,66.9-339.1,364.8Z"/>
  <path class="st0" d="M4843.3,533.9c-7.9-15.7-4.8-30.9-5.8-49-3.1-55.2-10.6-109.8-19.8-164.5-7-41.7-57.1-317.8-120.8-297.2-54.7,17.7-80.9,182.4-88.1,222.9-15.6,86.8-8.1,175.6-27.7,262-22.2-55.2-93.9-481.2-179.8-426.3-31.8,20.3-24.2,138.4-24.1,167.8.1,81,21.7,158.7,27.8,239-22.8-51.6-36.4-105.7-59.6-157.3-34.2-76.2-76.4-233.3-160.2-265.4,0,0-106.3-56.7,125,491.1-42-35.6-67.4-109.4-97.5-156.7-39.2-61.5-73-128.4-117.6-186.1-34.1-44.2-117.8-141.8-121.4-34.4-3.8,114.6,72.8,241.5,126.4,337.5,50.3,90,120.1,168.9,183.6,249.9,52.7,67.2,106.4,134.8,162,199.6,21,24.5,47.8,44.5,52.2,78.3l3.7,24.9s351-61.3,327.3-49.2c-23.6,12,20.7-142.1,37.1-201.2,54.4-196.1,212-357.5,239.2-560.8,9.1-67.7,13-240.3-89.9-192.2,0,0-73.4,3.3-172.2,467.4Z"/>
  <path class="st0" d="M3688.7,189.2c10.6-14,25.6-17.9,41.4-26.8,48.2-27,93.9-57.9,139-90.2,34.4-24.7,260.3-191.1,213.8-239.2-40-41.4-199.4,7.6-239,18.9-84.8,24.2-161.2,69.9-247.5,90.5,39.8-44.2,390.8-296.1,303.8-349-32.2-19.6-134.9,39.2-161.3,52.1-72.7,35.7-133,89.3-202.4,130.2,36.3-43.1,78.9-79.2,115-122.7,53.4-64.3,175.9-171.3,167.9-260.6,0,0,4.2-120.5-386,328.3,13.5-53.4,68.6-108.7,97.8-156.5,37.9-62.2,83.2-122.1,115.4-187.4,24.7-50.1,75.5-168.2-22.5-124.2-104.6,47-184.8,171.6-247.4,262-58.7,84.8-98.8,182.2-143.6,274.8-37.2,76.9-74.2,154.9-108,233.3-12.7,29.6-18.9,62.6-47.3,81.3l-20.7,14.3s209.4,288.2,188.2,272.3,136.8-43.9,197-55.2c200-37.5,414.3,33.1,608.9-31.9,64.8-21.7,221.5-94,133-165.3,0,0-35.2-64.5-495.5,51.1Z"/>
  <path class="st0" d="M4060.7-274.8c6.8,16.2,2.6,31.1,2.2,49.3-1,55.2,2.6,110.3,7.7,165.5,3.9,42.1,33.6,321.1,98.7,305.3,55.9-13.6,94-176,104.2-215.9,21.9-85.4,21-174.5,46.8-259.3,18.1,56.7,58.4,470.4,148,422,33.2-17.9,34.3-119.8,36.4-149.2,5.8-80.8-10-159.9-10.2-240.4,18.9,53.1,28.6,108,47.9,161.2,28.6,78.5,59.1,238.3,140.3,276.5,0,0,101.9,64.4-88.7-498.9,39.3,38.6,59.2,114.1,85.7,163.4,34.6,64.2,63.4,133.5,103.6,194.2,30.8,46.6,107.1,150,118.6,43.2,12.2-114-54.9-246.1-101.4-345.9-43.6-93.5-107.4-177.3-164.8-262.6-47.6-70.9-96.3-142.2-146.9-210.9-19.1-25.9-44.4-47.9-46.4-81.9l-1.9-25.1s-354.5,35.4-330.1,25.1c24.4-10.3-31.1,140.2-51.8,197.9-68.6,191.5-237.7,341-279.7,541.8-14,66.9-30.6,238.6,75.6,198.2,0,0,73.4,2.1,206-453.5Z"/>
  <path class="st0" d="M3289.6,728c12.7,12.1,14.8,27.5,21.8,44.3,21.2,51,46.6,100,73.4,148.5,20.5,37,159.5,280.7,212.7,240.2,45.8-34.9,15.6-198.9,9-239.6-14.2-87-50.7-168.3-61-256.3,39.3,44.7,242,407.6,304.7,327.3,23.2-29.7-16.6-123.5-26.4-151.3-27-76.4-73.2-142.5-105.7-216.2,38.6,41.1,69.5,87.5,108.5,128.5,57.6,60.5,149.6,194.6,239.3,197.1,0,0,119.2,18.1-281.2-421.6,51.4,19.6,99.9,80.8,144,115.3,57.4,44.9,111.6,96.8,172.7,136.4,46.9,30.3,158.3,94.5,126-7.9-34.5-109.3-148.9-203.5-231.5-276.2-77.4-68.2-169.5-119.4-256.2-174.6-72.1-45.9-145.2-91.7-219.1-134.4-27.9-16.1-59.9-26.1-75.3-56.4l-11.8-22.2s-310.6,174.5-292.3,155.3c18.3-19.2,27.7,140.9,31.9,202.1,13.9,203-81.1,407.7-39.1,608.4,14,66.9,67.6,230.9,148.7,151.3,0,0,68.1-27.5,6.9-498.1Z"/>
  <path class="st0" d="M2672.4,1117.5c-11.7-13.1-12.7-28.5-18.4-45.8-17.3-52.5-38.8-103.3-61.9-153.7-17.6-38.5-137.8-292-193.9-255.6-48.3,31.3-30.7,197.2-27.1,238.2,7.5,87.8,37.8,171.6,41.4,260.2-35.8-47.6-210.4-424.8-279-349.4-25.4,27.9,7.2,124.4,14.9,152.8,21.2,78.2,62.2,147.6,89,223.6-35.4-43.9-62.6-92.6-98.5-136.4-52.9-64.7-134.5-205.4-223.7-214.7,0,0-117.4-27.1,248.4,441.7-49.8-23.4-93.5-88.2-134.9-125.9-53.8-49.1-103.9-105-161.9-149.1-44.4-33.8-150.7-106.3-126.2-1.7,26.1,111.6,133,214.2,209.9,293,72,73.8,159.9,131.9,242.3,193.5,68.4,51.2,137.8,102.5,208.3,150.6,26.6,18.2,57.8,30.6,70.8,62l10.1,23s323-150.4,303.3-132.7c-19.7,17.8-16.9-142.6-16.5-203.9,1.5-203.4,111.8-400.3,85.2-603.7-8.9-67.7-49.9-235.4-136.8-162.2,0,0-70,22.2-44.7,496.1Z"/>
  <path class="st0" d="M2826.3,1834.9c6.1,16.5,19.3,24.5,32,37.6,38.4,39.8,73.3,82.5,107.1,126.4,25.8,33.5,194.2,258,135.8,290.7-50.2,28.1-188.7-64.7-223.4-87-74.2-47.6-134.3-113.4-210.9-157.9,25.4,53.8,277.9,384.1,179.2,409.7-36.5,9.5-106.8-64.3-128.3-84.4-59.3-55.2-101.6-123.8-156.3-182.9,22.4,51.8,52.7,98.5,74.8,150.6,32.6,76.9,119.1,214.7,85.7,297.9,0,0-30.7,116.6-275.1-425.6-2.5,55,34.4,123.8,48.6,178,18.4,70.5,44.5,140.9,56.5,212.7,9.2,55.1,23.8,182.8-57.3,112.5-86.6-75.1-127.6-217.5-161.5-322.2-31.8-98.1-42.2-203-58.4-304.5-13.4-84.3-26.5-169.7-36.2-254.5-3.7-32-.1-65.4-21.9-91.5l-15.7-19.6s283.5-215.7,258.7-206.6c-24.9,9.1,118.3,81.4,172.8,109.6,180.7,93.5,406.3,87.6,573.9,205.9,55.8,39.4,185,153.8,79.8,196.6,0,0-52.3,51.6-459.8-191.6Z"/>
  <path class="st0" d="M3014.4,1371.3c-1.7,17.5-12.4,28.7-21.3,44.5-26.9,48.3-49.7,98.5-71.2,149.6-16.4,39-121.6,299.1-56.8,315.8,55.7,14.3,165.9-110.9,193.7-141.3,59.5-65,100.7-144,163.5-206.7-10.8,58.5-177.9,456.9-76,456.4,37.7-.2,94.4-104,110.1-128.9,43.2-68.5,66.5-145.7,104.3-216.9-8.4,55.8-25.7,108.8-33.7,164.8-11.8,82.7-60.2,238-6.5,310,0,0,59.5,104.8,156.9-481.8,16.5,52.5-1.6,128.5-1.4,184.5.3,72.9-6.9,147.6-.1,220.1,5.2,55.6,23.8,182.8,84.2,94,64.5-94.8,67.6-242.9,73.6-352.8,5.6-103-11.2-207-21.6-309.3-8.6-85-17.9-170.8-30.2-255.3-4.6-31.9-16.6-63.2-2.3-94.1l10.1-23s-329.3-135.9-303-133.4c26.4,2.5-93.5,109-138.9,150.2-150.7,136.6-370.3,188.8-502,346-43.9,52.4-139.5,196.1-26.7,210.5,0,0,63.8,36.5,395.4-303Z"/>
</svg>