<?xml version="1.0" encoding="UTF-8"?>
<svg id="Capa_1" data-name="Capa 1" xmlns="http://www.w3.org/2000/svg" viewBox="0 0 317.73 343.44">
  <defs>
    <style>
      .cls-1 {
        fill: #cffe1e;
      }

      .cls-2 {
        fill: #cb604a;
      }

      .cls-3 {
        fill: #ac86bf;
      }
    </style>
  </defs>
  <path class="cls-2" d="M23.41,253.02c15.3-9.43,34.15-10.65,52.12-10.6,17.97.05,36.41,1.05,53.43-4.72,40.32-13.66,59-58.99,89.5-88.7,21.87-21.31,51.09-34.92,81.46-37.97,5.94,20.06,11.88,40.12,17.82,60.18-29.45,2.69-64.49,9.28-75.73,36.64-5.24,12.75-3.78,27.48-8.99,40.24-7.09,17.33-25.09,27.69-42.96,33.28-31.62,9.9-65.51,8.84-98.21,14.18-33.28,5.45-63.41,19.22-82.31,47.87-10.76-29.79-19.09-70.1,13.88-90.42Z"/>
  <path class="cls-3" d="M24.38,101.01c-4.21-3.95-8.36-8.34-10.03-13.87-1.67-5.53-.05-12.46,5.05-15.16,2.75-1.46,6.01-1.5,9.12-1.37,22.32.95,44.26,9.33,61.53,23.5-7.16-17.2-12-35.36-14.36-53.84-1.55-12.18-1.38-26.2,7.58-34.6,13.48-12.62,36.98-2.47,46.18,13.54,9.19,16.01,9.58,35.42,14.5,53.22,13.61-15.18,32.44-25.59,52.54-29.02,8.43-1.44,17.95-1.4,24.5,4.1,9.97,8.38,7.21,25.68-2.5,34.35s-23.62,10.66-36.65,10.87c16.81,7.39,32.38,18.99,41.12,35.14,8.74,16.15,9.56,37.24-.9,52.33-10.4,15.01-30.64,21.7-48.5,17.88-17.86-3.82-32.95-17.05-41.16-33.37-2.62,12.4-5.33,25.01-11.49,36.08s-16.43,20.58-28.93,22.66c-21.81,3.63-42.66-21.56-35.01-42.3,5.55-15.07,40.91-25.19,32.62-40.25-3.32-6.04-26.31-12.07-32.85-15.86-11.65-6.76-22.53-14.81-32.35-24.03Z"/>
  <path class="cls-1" d="M114.9,93.87c16.69-1.44,36,2.69,44.26,17.26,7.62,13.44,2.17,31.83-10.02,41.32-12.19,9.49-29.33,10.89-44.13,6.5-39.02-11.59-27.49-61.85,9.89-65.07Z"/>
</svg>